<svg width="21" height="20" viewBox="0 0 21 20" fill="none" xmlns="http://www.w3.org/2000/svg">
<g clip-path="url(#clip0_48_187)">
<path d="M20.9826 10.0781C20.9826 10.1687 20.9826 10.2072 20.9826 10.2456C20.9826 11.9949 21.0028 13.7469 20.9682 15.499C20.9834 16.1137 20.8629 16.7247 20.6145 17.2924C20.3661 17.86 19.9953 18.3717 19.5261 18.7943C18.8451 19.4085 17.9721 19.7942 17.0399 19.8928C15.2747 20.0877 13.498 19.9449 11.7271 19.9834C11.3695 19.9834 11.0118 19.9834 10.6484 19.9834C10.6484 19.6648 10.6484 19.3628 10.6484 19.0634C10.6588 17.6189 10.788 16.1773 11.0349 14.752C11.3781 13.0879 12.2492 11.7862 13.8788 11.0118C14.7845 10.6075 15.764 10.3743 16.763 10.3253C18.1705 10.2264 19.5636 10.1605 20.9826 10.0781Z" fill="black"/>
<path d="M10.3543 19.9861C9.48908 19.9861 8.66708 19.9861 7.84219 19.9861C6.67408 19.9861 5.50309 20.0054 4.34075 19.9367C3.36074 19.9069 2.4192 19.5666 1.66531 18.9697C0.911418 18.3728 0.388293 17.5534 0.178822 16.6414C0.0678848 16.1976 0.00792562 15.7436 0 15.2875C0 13.6234 0 11.9565 0 10.2923C0 10.2402 0 10.188 0 10.155C0.527812 10.155 1.03832 10.1358 1.54883 10.155C2.42851 10.1962 3.3082 10.2402 4.18212 10.3198C5.26861 10.3772 6.331 10.6474 7.30284 11.1134C7.91777 11.429 8.45757 11.8622 8.88837 12.3858C9.31918 12.9094 9.63171 13.5121 9.80635 14.1561C10.0716 15.1343 10.2244 16.137 10.2621 17.1467C10.314 17.9705 10.3342 18.7943 10.3659 19.6182C10.3572 19.7308 10.3543 19.8461 10.3543 19.9861Z" fill="black"/>
<path d="M20.9943 9.86934C20.1954 9.84187 19.4282 9.83638 18.6639 9.78421C17.715 9.72105 16.7632 9.64415 15.82 9.50959C14.8906 9.4044 14.0008 9.08999 13.2242 8.59239C12.6766 8.23262 12.2088 7.77363 11.8475 7.24166C11.4862 6.70968 11.2386 6.11515 11.1188 5.49202C10.9498 4.6757 10.8332 3.85033 10.7698 3.02051C10.6717 2.02092 10.6717 1.02683 10.614 0.0189994C10.7063 0.0189994 10.7755 0.00252271 10.8448 0.00252271C12.5522 0.00252271 14.2597 0.00252271 15.9671 0.00252271C16.9934 -0.0313134 18.0078 0.220637 18.886 0.727499C19.4322 1.05056 19.8966 1.48479 20.2456 1.999C20.5947 2.51322 20.8199 3.09465 20.9049 3.70155C20.9702 4.13913 21.0039 4.58046 21.0059 5.02243C21.0059 6.53829 21.0059 8.0569 21.0059 9.57275L20.9943 9.86934Z" fill="black"/>
<path d="M0 9.85583C0 8.59261 0 7.36235 0 6.13483C0 5.47302 0 4.81395 0.0432633 4.15488C0.0814773 3.13211 0.506932 2.15702 1.24112 1.40953C1.9753 0.662046 2.96867 0.19262 4.03791 0.0878759C4.51673 0.0352363 4.99806 0.00590617 5.48002 0C7 0 8.51998 0 10.0429 0H10.3457C10.3457 0.17026 10.3457 0.329535 10.3457 0.48881C10.2505 1.86187 10.1842 3.24866 10.0573 4.62172C9.97438 5.69081 9.57429 6.71551 8.90359 7.57655C8.16856 8.50642 7.09795 9.14425 5.89823 9.36702C4.90146 9.54556 3.89534 9.67298 2.88422 9.74873C2.0651 9.82288 1.24021 9.82288 0.415328 9.85583H0Z" fill="black"/>
</g>
<defs>
<clipPath id="clip0_48_187">
<rect width="21" height="20" fill="white"/>
</clipPath>
</defs>
</svg>
