<svg width="23" height="22" viewBox="0 0 23 22" fill="none" xmlns="http://www.w3.org/2000/svg">
<g id="&#208;&#145;&#208;&#181;&#208;&#183;&#209;&#139;&#208;&#188;&#209;&#143;&#208;&#189;&#208;&#189;&#209;&#139;&#208;&#185;-1-04 1" clip-path="url(#clip0_48_192)">
<path id="Vector" d="M0 9.98702C0.0614269 9.63295 0.114079 9.28169 0.181356 8.93044C0.484266 7.37492 1.13934 5.90237 2.10022 4.61698C2.11777 4.5945 2.13824 4.57483 2.12069 4.5945L5.33829 5.82531C4.97509 7.31779 4.77413 8.84246 4.73865 10.3748H0V9.98702Z" fill="black"/>
<path id="Vector_2" d="M0 11.6675H4.7445C4.78111 13.1997 4.98206 14.7243 5.34414 16.217L2.07682 17.4618C1.75506 16.9279 1.39234 16.3575 1.08521 15.7561C0.512765 14.634 0.158853 13.4206 0.0409513 12.1761C0.0326427 12.1343 0.0188837 12.0937 0 12.0553L0 11.6675Z" fill="black"/>
<path id="Vector_3" d="M22.9999 10.3633H18.2496C18.2174 8.83526 18.0213 7.31447 17.6646 5.82505L20.8822 4.59424C22.1452 6.28445 22.8799 8.28585 22.9999 10.3633Z" fill="black"/>
<path id="Vector_4" d="M17.6499 16.2143C18.0066 14.7267 18.2027 13.2078 18.2349 11.6816H22.9999C22.8769 13.7581 22.1413 15.7581 20.8792 17.4479L17.6499 16.2143Z" fill="black"/>
<path id="Vector_5" d="M10.8229 6.58695V10.3637H6.08423C6.11546 8.93701 6.30371 7.51752 6.64585 6.12891L10.8229 6.58695Z" fill="black"/>
<path id="Vector_6" d="M6.64292 15.9104C6.30367 14.528 6.11545 13.1153 6.0813 11.6953H10.8229V15.4552L6.64292 15.9104Z" fill="black"/>
<path id="Vector_7" d="M12.1831 10.3577V6.58377L16.3484 6.13135C16.6882 7.51379 16.8774 8.92641 16.913 10.3464L12.1831 10.3577Z" fill="black"/>
<path id="Vector_8" d="M12.1802 15.4921V11.6816H16.8837C16.9949 12.2071 16.5912 15.2392 16.325 15.9445C15.6435 15.8462 14.9619 15.7338 14.2775 15.6635C13.593 15.5933 12.891 15.5483 12.1802 15.4921Z" fill="black"/>
<path id="Vector_9" d="M15.9653 4.88951L12.186 5.29416V0C12.5215 0.152575 12.8477 0.323327 13.163 0.511432C13.9465 1.0601 14.5757 1.78722 14.9941 2.62741C15.351 3.30183 15.6318 4.01277 15.9448 4.70967C15.9566 4.76899 15.9635 4.82913 15.9653 4.88951Z" fill="black"/>
<path id="Vector_10" d="M12.1772 21.9888V16.838C12.5663 16.7368 15.2106 17.0038 15.9799 17.2258C15.8658 17.5208 15.7605 17.8187 15.6376 18.1081C15.2198 19.2016 14.5771 20.2031 13.748 21.0531C13.3512 21.4564 12.8626 21.7661 12.3206 21.9579C12.2855 21.9692 12.2416 21.9748 12.1772 21.9888Z" fill="black"/>
<path id="Vector_11" d="M10.8229 0.0701099V5.24063C9.54519 5.21244 8.27264 5.07515 7.02026 4.83036C7.07584 4.67862 7.12264 4.5353 7.17529 4.39761C7.56988 3.25747 8.1819 2.19783 8.98008 1.27282C9.41764 0.750508 9.98923 0.346659 10.6386 0.101021L10.7468 0.0672999C10.7722 0.0647706 10.7978 0.0657167 10.8229 0.0701099Z" fill="black"/>
<path id="Vector_12" d="M7.04663 17.2058C8.29076 16.9653 9.55426 16.829 10.8229 16.7983V21.9998C10.6474 21.9323 10.4807 21.8817 10.3257 21.8059C9.55018 21.3926 8.89844 20.7945 8.43312 20.0693C7.85475 19.2162 7.39733 18.293 7.07296 17.3238C7.06037 17.2854 7.05155 17.2458 7.04663 17.2058Z" fill="black"/>
<path id="Vector_13" d="M15.1199 21.5366C16.2373 20.0023 16.2373 20.0023 17.2844 17.521C18.2163 17.7567 19.1187 18.0893 19.9755 18.5129C18.6503 19.9004 16.9793 20.9409 15.1199 21.5366Z" fill="black"/>
<path id="Vector_14" d="M20.0135 3.56856L17.337 4.56051C17.0035 3.81023 16.7373 3.1049 16.3834 2.43892C16.0295 1.77293 15.5966 1.16034 15.2104 0.533691C17.0532 1.1382 18.7058 2.18248 20.0135 3.56856Z" fill="black"/>
<path id="Vector_15" d="M2.98071 18.4761L5.69812 17.4673C6.15681 18.9216 6.88081 20.286 7.83637 21.4969C5.97198 20.9126 4.29838 19.8714 2.98071 18.4761Z" fill="black"/>
<path id="Vector_16" d="M3.02173 3.52677C4.32993 2.14888 5.98786 1.12062 7.83351 0.54248C6.88927 1.73935 6.17326 3.08747 5.71866 4.52434C4.78446 4.28742 3.88009 3.9529 3.02173 3.52677Z" fill="black"/>
</g>
<defs>
<clipPath id="clip0_48_192">
<rect width="23" height="22" fill="white"/>
</clipPath>
</defs>
</svg>
