<svg width="79" height="72" viewBox="0 0 79 72" fill="none" xmlns="http://www.w3.org/2000/svg">
<rect x="1.5" y="1.5" width="76" height="69" rx="5.5" fill="#81D8D0" stroke="#81D8D0" stroke-width="3"/>
<path d="M19.764 25.194C19.2671 23.5894 19.6149 22.2355 20.8571 21.1824C20.8075 21.0821 20.7578 21.032 20.6584 20.9317C18.6211 18.7253 18.1739 16.0175 19.4658 13.2596C19.8137 12.5575 20.2609 11.9057 20.7081 11.2538C21.7516 9.84973 23.1925 9.84973 24.6832 10.2007C25.9752 10.5016 27.0683 11.2538 27.913 12.2567C29.6025 14.2123 31.1925 16.2682 32.882 18.274C32.9317 18.3743 33.0311 18.4245 33.0807 18.5248C33.677 19.5276 34.4224 20.1795 35.6646 19.8787C35.9627 19.8285 36.3602 19.9288 36.6584 20.0792C37.1553 20.33 37.4534 20.1294 37.8012 19.7784C40.2857 17.3714 42.8696 15.0146 45.9006 13.3097C46.9441 12.708 48.087 12.2065 49.2298 11.8054C51.0186 11.2036 52.2609 12.3068 52.1615 14.2123C52.1615 14.5633 52.3106 14.9143 52.3602 15.3155C52.7081 17.4216 52.2609 19.3772 51.118 21.1824C51.0186 21.2827 50.9689 21.4331 50.8696 21.5334C51.7143 22.7369 51.9627 24.0407 51.5155 25.545C52.1118 25.6453 52.6584 25.7957 53.205 25.896C54.0497 26.0966 54.8944 26.247 55.6894 26.4476C55.9379 26.4978 56.1863 26.6983 56.3851 26.8488C56.5342 26.9491 56.6335 27.0493 56.7826 27.0493C60.0124 27.7012 62.0497 29.7572 63.3913 32.6154C63.6398 33.1168 63.8882 33.3174 64.4845 33.3174C66.4721 33.3174 67.913 34.3203 68.9068 36.0252C70 37.8806 70.1491 39.9365 69.8012 42.0426C69.3044 45.3521 67.913 48.3107 65.7764 50.8681C65.6273 51.0686 65.1801 51.2191 64.882 51.1689C63.3913 50.9182 61.9006 50.6173 60.4596 50.3666C58.8696 50.0657 57.2795 49.815 55.5901 49.5142C55.5901 50.6173 55.5901 51.7205 55.5901 52.8237C55.5901 55.0301 54.5963 56.4843 52.559 57.1863C47.4907 59.0416 42.2733 60.4457 37.0062 61.8497C35.764 62.1506 34.5714 61.8497 33.4286 61.4987C29.1553 60.195 24.882 58.8912 20.6087 57.5874C19.8137 57.3367 18.9689 57.1361 18.1242 56.8854C16.1366 56.2837 14.9441 54.7793 14.9441 52.6733C14.8447 46.8063 14.7453 40.9896 14.6957 35.1226C14.6957 34.7716 14.7453 34.4206 14.2981 34.1699C14.1491 34.1197 14.0497 33.7687 14.0497 33.518C14.0497 31.4621 14 29.356 14 27.1998C14 26.6983 14.2484 26.4978 14.6957 26.3975C16.3354 25.9963 18.0248 25.5952 19.764 25.194ZM36.7081 60.6463C39.2422 59.9442 41.7764 59.2422 44.3603 58.5402C44.5093 58.49 44.6584 58.2393 44.6584 58.0889C44.7081 57.086 44.8075 56.033 44.8075 55.0301C44.7578 49.2634 44.7081 43.5469 44.7081 37.7803C44.7081 37.5797 44.6584 37.4293 44.6584 37.1786C42.0248 37.7302 39.441 38.2316 36.7578 38.7832C36.7081 46.0542 36.7081 53.3251 36.7081 60.6463ZM35.4161 60.7466C35.4161 58.9413 35.4161 57.3367 35.4161 55.7321C35.4161 50.2663 35.4658 44.8006 35.4658 39.3348C35.4658 38.8835 35.3665 38.733 34.9193 38.6328C33.9255 38.4322 32.9814 38.1815 31.9876 37.9809C30.4472 37.6299 28.9565 37.329 27.3665 36.978C27.3168 37.1786 27.3168 37.329 27.3168 37.4293C27.2174 44.0985 27.3168 50.6675 27.913 57.1863C28.0124 58.5402 28.0621 58.5402 29.3043 58.8912C31.2422 59.4929 33.2298 60.0947 35.4161 60.7466ZM62.9441 34.9221C61.5031 35.5238 60.6584 36.7774 60.6087 38.4322C60.559 39.7861 59.8634 40.2374 58.6211 39.6357C57.2795 38.9838 55.9876 39.0841 54.795 39.9365C53.354 40.9896 52.6584 42.4438 52.8571 44.249C53.0559 46.1043 54 47.4582 55.7391 48.1101C56.6832 48.4611 57.7267 48.6115 58.7702 48.8121C60.6087 49.1631 62.4472 49.5142 64.2857 49.815C64.5839 49.8652 64.9317 50.0156 65.2298 49.6144C67.4162 46.7061 68.7578 43.4968 68.7081 39.7861C68.6584 38.2817 68.2609 36.9278 67.1677 35.8247C66.3727 35.0223 65.4783 34.6212 64.236 34.6713C64.5839 35.3734 64.3851 36.276 65.2298 36.7273C65.677 36.978 65.677 37.7803 65.3789 38.2316C65.0807 38.733 64.5342 38.8835 63.9876 38.733C63.4907 38.5325 63.0932 37.9809 63.2919 37.5296C63.6894 36.4765 63.1429 35.7244 62.9441 34.9221ZM22.4969 56.8353C22.4969 56.5845 22.4969 56.4341 22.4969 56.2837C22.3478 53.275 22.1491 50.2663 22.0994 47.2576C22.0497 43.6974 22.0994 40.1371 22.0994 36.5267C22.0994 36.1255 22 35.9249 21.6025 35.8748C20.6087 35.7244 19.6646 35.4736 18.6708 35.2731C17.7764 35.0725 16.882 34.9221 15.9876 34.7215C15.9876 35.0223 15.9876 35.2731 15.9876 35.4736C16.0373 37.9809 16.087 40.438 16.087 42.9452C16.1366 46.2046 16.1863 49.4139 16.236 52.6733C16.236 53.9269 16.7826 55.0301 17.9752 55.4814C19.4161 56.033 20.9565 56.384 22.4969 56.8353ZM20.9565 13.1091C20.0621 14.8141 19.7143 16.4187 20.4099 18.1737C20.8075 19.2268 21.5031 20.0291 22.3975 20.681C22.5963 20.8314 22.795 21.1824 22.795 21.4331C22.795 21.6337 22.4472 21.7842 22.2484 21.9346C22 22.1352 21.6522 22.2355 21.4534 22.436C20.8075 23.0879 20.7578 24.141 21.2547 25.0436C22 26.3975 24.3354 28.0021 26.5217 27.1496C27.9627 26.5479 29.5031 26.1467 30.9441 25.6453C31.0932 25.5952 31.2422 25.545 31.3913 25.4447C30.4472 23.6395 30.6957 22.085 32.1863 20.7311C27.9627 18.8256 23.9379 16.8198 20.9565 13.1091ZM38.0994 26.3975C38.3478 26.4978 38.5466 26.5479 38.7453 26.6482C40.3851 27.2499 42.0745 27.8517 43.7143 28.5035C45.7516 29.356 45.4037 28.9047 45.5528 31.0609C46.0994 39.2345 46.3478 47.3579 46.0497 55.5817C46 56.384 46.0497 57.2364 46.0497 58.0889C46.795 57.8382 47.5404 57.5874 48.3354 57.3869C48.6832 57.2866 48.882 57.1361 48.882 56.735C48.9317 54.8295 49.1304 52.9741 49.0807 51.0686C48.9814 46.3049 48.882 41.5411 48.6832 36.7774C48.5839 34.3705 48.3354 31.9635 48.1366 29.5566C48.087 28.7543 47.7391 28.4033 46.9441 28.2027C46.7453 28.1525 46.4969 28.1024 46.2981 28.0522C44.3106 27.2499 42.2733 26.4978 40.2857 25.6954C39.8385 25.545 39.3913 25.3444 38.9441 25.194C38.646 25.545 38.3975 25.9462 38.0994 26.3975ZM26.6211 58.0889C26.6211 57.8883 26.6211 57.7379 26.6211 57.5874C26.4721 54.7793 26.2236 52.0214 26.1242 49.2133C25.8758 42.8449 25.9752 36.4264 26.4224 30.058C26.4721 29.5064 26.6708 29.2056 27.2174 29.0551C28.4596 28.654 29.7019 28.2027 30.8944 27.8015C31.5404 27.5508 32.1366 27.3001 32.7826 27.0493C32.7826 26.9491 32.7329 26.8989 32.7329 26.7986C32.3851 26.7986 32.0373 26.6983 31.7391 26.7986C29.3043 27.6009 26.8696 28.4534 24.3851 29.2557C23.8385 29.4061 23.6398 29.707 23.6398 30.2586C23.5404 34.22 23.2422 38.2316 23.2919 42.193C23.3416 47.0571 23.5901 51.9712 23.7888 56.8353C23.7888 56.9857 23.8882 57.2866 24.0373 57.3367C24.882 57.5874 25.7267 57.8382 26.6211 58.0889ZM38.795 21.6337C38.9441 22.2856 39.0932 22.7871 39.1429 23.3386C39.1925 23.7398 39.2919 23.8401 39.6398 23.9905C41.0311 24.5421 42.4721 25.194 43.8634 25.7456C44.9565 26.1467 46.0994 26.598 47.2919 26.8488C48.7826 27.1998 50.0248 26.3975 50.3727 25.0436C50.6211 24.0407 50.4224 23.0879 49.7764 22.2856C49.2795 21.6839 49.3292 21.5836 49.7267 20.9317C50.2236 20.1294 50.6708 19.2769 50.9689 18.3743C51.3168 17.3714 51.2671 16.2682 50.9689 15.1149C47.1429 17.8227 43.0683 19.979 38.795 21.6337ZM49.9255 35.8247C50.323 42.7948 50.5217 49.7147 50.1739 56.735C50.8696 56.4843 51.5155 56.2837 52.1615 56.033C53.7019 55.4814 54.3975 54.5286 54.3975 52.924C54.3975 51.7707 54.3975 50.5672 54.4472 49.4139C54.4472 49.0628 54.3478 48.8121 54.0497 48.6115C52.6087 47.5585 51.8137 46.1545 51.6646 44.3493C51.4658 41.7417 52.559 39.7359 54.795 38.4322C54.795 37.2287 54.795 36.0252 54.795 34.7716C53.1553 35.1226 51.5652 35.4736 49.9255 35.8247ZM35.3665 37.4293C35.3665 35.4736 35.3665 33.6183 35.3665 31.7128C34.6211 31.5624 33.9752 31.4119 33.2795 31.2615C31.6398 30.9105 30 30.5595 28.4099 30.2586C27.9627 30.1583 27.6646 30.2085 27.7143 30.8102C27.7143 31.1612 27.6646 31.5624 27.6646 31.9134C27.6149 33.167 27.5155 34.4206 27.4658 35.7244C30.0994 36.276 32.7329 36.8777 35.3665 37.4293ZM44.2609 30.409C44.1615 30.3589 44.1615 30.3589 44.1615 30.3589C41.7764 30.76 39.3416 31.1612 36.9565 31.6125C36.8571 31.6125 36.7081 31.8131 36.7081 31.9134C36.7081 33.7186 36.7081 35.5238 36.7081 37.4293C39.441 36.8777 41.9752 36.3763 44.6087 35.8247C44.4596 33.9693 44.3603 32.1641 44.2609 30.409ZM22.4969 29.1053C20.0621 28.7041 17.7267 28.2528 15.3416 27.8517C15.3416 29.707 15.3416 31.4621 15.3416 33.2673C16.5342 33.518 17.677 33.7687 18.8199 33.9693C19.9627 34.22 21.0559 34.4206 22.1988 34.6713C22.2484 32.816 22.3478 31.0108 22.4969 29.1053ZM62.4969 33.6684C61.2547 30.7099 58.6708 28.4534 56.7329 28.4534C56.7329 29.8574 56.7329 31.2615 56.7329 32.6655C56.7329 33.3174 56.9814 34.0696 56.1863 34.4708C56.1367 34.4708 56.1367 34.571 56.1367 34.6212C56.1367 35.7244 56.1367 36.8276 56.1367 37.7803C57.2298 37.9307 58.2733 38.0812 59.3665 38.2817C59.5155 36.2258 60.4596 34.571 62.4969 33.6684ZM49.8261 34.5209C51.7143 34.1197 53.5528 33.7186 55.441 33.2673C55.3913 31.5122 55.2919 29.8574 55.2422 28.1024C53.2547 28.5537 51.3168 28.9548 49.3789 29.4061C49.528 31.1111 49.677 32.7658 49.8261 34.5209ZM21.7516 12.006C24.3851 15.4659 27.9627 17.3714 31.7391 19.1265C31.2919 18.4245 30.795 17.7224 30.2484 17.0706C29.0559 15.6164 27.8634 14.1622 26.5714 12.8083C25.9752 12.2065 25.0807 11.7552 24.236 11.4544C23.441 11.2036 22.4969 11.1033 21.7516 12.006ZM35.118 26.3975C35.6646 26.1969 36.2609 26.0465 36.7578 25.6954C37.6025 25.1438 37.9503 24.2914 37.9006 23.3386C37.8509 22.436 37.354 21.734 36.5093 21.383C35.2174 20.8314 33.9752 21.032 32.8323 21.8844C32.2857 22.2856 32.0373 22.8372 32.0373 23.5392C32.087 25.0436 33.4286 26.2972 35.118 26.3975ZM42.0745 29.356C42.0745 29.3059 42.1242 29.2557 42.1242 29.2557C40.6335 28.7543 39.1429 28.303 37.6522 27.6511C36.6087 27.1998 35.5652 27.4505 34.6211 27.7012C33.2298 28.0522 31.8882 28.7543 30.4472 29.356C31.8882 29.6569 33.2795 29.9577 34.6211 30.2586C35.118 30.3589 35.6149 30.5595 36.0621 30.4592C38.0994 30.1082 40.087 29.707 42.0745 29.356ZM50.7702 13.5604C50.6211 13.0088 50.323 12.8584 49.8758 12.9587C49.5776 13.0088 49.2795 13.1091 48.9814 13.2094C45.4534 14.6135 42.5714 17.0204 39.8385 19.6279C39.8385 19.6279 39.8385 19.6781 39.8882 19.7784C43.764 18.1737 47.3913 16.1178 50.7702 13.5604ZM21.4534 27.6009C21.205 27.3001 20.9068 26.9491 20.6087 26.598C20.5093 26.4978 20.3602 26.4476 20.2609 26.4476C19.5652 26.598 18.8696 26.7485 18.1739 26.9491C18.1739 26.9992 18.1739 26.9992 18.1739 27.0493C19.3168 27.1998 20.4596 27.4505 21.4534 27.6009ZM52.9565 27.3001C52.9565 27.2499 52.9565 27.1998 52.9565 27.1998C52.3603 27.0995 51.8137 26.9491 51.2174 26.8488C51.0683 26.8488 50.9193 26.8488 50.7702 26.9491C50.2236 27.3502 49.6273 27.7514 49.1304 28.1525C50.3727 27.8517 51.6646 27.6009 52.9565 27.3001Z" fill="white"/>
</svg>
