<svg width="80" height="72" viewBox="0 0 80 72" fill="none" xmlns="http://www.w3.org/2000/svg">
<rect x="1.5" y="1.5" width="77" height="69" rx="6.5" fill="#81D8D0" stroke="#81D8D0" stroke-width="3"/>
<g clip-path="url(#clip0_70_1108)">
<path d="M6 50.1562C6.52446 47.5292 8.86815 46.8765 10.9004 45.8159C9.50734 45.1632 8.3273 44.3963 7.44227 43.2378C7.13087 42.8299 6.9342 42.422 7.14726 41.9161C7.78645 40.366 7.83562 38.7017 7.95034 37.07C8.06507 35.4872 8.03229 33.8882 8.36008 32.3544C9.60568 26.6434 15.932 23.9185 20.7341 27.0024C23.1433 28.5525 24.4053 30.8532 24.684 33.6597C24.8806 35.6504 24.9298 37.6411 25.1101 39.6318C25.1756 40.3497 25.4051 41.0676 25.6345 41.7693C25.8312 42.3567 25.7329 42.8136 25.3723 43.2868C24.4873 44.4126 23.3564 45.1795 22.0125 45.7996C22.4878 46.2238 22.8483 46.2728 23.4547 46.0117C25.2248 45.2448 27.0604 44.6248 28.8797 43.9558C29.5024 43.7273 30.1744 43.6294 30.3711 42.8136C30.4203 42.6178 30.6825 42.4546 30.8464 42.2751C31.207 41.8998 31.5675 41.5245 31.9281 41.1329C32.3706 40.6434 32.3706 37.6737 31.8953 37.2331C29.3386 34.8509 28.0602 31.8812 28.0438 28.422C28.0274 27.0187 27.7324 25.7133 27.4046 24.359C26.6999 21.3241 26.5196 18.2238 27.9455 15.3194C29.5352 12.0886 32.2231 10.2285 35.8124 10.0979C40.8439 9.93478 45.8919 10.0327 50.9234 10.049C51.6446 10.049 52.0379 10.4243 52.0379 11.1422C52.0379 14.7972 52.0543 18.4359 51.9888 22.091C51.9724 23.0047 51.8249 23.9837 51.4807 24.8322C50.989 26.0234 50.989 27.2308 50.989 28.4709C50.989 30.429 50.6776 32.3544 49.6614 34.035C48.9731 35.1772 48.0881 36.2052 47.2194 37.2168C46.9408 37.5432 46.7441 37.8042 46.7933 38.2285C46.7933 38.2774 46.7933 38.3101 46.7933 38.359C46.5147 40.0723 46.9572 41.5082 48.4159 42.5525C48.4814 42.6014 48.5798 42.6667 48.5961 42.7483C48.8092 43.6947 49.6615 43.76 50.3662 44.0373C51.5462 44.4779 52.7263 44.9348 53.9227 45.3101C54.3488 45.4406 54.8405 45.3917 55.2994 45.359C55.5944 45.3427 55.8894 45.1959 56.1844 45.1143C57.4628 44.7553 57.4792 44.7553 57.3973 43.4336C57.3809 43.2215 57.2661 42.9604 57.1186 42.8462C55.1519 41.1982 54.2013 39.0933 54.2833 36.5641C54.3161 35.7157 54.0866 34.9651 53.726 34.1982C52.0707 30.6084 54.7422 26.0397 58.7084 25.8439C62.0355 25.6807 65.3789 25.746 68.706 25.7297C69.3943 25.7297 69.8368 26.056 69.8368 26.6597C69.8532 28.6504 69.8368 30.6574 69.7549 32.6481C69.7385 33.2192 69.5254 33.8066 69.2632 34.3124C68.8863 35.0303 68.7879 35.7646 68.8043 36.5641C68.8863 39.1259 68.0176 41.2798 65.9525 42.8952C65.3953 43.3357 65.7067 43.9558 65.7231 44.4779C65.7231 44.6574 66.1492 44.9021 66.4278 44.9837C67.5915 45.3427 68.7715 45.6527 69.9352 46.0117C71.8855 46.6154 73 48.1003 73 50.1236C73.0164 52.7017 73.0164 55.2961 73 57.8742C73 58.5921 72.6067 59.0327 72.0166 59.0327C71.443 59.0327 71.066 58.5921 71.0333 57.8742C71.0333 57.7273 71.0333 57.5642 71.0333 57.4173C71.0333 55.1166 71.0333 52.8159 71.0333 50.5152C71.0333 48.8672 70.5416 48.1982 68.9518 47.7413C67.7554 47.3987 66.5754 47.0397 65.3625 46.746C65.1659 46.697 64.9036 46.8276 64.6906 46.8928C64.6414 46.9091 64.5922 46.9744 64.5431 47.0234C63.8711 47.7087 62.9533 48.2798 62.6091 49.0956C62.2649 49.8952 62.5108 50.9394 62.5108 51.8695C62.5108 53.7786 62.5108 55.6877 62.5108 57.5968C62.5108 57.8252 62.4944 58.07 62.4452 58.2984C62.3141 58.7879 61.9535 59.0327 61.4782 59C60.9702 58.9674 60.626 58.6574 60.5768 58.1352C60.544 57.711 60.5604 57.2704 60.5604 56.8299C60.5604 54.5129 60.544 52.1795 60.5768 49.8625C60.5768 49.3077 60.4785 48.8672 60.0196 48.5082C59.5934 48.1492 59.2165 47.725 58.8068 47.3171C58.0201 46.5338 58.0201 46.5338 56.9548 46.9744C57.1678 47.2681 57.3809 47.5455 57.5776 47.8555C58.102 48.704 58.3479 49.6504 58.3479 50.6457C58.3642 53.028 58.3806 55.4266 58.3315 57.8089C58.3315 58.1842 58.0692 58.6248 57.7742 58.8695C57.5939 59.0164 57.0203 58.9837 56.84 58.8042C56.5778 58.5595 56.4139 58.1026 56.3975 57.7273C56.3647 55.4429 56.3811 53.1749 56.3811 50.8905C56.3811 49.063 55.66 48.035 53.9227 47.3986C51.9396 46.6807 49.9565 45.9628 47.8914 45.2122C47.4161 45.9138 46.9408 46.6317 46.4491 47.3497C46.0558 47.9208 45.6788 48.5082 45.2855 49.0793C44.4332 50.2704 43.0893 50.401 42.024 49.4056C41.5487 48.9488 41.1226 48.4756 40.5325 47.8555C40.5161 48.2798 40.4834 48.5082 40.4834 48.7366C40.4834 51.6737 40.4834 54.5945 40.4834 57.5315C40.4834 58.5595 40.1392 59.0653 39.4672 59.0327C38.8116 59 38.533 58.5432 38.533 57.5152C38.533 54.6108 38.533 51.69 38.533 48.7856C38.533 48.5572 38.533 48.3124 38.533 47.8718C37.9758 48.4266 37.566 48.8345 37.1399 49.2588C35.8943 50.4826 34.5668 50.352 33.5834 48.8998C32.7639 47.6924 31.9609 46.4849 31.125 45.2285C29.3713 45.8648 27.6341 46.4849 25.9132 47.1049C23.0614 48.1492 22.6353 48.753 22.6353 51.7879C22.6353 53.697 22.6353 55.6061 22.6353 57.5152C22.6353 57.7273 22.6353 57.9558 22.6189 58.1679C22.5533 58.69 22.2092 58.9837 21.7011 59.0164C21.2258 59.0327 20.8652 58.7716 20.7505 58.2821C20.7013 58.0537 20.6849 57.8089 20.6849 57.5805C20.6849 55.5408 20.6849 53.5012 20.6849 51.4616C20.6849 49.683 20.7505 49.3893 21.4061 47.8718C20.5046 47.1702 20.5046 47.1702 19.718 47.9371C17.9643 49.6014 16.1123 49.9604 14.3422 48.8998C13.7522 48.5408 13.2769 48.0024 12.7197 47.5945C12.5558 47.4802 12.2444 47.415 12.0641 47.4966C11.1299 47.9208 10.2285 48.394 9.31067 48.8509C8.37647 49.3077 7.93395 50.0583 7.95034 51.1026C7.96673 53.3544 7.96673 55.6224 7.95034 57.8742C7.95034 58.6737 7.42588 59.1959 6.80308 59C6.50807 58.9021 6.26223 58.6084 6 58.4126C6 55.6224 6 52.8975 6 50.1562ZM50.0056 12.0397C49.9565 12.0234 49.8909 11.9907 49.8417 11.9907C45.2035 11.9907 40.5489 11.9255 35.9107 12.0234C32.6656 12.1049 29.863 14.4872 29.191 17.6364C28.7158 19.8882 28.683 22.2052 29.4697 24.3917C29.8958 25.5991 29.9941 26.7739 29.9941 28.014C29.9777 29.6621 30.2728 31.2448 30.9775 32.746C32.7148 36.4499 36.386 38.5222 40.6145 38.1632C44.3349 37.8532 47.7767 34.9488 48.6617 31.1795C49.0059 29.6784 48.9075 28.0793 49.0387 26.5292C49.0714 26.0886 49.1698 25.6317 49.2845 25.2075C49.5303 24.1632 49.9729 23.1189 50.0056 22.0583C50.104 18.7623 50.0548 15.4662 50.0712 12.1702C50.0712 12.1213 50.0384 12.0886 50.0056 12.0397ZM67.9029 27.704C67.7062 27.6877 67.5751 27.6551 67.4604 27.6551C64.8381 27.6551 62.2322 27.6387 59.6098 27.6551C59.2001 27.6551 58.774 27.704 58.3806 27.8019C55.7583 28.4383 54.3488 31.4569 55.6928 33.7576C56.0861 34.4266 56.2336 35.1446 56.25 35.9278C56.2664 36.8579 56.2828 37.8206 56.5614 38.6854C57.2989 40.8718 58.8723 42.1446 61.216 42.3893C63.0844 42.5851 65.1659 41.4429 66.1656 39.697C66.8376 38.5059 66.8704 37.2168 66.8704 35.9115C66.8704 35.4383 66.8048 34.8835 67.0343 34.5082C68.329 32.3707 67.7554 30.021 67.9029 27.704ZM10.0154 36.1236C10.8841 36.2052 11.1463 36.7436 11.1463 37.5105C11.1463 37.6248 11.1791 37.7227 11.1955 37.8369C11.4413 40.1376 13.49 42.2098 16.0631 42.3893C18.3249 42.5525 20.603 41.1329 21.4225 38.9301C21.6683 38.2448 21.6355 37.6737 21.1766 37.0537C19.9146 35.3404 18.1446 34.5408 16.1287 34.1003C15.1617 33.8882 14.3914 34.0187 13.8178 34.8835C13.6866 35.0793 13.49 35.2425 13.3261 35.4056C12.8672 35.8299 12.3099 35.8625 11.9166 35.5199C11.5068 35.1446 11.4905 34.5408 11.9166 34.0676C12.441 33.4965 12.9819 32.9091 13.5555 32.387C13.7686 32.1912 14.1292 32.028 14.4242 32.028C16.4237 32.0443 18.3412 32.4359 20.0294 33.5129C21.0455 34.1655 21.9469 35.014 22.8319 35.7157C23.045 33.6271 22.3894 31.4243 20.9963 29.76C18.9804 27.3614 15.047 27.035 12.6377 29.0257C10.376 30.8695 9.94985 33.3823 10.0154 36.1236ZM34.1898 38.8812C34.1898 39.4359 34.157 39.8602 34.2062 40.2844C34.239 40.5129 34.3701 40.7903 34.5504 40.9045C36.0746 41.9814 37.6316 43.0257 39.1886 44.0537C39.3525 44.1516 39.6967 44.1516 39.8442 44.0537C41.4012 43.0257 42.9582 41.9651 44.4824 40.9045C44.6627 40.7739 44.7938 40.4966 44.8266 40.2844C44.8757 39.8602 44.843 39.4359 44.843 38.9138C41.2701 40.5945 37.7955 40.6271 34.1898 38.8812ZM43.5974 48.0676C44.4004 46.8765 45.1871 45.7017 45.9574 44.5432C46.6786 43.4662 46.6786 43.4662 45.7444 42.5851C45.7116 42.5525 45.6624 42.5688 45.5805 42.5362C44.089 43.5478 42.5812 44.5758 41.1226 45.5711C41.9584 46.4196 42.7615 47.2192 43.5974 48.0676ZM37.9266 45.5875C36.4352 44.5595 34.911 43.5315 33.2884 42.4383C33.1245 42.6504 33.0098 42.8788 32.8295 43.0094C32.3706 43.352 32.4362 43.6621 32.7476 44.0863C33.4031 44.9837 33.9932 45.9138 34.5996 46.8276C34.8782 47.2518 35.1732 47.6597 35.4518 48.0676C36.2877 47.2192 37.0908 46.4196 37.9266 45.5875ZM14.2931 44.2495C14.1947 45.3264 13.8997 46.5175 15.3092 47.1865C16.1287 47.5781 16.8662 47.5455 17.6693 47.1213C19.0624 46.4033 18.6526 45.2448 18.5379 44.2331C17.1284 44.2495 15.7189 44.2495 14.2931 44.2495ZM61.4946 47.3007C62.1338 46.6481 62.6419 46.077 63.2155 45.5875C63.7072 45.1632 63.8547 44.7063 63.6416 44.1352C62.9369 44.2168 62.2649 44.3637 61.5766 44.3637C60.8718 44.3637 60.1671 44.2168 59.3476 44.1026C59.3804 44.4616 59.2984 44.9185 59.4951 45.1632C60.0687 45.8975 60.7735 46.5502 61.4946 47.3007ZM12.2444 44.2005C12.3591 43.5315 12.3263 43.0257 11.7035 42.5851C11.2446 42.2751 10.9004 41.8019 10.5563 41.3614C10.2449 40.9697 9.99902 40.5129 9.7204 40.056C9.55651 40.725 9.37622 41.3287 9.2615 41.9488C9.22872 42.1283 9.29428 42.373 9.409 42.5035C10.1957 43.3194 11.1463 43.8415 12.2444 44.2005ZM20.603 44.2168C21.7175 43.8415 22.6681 43.3194 23.4547 42.5035C23.5531 42.4056 23.6678 42.2425 23.6514 42.1283C23.5039 41.4593 23.3072 40.7903 23.1597 40.2355C22.5042 41.0187 21.9141 41.8835 21.1602 42.5688C20.6358 43.042 20.4391 43.4826 20.603 44.2168Z" fill="white"/>
<path d="M68.8044 54.888C68.8044 55.8671 68.8207 56.8298 68.8044 57.8088C68.788 58.5431 68.3946 59.0162 67.8046 58.9999C67.231 58.9836 66.854 58.5431 66.854 57.8251C66.854 55.8834 66.854 53.9253 66.854 51.9836C66.854 51.233 67.2474 50.7925 67.8538 50.8088C68.4438 50.8251 68.8043 51.2493 68.8207 51.9673C68.8207 52.93 68.8044 53.909 68.8044 54.888Z" fill="white"/>
<path d="M12.1625 55.5897C12.1625 56.324 12.1625 57.0583 12.1625 57.7925C12.1625 58.5431 11.7691 59 11.1791 59C10.6055 59 10.2121 58.5431 10.2121 57.8415C10.1957 56.3077 10.1957 54.7576 10.2121 53.2238C10.2121 52.5221 10.6219 52.0979 11.2119 52.0979C11.8019 52.0979 12.1625 52.5221 12.1789 53.2401C12.1625 54.0233 12.1625 54.8065 12.1625 55.5897Z" fill="white"/>
<path d="M50.0876 55.9323C50.0876 55.2796 50.0712 54.6269 50.0876 53.9743C50.104 53.3053 50.481 52.8973 51.0546 52.8973C51.6118 52.8973 52.0216 53.3053 52.0379 53.9743C52.0543 55.2959 52.0543 56.6176 52.0379 57.9393C52.0216 58.592 51.579 59.0162 51.0218 58.9999C50.4646 58.9836 50.104 58.5593 50.0876 57.8903C50.0712 57.2213 50.0876 56.5687 50.0876 55.9323Z" fill="white"/>
<path d="M28.9289 55.965C28.9289 56.634 28.9453 57.303 28.9289 57.9883C28.9125 58.5757 28.6011 58.9183 28.0275 58.9999C27.5194 59.0652 27.0277 58.641 26.9949 58.0372C26.9621 56.6503 26.9621 55.2633 26.9949 53.8764C27.0113 53.2563 27.4538 52.881 27.9947 52.8974C28.5355 52.9137 28.8961 53.3053 28.9289 53.9416C28.9453 54.6106 28.9289 55.2796 28.9289 55.965Z" fill="white"/>
<path d="M33.1409 21.2424C33.1409 21.9767 33.1573 22.6457 33.1409 23.3147C33.1245 24.0979 32.764 24.5058 32.1412 24.5058C31.5512 24.4895 31.1906 24.0979 31.1742 23.3473C31.1578 22.613 31.1414 21.8788 31.207 21.1445C31.2725 20.1981 31.9445 19.4475 32.8787 19.317C36.2221 18.8275 39.5656 18.697 42.8763 19.4475C44.5808 19.8228 46.1541 20.5081 47.4325 21.7319C47.8914 22.1725 47.9406 22.6946 47.6128 23.1189C47.2686 23.5431 46.6786 23.6247 46.2197 23.2168C44.3677 21.5688 42.106 21.1608 39.7623 20.965C37.5661 20.7692 35.4027 20.9324 33.1409 21.2424Z" fill="white"/>
<path d="M65.6411 32.6969C65.6575 33.5617 65.0675 34.0838 64.4447 33.8554C62.4616 33.1211 60.3801 32.9906 58.2987 32.8601C57.7414 32.8274 57.43 32.4848 57.4136 31.93C57.3972 31.3915 57.7578 30.9673 58.3478 30.9673C60.5932 30.9836 62.8221 31.1305 64.92 32.0442C65.2642 32.1747 65.4936 32.55 65.6411 32.6969Z" fill="white"/>
</g>
<defs>
<clipPath id="clip0_70_1108">
<rect width="67" height="49" fill="white" transform="translate(6 10)"/>
</clipPath>
</defs>
</svg>
