<svg width="79" height="72" viewBox="0 0 79 72" fill="none" xmlns="http://www.w3.org/2000/svg">
<rect x="1.5" y="1.5" width="76" height="69" rx="5.5" fill="#81D8D0" stroke="#81D8D0" stroke-width="3"/>
<path d="M71.6104 56.1219C71.3534 56.6359 70.9679 56.7644 70.3896 56.7644C66.406 56.7644 62.358 56.7644 58.3743 56.7644C58.1173 56.7644 57.8603 56.7644 57.6033 56.7644C57.6033 57.664 57.6033 58.4992 57.6033 59.2703C57.6033 60.1698 57.6033 61.0694 57.6033 62.0332C57.6033 62.4829 57.4748 62.8684 57.0893 62.9327C56.768 62.997 56.3182 62.8684 56.0612 62.6757C55.0974 61.9047 54.1336 61.1336 53.1698 60.2983C52.206 61.0694 51.3065 61.8404 50.4069 62.6114C50.0857 62.8684 49.7002 63.1255 49.2504 62.9327C48.8006 62.6757 48.7364 62.2902 48.7364 61.8404C48.7364 60.3626 48.7364 58.949 48.7364 57.4712C48.7364 57.2784 48.7364 57.0214 48.7364 56.7002C48.4151 56.7002 48.1581 56.7002 47.9011 56.7002C35.0505 56.7002 22.2642 56.7002 9.41357 56.7002C8.19277 56.7002 8 56.5074 8 55.2866C8 42.3075 8 29.3927 8 16.4136C8 15.257 8.25704 15 9.34934 15C29.6533 15 49.9572 15 70.3254 15C70.9036 15 71.4177 15.0643 71.6747 15.6425C71.6104 29.1356 71.6104 42.6288 71.6104 56.1219ZM13.7185 47.9618C15.9674 48.283 16.5457 49.4396 16.7384 50.9174C27.4044 50.9174 38.0061 50.9174 48.7364 50.9174C48.7364 49.7608 48.7364 48.6685 48.7364 47.512C48.7364 46.998 48.6079 46.6124 48.2224 46.2269C46.2305 44.1708 45.9092 40.9582 47.3228 38.4523C48.7364 35.9465 51.6277 34.5329 54.4549 35.1112C57.025 35.6252 58.8241 37.1673 59.5951 39.7374C60.3661 42.2432 59.7879 44.4921 58.0531 46.4197C57.9246 46.5482 57.7318 46.8052 57.7318 46.9337C57.7318 48.283 57.7318 49.5681 57.7318 50.9174C59.5309 50.9174 61.2657 50.9174 63.0005 50.9174C63.1933 49.0541 64.2213 48.1545 65.9562 47.9618C65.9562 39.8659 65.9562 31.8343 65.9562 23.7384C64.1571 23.5456 63.129 22.5818 62.9363 20.7828C47.5156 20.7828 32.0949 20.7828 16.7384 20.7828C16.6742 21.6181 16.4814 22.3891 15.8389 22.8389C15.2606 23.2886 14.5538 23.5456 13.7828 23.9312C13.7185 31.8343 13.7185 39.9301 13.7185 47.9618ZM69.8113 54.9653C69.8113 42.2432 69.8113 29.5212 69.8113 16.8633C49.7644 16.8633 29.7175 16.8633 9.6706 16.8633C9.6706 29.5854 9.6706 42.3075 9.6706 54.9653C22.6497 54.9653 35.6288 54.9653 48.6079 54.9653C48.6079 54.1943 48.6079 53.4875 48.6079 52.7807C48.2866 52.7807 48.0296 52.7807 47.7726 52.7807C37.2351 52.7807 26.6976 52.7807 16.1601 52.7807C15.0678 52.7807 14.8751 52.5237 14.8751 51.4957C14.8751 50.1464 14.5538 49.8251 13.2045 49.8251C12.1122 49.8251 11.8552 49.5681 11.8552 48.54C11.8552 40.1872 11.8552 31.77 11.8552 23.4171C11.8552 22.3248 12.1122 22.0678 13.2045 22.0678C14.4896 22.0678 14.8108 21.7466 14.8108 20.4615C14.8108 19.3049 15.0036 19.1122 16.2244 19.1122C31.9021 19.1122 47.5156 19.1122 63.1933 19.1122C64.4141 19.1122 64.6069 19.3049 64.6069 20.5258C64.6069 21.7466 64.9281 22.0678 66.2132 22.1321C67.3697 22.1321 67.6267 22.3248 67.6267 23.4814C67.6267 31.6415 67.6267 39.8659 67.6267 48.026C67.6267 49.7608 67.6268 49.7608 65.8919 49.8894C65.0566 49.9536 64.6711 50.3391 64.6711 51.1744C64.6711 51.3029 64.6711 51.4957 64.6711 51.6242C64.6711 52.588 64.4141 52.845 63.4503 52.845C61.7155 52.845 59.9806 52.845 58.3101 52.845C58.1173 52.845 57.8603 52.845 57.6675 52.845C57.6675 53.616 57.6675 54.3228 57.6675 55.0296C61.7155 54.9653 65.7634 54.9653 69.8113 54.9653ZM58.1173 41.7292C58.1173 38.9663 55.8685 36.7817 53.1056 36.7817C50.3427 36.7817 48.0938 39.0306 48.1581 41.7935C48.1581 44.5564 50.4069 46.741 53.1698 46.741C55.8684 46.741 58.1173 44.4921 58.1173 41.7292ZM50.4712 60.2341C51.178 59.6558 51.7563 59.206 52.3345 58.692C53.0413 58.1137 53.2984 58.1137 54.0051 58.692C54.5834 59.1418 55.1617 59.6558 55.8042 60.1698C55.8042 55.9934 55.8042 52.0097 55.8042 47.8975C54.0051 48.6043 52.2703 48.6043 50.4712 47.8975C50.4712 52.0739 50.4712 56.1219 50.4712 60.2341Z" fill="white"/>
<path d="M39.741 26.7583C32.9302 26.7583 26.1194 26.7583 19.3728 26.7583C19.1801 26.7583 18.9873 26.7583 18.7945 26.7583C18.2805 26.7583 17.895 26.437 17.895 25.923C17.895 25.409 18.2163 25.0877 18.7303 25.0234C18.9231 25.0234 19.1158 25.0234 19.3086 25.0234C32.9302 25.0234 46.5518 25.0234 60.2377 25.0234C60.4947 25.0234 60.7517 25.0234 61.0087 25.0877C61.4585 25.2162 61.6513 25.5375 61.6513 25.9872C61.587 26.437 61.33 26.694 60.8802 26.7583C60.6232 26.7583 60.4305 26.7583 60.1735 26.7583C53.3626 26.7583 46.5518 26.7583 39.741 26.7583Z" fill="white"/>
<path d="M39.8053 29.0714C46.6161 29.0714 53.4912 29.0714 60.302 29.0714C61.2015 29.0714 61.6513 29.3284 61.6513 29.9067C61.6513 30.485 61.2015 30.8062 60.302 30.8062C46.6161 30.8062 32.9302 30.8062 19.2443 30.8062C19.1158 30.8062 19.0516 30.8062 18.9231 30.8062C18.2805 30.8062 17.895 30.4207 17.895 29.9067C17.895 29.3927 18.2805 29.0714 18.9231 29.0714C22.0714 29.0714 25.1556 29.0714 28.304 29.0714C32.1592 29.0714 35.9501 29.0714 39.8053 29.0714Z" fill="white"/>
<path d="M23.3565 43.9138C24.1918 42.8857 24.9628 41.7934 25.8623 40.7654C26.0551 40.5084 26.3764 40.3156 26.6334 40.2514C27.2116 40.1229 27.5972 40.5726 27.5972 41.2794C27.5972 42.2432 27.5972 43.2713 27.5972 44.2993C28.1754 43.978 28.818 43.5925 29.4605 43.2713C29.846 43.0785 30.2958 42.95 30.7456 42.95C31.6451 42.8857 32.6089 42.95 33.5727 42.95C34.2152 42.95 34.6007 43.3355 34.6007 43.8495C34.6007 44.3636 34.2152 44.7491 33.5084 44.6848C31.3881 44.4278 29.4605 45.0061 27.7899 46.2269C27.5971 46.3554 27.3402 46.4839 27.0831 46.6124C26.3121 46.9979 25.6696 46.6124 25.6696 45.7771C25.6696 45.1989 25.7338 44.6206 25.7338 43.8495C25.4768 44.1066 25.3483 44.2351 25.2198 44.3636C24.3845 45.3916 23.6135 46.4197 22.8425 47.4477C22.5212 47.8332 22.1999 48.0902 21.6859 47.8975C21.1719 47.7047 21.1076 47.2549 21.1719 46.7409C21.2361 46.1626 21.3004 45.5844 21.4289 44.8776C20.7221 45.4559 20.0796 46.0341 19.5013 46.5482C18.923 46.9979 18.152 46.8052 18.0235 46.1626C17.9592 45.8414 18.2162 45.4559 18.409 45.1988C19.1158 44.4921 19.8868 43.9138 20.5936 43.1428C21.0434 42.6287 21.4289 42.0505 21.8144 41.5364C22.0714 41.0867 22.4569 40.8939 22.9067 41.0867C23.3565 41.2152 23.5492 41.6007 23.485 42.0505C23.4207 42.693 23.3565 43.2713 23.2922 43.9138C23.2922 43.9138 23.2922 43.9138 23.3565 43.9138Z" fill="white"/>
<path d="M27.0188 34.8542C24.3844 34.8542 21.6858 34.8542 19.0514 34.8542C18.7301 34.8542 18.3446 34.7899 18.1519 34.5972C17.6378 34.1474 17.8949 33.4406 18.5374 33.2478C18.7302 33.1836 18.9872 33.1836 19.2442 33.1836C24.4487 33.1836 29.7174 33.1836 34.9219 33.1836C35.0504 33.1836 35.1789 33.1836 35.3074 33.1836C35.8857 33.2478 36.2712 33.5691 36.207 34.0831C36.207 34.5972 35.8214 34.9184 35.2432 34.9184C33.5083 34.9184 31.7735 34.9184 30.0387 34.9184C29.0106 34.8542 27.9826 34.8542 27.0188 34.8542Z" fill="white"/>
</svg>
