<svg width="79" height="72" viewBox="0 0 79 72" fill="none" xmlns="http://www.w3.org/2000/svg">
<rect x="1.5" y="1.5" width="76" height="69" rx="5.5" fill="#81D8D0" stroke="#81D8D0" stroke-width="3"/>
<path d="M14.8055 33.9938C15.1097 32.9797 15.3126 31.9656 15.6675 31.0529C15.921 30.4445 16.0224 29.9374 15.921 29.2783C15.1097 24.0558 18.5576 19.4417 23.7802 18.6811C23.9323 18.6811 24.1351 18.529 24.2365 18.3769C27.1773 13.9656 32.3999 12.7487 36.9633 15.436C37.1154 15.5374 37.3689 15.5374 37.521 15.436C41.628 12.4952 47.3069 13.3572 50.2985 17.3628C50.3999 17.5149 50.6534 17.6163 50.8055 17.5656C55.6224 17.16 60.1351 20.9121 60.5407 25.729C60.5914 26.3881 60.5914 27.0473 60.5407 27.7065C60.5407 28.0107 60.5914 28.2135 60.8957 28.3656C63.8365 30.191 65.4083 32.8783 65.4083 36.3769C65.4083 40.5346 62.3661 44.1853 58.259 45.1487C58.0562 45.1994 57.8534 45.3515 57.752 45.5036C56.383 48.7994 53.9999 50.8276 50.4506 51.4867C50.3492 51.4867 50.2478 51.5374 50.045 51.5882C50.045 52.7036 50.045 53.7684 50.045 54.8839C50.045 56.9628 48.6759 58.5853 46.5971 58.9403C44.9238 59.2445 43.2506 58.3825 42.3886 56.8107C41.4252 55.036 40.5126 53.2107 39.5492 51.436C39.4478 51.2839 39.3971 51.1318 39.2957 50.9797C33.5661 53.6163 27.2787 50.1684 26.0111 44.2867C25.859 44.2867 25.6562 44.2867 25.5041 44.3374C20.3323 45.1487 15.5154 41.498 14.8055 36.3262C14.8055 36.2248 14.7548 36.1234 14.7041 36.0219C14.8055 35.2107 14.8055 34.6022 14.8055 33.9938ZM48.2196 17.9712C45.7858 15.0811 41.121 14.7769 38.1295 17.4135C37.4703 17.9712 37.1154 17.9712 36.4562 17.4642C32.8562 14.7262 27.8365 15.8417 25.7069 19.7966C25.4534 20.3036 25.0985 20.5572 24.49 20.5572C19.9266 20.9121 16.783 25.222 17.9999 29.5825C18.152 30.191 18.0506 30.6473 17.7971 31.205C16.3267 33.9431 16.3773 36.6304 18.152 39.1656C19.9266 41.7008 22.4619 42.6642 25.5548 42.2079C25.859 42.1572 25.9604 42.0558 25.9604 41.7515C26.0619 41.0417 26.1633 40.2811 26.3661 39.5712C26.8224 38.0501 27.6337 36.7318 28.7999 35.6163C29.1548 35.2614 29.5604 35.16 30.0168 35.4135C30.4224 35.6163 30.6252 36.0727 30.4731 36.529C30.3717 36.7825 30.2196 37.036 30.0168 37.1881C28.8506 38.405 28.09 39.8755 27.9379 41.5487C27.6844 44.4896 28.7492 46.9234 31.2337 48.5459C33.7182 50.1684 36.3548 50.1684 38.9407 48.7994C39.8534 48.3431 40.259 48.4445 40.7154 49.3065C41.8309 51.436 42.9464 53.5656 44.0619 55.6952C44.5689 56.6586 45.4816 57.1149 46.445 56.8614C47.459 56.6079 48.0168 55.7966 48.0168 54.6811C48.0168 53.3628 48.0168 52.0445 48.0168 50.7262C48.0168 49.9656 48.321 49.6614 49.0816 49.56C50.0449 49.4079 51.059 49.2558 51.921 48.8501C53.5943 48.1403 54.7605 46.9234 55.5717 45.2501C55.3689 45.1994 55.2168 45.1994 55.0647 45.1487C53.5436 44.9459 52.1745 44.4389 50.9069 43.5262C49.7914 42.7149 48.8788 41.7515 48.2196 40.5346C47.9154 39.9769 48.0675 39.4191 48.5238 39.1149C49.0309 38.8614 49.5379 39.0135 49.8928 39.5205C49.9436 39.622 50.0449 39.7234 50.0956 39.8755C51.921 42.8163 55.5717 44.0332 58.7661 42.7656C61.9604 41.498 63.8365 38.1515 63.1774 34.805C62.721 32.422 61.3013 30.698 59.121 29.6332C58.4112 29.2783 58.259 28.9741 58.3605 28.1628C58.4619 27.3515 58.5632 26.5403 58.4618 25.7797C58.0562 21.6727 53.9999 18.7318 49.9943 19.5938C48.7774 19.8473 47.7125 20.3543 46.7999 21.1656C46.2928 21.5712 45.8365 21.622 45.4309 21.3177C44.9238 20.9121 44.8731 20.1515 45.4309 19.7459C46.3943 19.0867 47.3069 18.529 48.2196 17.9712Z" fill="white"/>
<path d="M38.6366 35.5656C38.6366 35.2107 38.5858 34.8558 38.6366 34.5009C38.7887 33.1825 39.4985 32.3713 40.7661 31.9656C41.8309 31.6107 42.3887 30.7487 42.2873 29.6332C42.2366 28.6699 41.476 27.9093 40.4619 27.7065C39.1943 27.5037 38.0281 28.4671 37.9267 29.7854C37.876 30.5966 37.4197 31.2051 36.7098 31.3065C35.7464 31.4586 34.9858 30.7994 34.9858 29.7854C34.9858 27.1994 37.014 25.0192 39.752 24.7149C42.1859 24.4614 44.6704 26.2868 45.1774 28.7206C45.7352 31.2558 44.4168 33.6896 41.983 34.653C41.7295 34.7544 41.6281 34.9065 41.6281 35.16C41.6281 35.6163 41.6281 36.0727 41.6281 36.4783C41.6281 37.3403 40.9689 37.9487 40.1577 37.9487C39.3971 37.9487 38.7379 37.3403 38.6872 36.529C38.6365 36.2248 38.6366 35.8699 38.6366 35.5656Z" fill="white"/>
<path d="M53.1379 31.0022C54.152 31.0022 55.4703 31.4585 56.6365 32.4219C57.2957 32.9797 57.3971 33.5374 56.9914 34.0445C56.5858 34.5008 56.028 34.5008 55.3689 33.943C53.3407 32.3205 50.3999 32.7768 49.0816 34.9571C48.9801 35.1092 48.8787 35.3121 48.828 35.4642C48.5238 36.0219 48.0168 36.2754 47.459 36.0219C46.952 35.7684 46.7492 35.2614 47.0027 34.6529C47.9154 32.4726 50.2478 31.0022 53.1379 31.0022Z" fill="white"/>
<path d="M27.1267 26.6417C28.7492 26.6417 30.1689 27.1995 31.3351 28.315C31.8421 28.7713 31.8929 29.3798 31.4872 29.7854C31.0816 30.2417 30.5238 30.191 30.0168 29.7854C28.2422 28.2136 26.0619 28.2136 24.2365 29.7854C23.6788 30.2417 23.121 30.2924 22.7154 29.8361C22.3097 29.3798 22.4112 28.822 22.9182 28.315C24.1351 27.1995 25.5041 26.6417 27.1267 26.6417Z" fill="white"/>
<path d="M41.5775 41.5487C41.5775 42.3599 40.9183 43.0191 40.1071 43.0698C39.2958 43.0698 38.5859 42.3599 38.5859 41.5994C38.5859 40.7881 39.2451 40.129 40.0563 40.129C40.9183 40.0783 41.5775 40.7374 41.5775 41.5487Z" fill="white"/>
</svg>
