<svg width="79" height="72" viewBox="0 0 79 72" fill="none" xmlns="http://www.w3.org/2000/svg">
<rect x="1.5" y="1.5" width="76" height="69" rx="5.5" fill="#81D8D0" stroke="#81D8D0" stroke-width="3"/>
<path d="M44.894 10.5285C41.5458 11.6683 37.7701 11.6683 33.6382 10.5285C33.4957 11.4546 33.3532 12.3807 33.2108 13.378C33.1395 14.0192 33.0683 14.5891 32.997 15.2303C32.9258 15.7289 32.6409 15.9427 32.1422 15.8714C31.7147 15.8002 31.501 15.444 31.5722 15.0166C31.8572 12.9506 32.1422 10.8847 32.5696 8.81873C32.6408 8.39129 33.1395 7.89261 33.567 7.75013C34.4931 7.39394 35.4904 7.10898 36.4878 6.9665C38.9099 6.6103 41.2608 6.68154 43.6829 7.25146C43.8966 7.3227 44.1104 7.39394 44.3953 7.46518C45.4639 7.75013 46.0339 8.39129 46.2476 9.53112C47.1737 14.1617 47.8148 18.7922 47.6724 23.494C47.6011 27.1273 47.1737 30.6892 45.6777 34.0375C45.179 35.1773 44.5378 36.1747 43.6829 37.1008C42.1869 38.7393 41.1896 40.5915 40.9758 42.7999C40.9758 43.0849 40.8334 43.5123 40.6909 43.6548C40.2635 44.011 40.2634 44.4384 40.2634 44.9371C40.2634 49.069 40.2634 53.2009 40.2634 57.2615C40.2634 58.4726 40.6909 59.4699 41.332 60.3961C41.7595 61.0372 42.4719 61.2509 43.1843 61.3934C43.8967 61.5359 44.6091 61.6784 45.3215 61.8921C46.3901 62.177 47.1737 62.8894 47.8148 63.7443C48.0286 64.0293 48.0285 64.5279 47.9573 64.8841C47.8861 65.3116 47.3874 65.4541 46.96 65.4541C41.9732 65.4541 36.9864 65.4541 31.9997 65.4541C31.5723 65.4541 31.0736 65.3116 31.0023 64.8841C30.9311 64.5279 30.9311 64.0293 31.1448 63.7443C32.0709 62.3908 33.4245 61.7496 34.9918 61.5359C37.4851 61.1797 38.7674 59.6837 38.7674 57.119C38.7674 52.9159 38.7674 48.784 38.7674 44.5809C38.7674 44.296 38.5537 44.011 38.4825 43.726C38.34 43.4411 38.1263 43.1561 38.1263 42.8712C37.9125 40.8052 37.0577 39.0242 35.7041 37.5282C33.6382 35.1773 32.6408 32.399 31.9997 29.4782C31.4298 26.7711 31.2873 24.064 31.2873 21.3569C31.2873 21.1431 31.3585 20.7869 31.501 20.6445C31.6435 20.502 32.0709 20.3595 32.2134 20.502C32.4271 20.6445 32.6408 21.0007 32.7121 21.2144C32.8546 22.7816 32.8545 24.4202 32.997 25.9874C33.282 29.0507 33.9231 31.9715 35.4192 34.7499C37.2714 38.0981 41.7595 38.1694 43.7542 34.8923C45.179 32.5414 45.8201 29.9056 46.1051 27.1273C46.7462 21.6418 46.1051 16.2989 45.1077 10.9559C44.9652 10.7422 44.894 10.6709 44.894 10.5285ZM45.8914 64.0293C45.8914 64.0293 45.8914 63.958 45.9626 63.958C45.6776 63.8156 45.4639 63.5306 45.179 63.4594C44.4666 63.2456 43.7542 63.0319 42.9705 62.8894C41.4745 62.6045 40.2634 61.9633 39.551 60.5385C39.4798 60.4673 39.4798 60.3961 39.4086 60.3248C39.3373 60.3248 39.3373 60.3248 39.3373 60.3248C39.2661 60.3961 39.1949 60.4673 39.1949 60.5385C38.4825 61.8921 37.2714 62.6045 35.8466 62.8182C35.2054 62.8894 34.6355 63.0319 34.0656 63.2456C33.6382 63.3881 33.282 63.6731 32.8546 63.8868C32.8546 63.958 32.9258 63.958 32.9258 64.0293C37.2714 64.0293 41.5458 64.0293 45.8914 64.0293ZM44.6803 7.82137C41.617 6.53906 36.7727 6.6103 33.8519 7.82137C32.5696 8.39129 32.5696 9.74484 33.9232 10.2435C37.4851 11.5258 40.9046 11.5971 44.5378 10.2435C45.8914 9.6736 45.9626 8.32005 44.6803 7.82137ZM38.1975 38.5968C38.625 39.8079 39.0524 41.0902 39.4086 42.0875C39.7648 41.0902 40.1922 39.8079 40.5484 38.5968C39.836 38.5968 38.9812 38.5968 38.1975 38.5968Z" fill="white" stroke="white" stroke-miterlimit="10"/>
<path d="M33.6384 22.6391C33.6384 22.2829 33.6384 21.9267 33.6384 21.5705C33.6384 21.0718 33.8521 20.7869 34.3507 20.7869C34.8494 20.7869 35.0631 21.1431 35.1344 21.5705C35.1344 22.4966 35.1344 23.3515 35.2768 24.2776C35.4193 25.5599 35.633 26.8422 35.8468 28.1958C35.918 28.7657 35.7756 29.1219 35.3481 29.2644C34.9207 29.3356 34.5645 29.0506 34.4932 28.4807C34.2083 26.5573 33.9233 24.6338 33.6384 22.7103C33.5671 22.6391 33.6384 22.6391 33.6384 22.6391Z" fill="white"/>
<path d="M35.2055 18.0797C35.2055 18.3646 35.2055 18.6496 35.2055 18.9345C35.2055 19.362 34.9206 19.6469 34.4932 19.6469C34.0657 19.6469 33.7808 19.362 33.7808 18.9345C33.7808 18.3646 33.7808 17.7235 33.7808 17.1536C33.7808 16.7261 34.0657 16.4412 34.4932 16.4412C34.9206 16.4412 35.2055 16.7261 35.2055 17.1536C35.2055 17.5098 35.2055 17.7947 35.2055 18.0797Z" fill="white"/>
</svg>
