<svg width="79" height="72" viewBox="0 0 79 72" fill="none" xmlns="http://www.w3.org/2000/svg">
<rect x="1.5" y="1.5" width="76" height="69" rx="5.5" fill="#81D8D0" stroke="#81D8D0" stroke-width="3"/>
<path d="M40.8226 60.5981C39.8226 60.5981 38.8226 60.5981 37.7726 60.5981C37.6226 60.5481 37.4726 60.5481 37.3226 60.4981C36.3226 60.3481 35.2726 60.2481 34.2726 60.0481C28.4226 58.7981 23.6226 55.7981 20.0226 50.9981C15.6726 45.2481 14.1226 38.7981 15.4726 31.7481C16.6226 25.6481 19.7226 20.6981 24.6726 16.9481C30.2226 12.7481 36.4726 11.2481 43.3226 12.3481C47.9226 13.0981 51.9726 15.0481 55.4726 18.1481C59.6726 21.8981 62.2726 26.5481 63.2726 32.0981C63.4226 32.9981 63.5226 33.8981 63.6226 34.7481C63.6226 35.7481 63.6226 36.7481 63.6226 37.7981C63.5726 38.3981 63.4726 38.9981 63.4226 39.5981C62.7226 44.4481 60.7726 48.7481 57.5226 52.3981C53.7726 56.5981 49.1226 59.1981 43.5726 60.1981C42.6226 60.3481 41.7226 60.4481 40.8226 60.5981ZM60.7226 36.2981C60.7226 24.4981 51.0726 14.8481 39.2726 14.8481C27.4726 14.8481 17.8726 24.4481 17.8726 36.2481C17.8726 48.0481 27.4726 57.6981 39.3226 57.6981C51.0726 57.7481 60.7226 48.0981 60.7226 36.2981Z" fill="white"/>
<path d="M33.2726 45.298C32.7226 45.298 32.2726 45.298 31.8226 45.298C30.8726 45.298 30.2726 44.748 30.2726 43.898C30.2726 43.048 30.9226 42.448 31.8726 42.448C32.3226 42.448 32.8226 42.448 33.3226 42.448C33.3226 41.348 33.3226 40.298 33.3226 39.198C32.8226 39.198 32.3726 39.198 31.8726 39.198C30.9226 39.198 30.3226 38.648 30.3226 37.798C30.3226 36.948 30.9726 36.348 31.9226 36.348C32.3726 36.348 32.8726 36.348 33.3726 36.348C33.3726 36.098 33.3726 35.948 33.3726 35.748C33.3726 32.448 33.3726 29.148 33.3726 25.848C33.3726 24.698 33.8726 24.198 35.0226 24.198C37.6226 24.198 40.2226 24.148 42.8226 24.248C46.8226 24.398 49.9226 27.748 49.9226 31.748C49.9226 35.848 46.5726 39.198 42.4726 39.198C40.5726 39.198 38.6726 39.198 36.7726 39.198C36.6226 39.198 36.4226 39.198 36.2226 39.198C36.2226 40.298 36.2226 41.348 36.2226 42.448C36.4226 42.448 36.5726 42.448 36.7726 42.448C38.6226 42.448 40.4226 42.448 42.2726 42.448C43.4226 42.448 44.1226 43.448 43.7226 44.448C43.4726 45.048 42.9726 45.298 42.3226 45.298C40.4726 45.298 38.6726 45.298 36.8226 45.298C36.6726 45.298 36.4726 45.298 36.2226 45.298C36.2226 45.748 36.2226 46.198 36.2226 46.598C36.2226 47.198 36.2226 47.848 36.2226 48.448C36.1726 49.298 35.5726 49.898 34.7726 49.898C33.9726 49.898 33.4226 49.248 33.4226 48.448C33.2726 47.448 33.2726 46.398 33.2726 45.298ZM36.1726 36.398C38.1726 36.398 40.1726 36.398 42.1226 36.398C42.3226 36.398 42.5726 36.398 42.7726 36.398C42.9226 36.398 43.0726 36.348 43.2226 36.298C45.4226 35.898 47.0226 33.848 46.9726 31.598C46.9226 29.298 45.1726 27.298 42.9726 27.148C40.7226 26.998 38.4726 27.098 36.2226 27.098C36.1726 27.098 36.1726 27.148 36.1226 27.148C36.1726 30.148 36.1726 33.248 36.1726 36.398Z" fill="white"/>
</svg>
