<svg width="79" height="72" viewBox="0 0 79 72" fill="none" xmlns="http://www.w3.org/2000/svg">
<rect x="1.5" y="1.5" width="76" height="69" rx="5.5" fill="#81D8D0" stroke="#81D8D0" stroke-width="3"/>
<path d="M50.0429 10C51.26 10.2213 52.3112 10.9405 53.3623 11.5491C55.7966 12.9875 58.2861 14.4259 60.7204 15.9196C62.4354 16.9155 62.712 18.7965 61.2736 20.2349C60.1118 21.3413 58.784 21.618 57.2903 21.12C57.069 21.0647 56.7924 20.8988 56.5711 20.8434C56.2945 21.1754 56.0179 21.5626 55.7412 21.8393C54.5241 22.8904 53.1964 23.1117 51.7026 22.5031C50.9281 22.1712 50.2089 21.7839 49.4344 21.3967C48.5492 22.6691 47.2767 23.2777 45.7277 23.167C45.6723 23.7203 45.7277 24.2735 45.617 24.7714C45.2851 26.4864 43.8467 27.7036 42.0763 27.7036C39.7527 27.7036 37.4291 27.7589 35.0502 27.7036C33.2799 27.6482 31.6202 27.095 30.0711 26.2098C28.2454 25.1587 26.4197 24.2182 24.3174 23.7203C22.6577 23.333 21.0533 23.2777 19.3936 23.333C18.5638 23.333 18.1765 23.1117 18.1765 22.5585C18.1765 22.0052 18.5638 21.8393 19.3936 21.7839C23.4322 21.618 27.1943 22.5585 30.569 24.7161C30.735 24.8267 30.8456 24.8821 31.0116 24.9927C32.45 25.8226 33.9991 26.2098 35.6588 26.2098C37.7057 26.2098 39.6974 26.2098 41.7444 26.2098C43.1275 26.2098 44.068 25.2693 44.068 24.0522C44.068 22.7798 43.0721 21.8946 41.7444 21.8946C39.9187 21.8946 38.093 21.8946 36.3227 21.8946C34.4417 21.8946 33.5011 20.2902 34.3863 18.6305C35.3822 16.8601 36.8759 15.9196 38.8675 15.8643C42.4083 15.809 45.949 15.8643 49.4344 15.8643C49.6557 15.8643 49.8769 15.9196 50.0982 15.975C50.6515 16.1962 51.2047 16.4729 51.7026 16.7495C52.2005 17.0261 52.3665 17.4134 52.1452 17.856C51.9239 18.2432 51.4813 18.4092 51.0387 18.1326C49.8769 17.358 48.6045 17.3027 47.2767 17.358C46.4469 17.4134 45.6724 17.358 44.7318 17.358C44.8425 17.4687 44.8978 17.524 45.0085 17.5793C47.3321 18.7411 49.6556 19.8476 51.9792 21.0094C53.1964 21.5626 54.4135 21.2307 54.9667 20.1242C54.6901 19.9583 54.4135 19.8476 54.1369 19.6816C53.7496 19.4603 53.5836 19.0731 53.8049 18.6858C53.9709 18.2985 54.4135 18.1326 54.8561 18.3539C55.7412 18.7411 56.6264 19.239 57.5116 19.6263C58.5074 20.0689 59.6139 19.8476 60.2225 19.0178C60.7204 18.4092 60.6097 17.7453 59.9458 17.358C57.0137 15.5877 54.0815 13.8727 51.0941 12.1576C50.5408 11.8257 49.7663 11.6597 49.1024 11.6597C44.3999 11.6044 39.6421 11.6044 34.9396 11.6597C33.8884 11.6597 32.7819 12.047 31.7861 12.3236C29.7391 12.8768 27.7475 13.4301 25.7005 13.9833C25.1473 14.1493 24.5387 14.2046 23.9302 14.2599C22.3258 14.3152 20.7214 14.2599 19.1723 14.2599C18.5084 14.2599 18.1765 13.9833 18.1765 13.4854C18.1765 12.9875 18.5638 12.7109 19.2277 12.7109C20.2235 12.7109 21.164 12.6555 22.1598 12.7109C23.7642 12.7662 25.3686 12.5449 26.9176 12.1023C29.3519 11.3831 31.7861 10.7745 34.2204 10.1106C39.4761 10 44.7318 10 50.0429 10ZM47.8853 20.6775C47.7746 20.6221 47.7193 20.5668 47.6087 20.5115C45.5064 19.5157 43.4041 18.4645 41.3571 17.4687C41.1911 17.4134 41.0252 17.358 40.8592 17.358C40.1953 17.358 39.5314 17.3027 38.8675 17.358C38.4803 17.358 38.0377 17.524 37.6504 17.5793C37.927 17.856 38.2037 17.9666 38.4803 18.1326C40.6932 19.1837 42.8508 20.2902 45.0638 21.3413C46.1703 21.8393 47.2767 21.5626 47.8853 20.6775ZM39.0335 20.2349C39.0335 20.1795 39.0335 20.1795 39.0335 20.1242C38.093 19.6816 37.0972 19.1837 36.1014 18.6858C35.9354 18.9071 35.8247 19.0731 35.7141 19.2944C35.4375 19.8476 35.6588 20.1795 36.2673 20.2349C37.2078 20.2349 38.1483 20.2349 39.0335 20.2349Z" fill="white"/>
<path d="M31.0117 51.6033C32.1735 50.1649 32.6161 49.9436 34.7184 49.7776C34.7737 49.2244 34.7184 48.6158 34.829 48.1179C35.161 46.5135 36.6547 45.2964 38.2591 45.2411C38.7017 45.2411 39.1443 45.2411 39.5869 45.2411C40.0295 45.2411 40.3614 45.5177 40.3614 45.9603C40.3614 46.4029 40.0848 46.7348 39.5869 46.7902C39.1996 46.8455 38.8124 46.7902 38.3698 46.7902C37.0973 46.7902 36.1568 47.7307 36.1568 49.0031C36.1568 50.2202 37.1526 51.1607 38.4251 51.1607C40.2508 51.1607 42.0764 51.1607 43.8468 51.1607C45.8938 51.1607 46.8343 52.7651 45.7831 54.5355C44.7873 56.1952 43.2936 57.1357 41.3572 57.1357C37.8165 57.191 34.2758 57.1357 30.7904 57.1357C30.5138 57.1357 30.1819 57.025 29.9052 56.9144C27.5263 55.7526 25.2027 54.5908 22.8238 53.4843C21.7727 52.9864 20.6662 53.1524 20.0023 53.9822C19.5044 54.6461 19.5597 55.2547 20.2789 55.6973C23.2664 57.4676 26.1986 59.238 29.186 60.953C29.684 61.2296 30.3478 61.3956 30.9564 61.3956C35.7142 61.4509 40.4721 61.4509 45.2299 61.3956C46.281 61.3956 47.3875 61.0083 48.3833 60.7317C50.4303 60.1785 52.5326 59.5699 54.5796 59.072C55.1328 58.906 55.6861 58.8507 56.2393 58.8507C57.8437 58.7954 59.4481 58.8507 60.9971 58.8507C61.661 58.8507 61.9929 59.1273 61.9929 59.6252C61.9929 60.1231 61.6057 60.3998 60.9418 60.3998C59.8906 60.3998 58.7842 60.4551 57.733 60.3998C56.2393 60.3444 54.8562 60.5657 53.4731 60.953C51.3708 61.5616 49.2132 62.1701 47.0556 62.7234C46.3917 62.8893 45.6725 63 45.0086 63C40.3614 63 35.6589 63 31.0117 63C29.9606 63 29.0201 62.7234 28.0796 62.2254C25.2027 60.5104 22.3259 58.7954 19.4491 57.1357C17.7894 56.1398 17.5128 54.3695 18.8405 52.9311C19.947 51.714 21.6067 51.382 23.1004 51.9906C23.2664 52.0459 23.4877 52.1565 23.6537 52.2672C24.3729 51.1054 25.3687 50.3309 26.7518 50.2755C27.4157 50.2755 28.0796 50.4415 28.6881 50.6628C29.6286 50.8841 30.2925 51.2714 31.0117 51.6033ZM35.4929 55.6419C35.4929 55.5866 35.4929 55.5866 35.4929 55.5313C34.5524 55.0887 33.6673 54.6461 32.7268 54.1482C31.233 53.429 29.7393 52.6545 28.1902 51.9352C27.0837 51.382 25.8113 51.8246 25.3134 52.8758C27.1391 53.7609 28.9647 54.6461 30.7351 55.5313C30.8457 55.5866 30.9564 55.5866 31.0117 55.5866C32.5055 55.6419 33.9992 55.6419 35.4929 55.6419ZM42.7403 55.4206C42.7403 55.3653 42.7403 55.31 42.7403 55.2547C42.2977 55.0334 41.9105 54.8674 41.4679 54.6461C39.4209 53.6503 37.3739 52.6545 35.2716 51.6586C34.2205 51.1607 33.114 51.382 32.4501 52.3225C32.6161 52.3778 32.7267 52.4885 32.8927 52.5438C34.3865 53.263 35.9908 53.9822 37.4293 54.8121C38.7017 55.5313 40.0295 55.7526 41.4679 55.6419C41.9105 55.5866 42.2977 55.476 42.7403 55.4206ZM41.3572 52.7651C41.3572 52.8204 41.3572 52.8204 41.3572 52.8758C42.2977 53.3183 43.2936 53.8163 44.2894 54.3142C44.4 54.1482 44.5107 53.9822 44.6213 53.8716C44.6767 53.7609 44.732 53.6503 44.7873 53.5396C44.9533 53.1524 44.732 52.8204 44.3447 52.8204C43.2936 52.7098 42.2977 52.7651 41.3572 52.7651Z" fill="white"/>
<path d="M40.1954 31.7421C41.4678 30.5803 42.8509 30.193 44.4553 30.691C47.2215 31.5761 48.2173 35.0615 46.281 37.2191C44.7319 38.8789 43.0722 40.4832 41.4678 42.0876C40.7486 42.7515 39.6974 42.7515 38.9782 42.0323C38.2037 41.2578 37.4292 40.4832 36.6547 39.7087C36.3227 39.3768 36.3227 38.8789 36.5993 38.6022C36.9313 38.2703 37.3739 38.2703 37.7611 38.6022C38.4803 39.2661 39.1442 39.9853 39.8634 40.7045C40.14 41.0365 40.3613 41.0365 40.6933 40.7045C42.1317 39.2661 43.5701 37.8277 44.9532 36.3893C46.0043 35.2828 46.0043 33.7338 45.0085 32.7379C44.0127 31.7421 42.4636 31.7974 41.4125 32.8486C40.306 33.9551 40.306 33.9551 39.1995 32.8486C38.1484 31.8528 36.71 31.7421 35.7141 32.6273C34.663 33.5125 34.5524 34.8956 35.3269 36.0573C35.6588 36.5553 35.6588 36.9978 35.2716 37.2745C34.8843 37.5511 34.4417 37.4404 34.0544 36.9425C32.8373 35.3381 33.0033 32.9592 34.4417 31.5761C35.9354 30.1377 38.259 30.0271 39.8634 31.3548C39.9187 31.4655 40.0294 31.5761 40.1954 31.7421Z" fill="white"/>
<path d="M59.7247 51.216C56.5159 51.216 53.5284 50.4415 50.7069 48.8371C49.3792 48.0626 48.0514 47.2327 46.5023 47.0114C45.5065 46.9008 44.4554 46.9008 43.4595 46.8455C43.2382 46.8455 43.0169 46.8455 42.851 46.7902C42.4637 46.6795 42.2424 46.4029 42.2424 46.0156C42.2424 45.573 42.519 45.3517 42.9063 45.2964C45.2299 45.1858 47.4982 45.3517 49.6005 46.4582C50.7623 47.0668 51.9241 47.786 53.1965 48.3392C55.2435 49.2797 57.4564 49.667 59.7247 49.667C60.2226 49.667 60.7758 49.667 61.2738 49.667C61.827 49.667 62.1589 49.9989 62.1589 50.4415C62.1589 50.8841 61.827 51.216 61.2738 51.216C60.7758 51.216 60.2226 51.216 59.7247 51.216Z" fill="white"/>
<path d="M30.5138 49.2244C30.5138 49.8329 29.9052 50.2755 29.4073 49.9436C28.9647 49.667 28.5221 49.2797 28.1902 48.8924C28.0242 48.7265 28.0796 48.2839 28.1902 48.0626C28.3562 47.8413 28.7988 47.6753 28.9647 47.786C29.4627 48.1179 29.9606 48.5605 30.4031 49.0031C30.5138 49.0031 30.5138 49.169 30.5138 49.2244Z" fill="white"/>
<path d="M52.0345 24.4395C51.9239 24.6055 51.7579 24.8821 51.5366 24.9927C51.3153 25.1034 50.9834 25.1034 50.7621 24.9374C50.3748 24.7161 49.9876 24.3842 49.7109 24.0522C49.545 23.8309 49.4896 23.3883 49.6003 23.167C49.7109 22.9457 50.2088 22.7244 50.3748 22.8351C50.9281 23.167 51.3706 23.6096 51.8686 24.0522C51.9792 24.1075 51.9792 24.2182 52.0345 24.4395Z" fill="white"/>
<path d="M55.1328 28.0909C54.9669 28.3122 54.8009 28.5888 54.5796 28.6994C54.2476 28.9207 53.9157 28.7547 53.6944 28.4781C53.4178 28.0909 53.1412 27.7589 52.9752 27.3163C52.8646 27.095 52.9752 26.6524 53.1412 26.4312C53.3071 26.2652 53.7497 26.2099 53.971 26.3205C54.5243 26.7078 54.8009 27.3717 55.1328 28.0909Z" fill="white"/>
<path d="M55.9627 30.5804C56.0733 30.6911 56.3499 30.8571 56.4606 31.0784C56.6819 31.4656 56.7372 31.9082 56.8479 32.3508C56.9585 32.7934 56.6819 33.1807 56.2946 33.236C55.852 33.3466 55.5201 33.1807 55.4094 32.7381C55.2435 32.2955 55.1328 31.9082 55.0222 31.4656C54.9115 30.9677 55.2988 30.5804 55.9627 30.5804Z" fill="white"/>
<path d="M24.4282 36.002C24.4282 36.2233 24.4282 36.4446 24.4282 36.6659C24.3729 37.1085 24.0962 37.3851 23.6536 37.3851C23.2111 37.3851 22.9344 37.1638 22.8791 36.7212C22.8238 36.2786 22.8791 35.7807 22.9344 35.3381C22.9898 34.8955 23.377 34.6189 23.7643 34.6743C24.1515 34.7296 24.4282 35.0615 24.4835 35.5041C24.4282 35.6148 24.4282 35.836 24.4282 36.002Z" fill="white"/>
<path d="M27.8029 26.3204C27.8029 26.8183 26.9177 28.1461 26.5858 28.1461C26.3091 28.2014 25.9772 28.1461 25.8112 27.9248C25.6453 27.7588 25.5899 27.3162 25.6453 27.0949C25.8666 26.6523 26.1432 26.2097 26.5304 25.8778C26.6964 25.7118 27.139 25.6565 27.3603 25.7672C27.5816 25.8778 27.6922 26.2097 27.8029 26.3204Z" fill="white"/>
<path d="M26.4751 46.4582C25.8666 46.4582 24.8707 44.9645 25.1474 44.3559C25.3686 43.858 26.0325 43.692 26.4198 44.1346C26.6964 44.5219 26.973 44.9092 27.1943 45.3518C27.4156 45.905 27.0284 46.4582 26.4751 46.4582Z" fill="white"/>
<path d="M25.5346 30.6358C25.3133 31.2443 25.1474 31.8529 24.8708 32.2955C24.7601 32.5168 24.2622 32.6274 24.0409 32.5721C23.8196 32.5168 23.4877 32.0742 23.543 31.8529C23.5983 31.2997 23.8196 30.7464 24.0962 30.2485C24.2069 30.0825 24.7048 29.9719 24.9261 30.0272C25.2027 30.0825 25.3687 30.4145 25.5346 30.6358Z" fill="white"/>
<path d="M24.2071 42.143C24.0965 42.0324 23.8199 41.8664 23.6539 41.5898C23.4879 41.2025 23.3773 40.7599 23.3219 40.3727C23.2113 39.9301 23.4326 39.6534 23.8198 39.4875C24.2071 39.3215 24.6497 39.5428 24.7604 39.9854C24.9263 40.428 25.037 40.8152 25.0923 41.2578C25.2029 41.7557 24.871 42.143 24.2071 42.143Z" fill="white"/>
<path d="M54.8562 45.0752C54.8562 45.6838 54.0263 46.9009 53.6391 46.9562C53.3625 47.0115 53.0305 46.9562 52.8646 46.7349C52.6986 46.5689 52.5879 46.1817 52.6986 45.9604C52.9199 45.4625 53.2518 45.0199 53.5838 44.6879C53.7497 44.522 54.137 44.522 54.3583 44.5773C54.5796 44.6879 54.7456 44.9645 54.8562 45.0752Z" fill="white"/>
<path d="M55.852 36.666C55.852 36.4447 55.852 36.2787 55.852 36.0574C55.852 35.6148 56.1286 35.3935 56.5159 35.3382C56.9585 35.2829 57.2904 35.5042 57.3457 35.9467C57.401 36.4447 57.401 36.9979 57.2904 37.4958C57.2351 37.8831 56.9031 38.1044 56.5159 38.049C56.1286 37.9937 55.852 37.7724 55.852 37.3852C55.7967 37.1639 55.852 36.8872 55.852 36.666Z" fill="white"/>
<path d="M56.9033 40.7599C56.682 41.4237 56.516 41.977 56.2394 42.4196C56.1287 42.5855 55.6308 42.7515 55.4095 42.6962C55.1882 42.6409 54.9116 42.1983 54.9116 41.977C54.9669 41.4237 55.1329 40.8705 55.4095 40.4279C55.5202 40.2066 55.9628 40.096 56.2394 40.1513C56.4607 40.2066 56.682 40.5386 56.9033 40.7599Z" fill="white"/>
<path d="M39.0337 20.2349C38.1485 20.2349 37.208 20.2349 36.3228 20.2349C35.7143 20.2349 35.493 19.9029 35.7696 19.2944C35.8802 19.0731 35.9909 18.9071 36.1569 18.6858C37.1527 19.1837 38.0932 19.6263 39.089 20.1242C39.0337 20.1795 39.0337 20.1795 39.0337 20.2349Z" fill="white"/>
</svg>
