<svg width="79" height="72" viewBox="0 0 79 72" fill="none" xmlns="http://www.w3.org/2000/svg">
<rect x="1.5" y="1.5" width="76" height="69" rx="5.5" fill="#81D8D0" stroke="#81D8D0" stroke-width="3"/>
<path d="M56.4445 21.3325C56.9954 21.4828 57.2959 21.5829 57.6465 21.6831C60.8018 22.7349 62.8552 25.5395 62.9053 29.0454C62.9554 33.3025 62.9053 37.5597 62.9053 41.8168C62.9053 43.4195 61.553 45.1724 59.0989 44.5213C58.8986 49.3794 58.6482 54.1875 58.4479 59.0957C58.7484 59.0957 58.9988 59.0957 59.1991 59.0957C61.1524 59.0957 63.1056 59.0957 65.0589 59.0957C65.2592 59.0957 65.4596 59.0957 65.6599 59.0957C66.2108 59.1959 66.5113 59.4964 66.5113 60.0473C66.5113 60.5481 66.1608 60.8486 65.6599 60.8987C65.4596 60.8987 65.2592 60.8987 65.0589 60.8987C48.0304 60.8987 31.0019 60.8987 13.9734 60.8987C12.9717 60.8987 12.521 60.5982 12.521 59.9972C12.521 59.3461 12.9717 59.0957 13.9734 59.0957C14.925 59.0957 15.9267 59.0957 16.9284 59.0957C16.9284 52.1841 16.9284 45.3227 16.9284 38.4612C16.8783 38.4612 16.8282 38.4111 16.7781 38.4111C15.1754 38.1607 14.324 37.2091 14.324 35.6064C14.324 29.1456 14.324 22.6848 14.324 16.224C14.324 14.9719 14.324 13.6697 14.324 12.4176C14.324 10.7648 15.4259 9.66298 17.0786 9.66298C26.0436 9.66298 34.9585 9.66298 43.9235 9.66298C45.6264 9.66298 46.7282 10.7648 46.7282 12.5678C46.7282 16.1238 46.7282 19.6297 46.7282 23.1856C46.7282 23.436 46.7282 23.6864 46.7282 24.0871C48.0304 22.6347 49.4828 21.8333 51.3359 21.4327C51.1356 21.2323 51.0354 21.1322 50.8852 21.0821C49.8334 20.5312 49.3827 19.6297 49.3827 18.4276C49.3827 16.9251 49.3827 15.3725 49.3827 13.87C49.3827 13.4694 49.2825 13.1688 48.982 12.8183C48.1306 12.0169 47.6798 11.0152 47.6297 9.86332C47.5797 9.11206 47.9302 8.76147 48.6815 8.76147C50.9353 8.76147 53.189 8.76147 55.4929 8.76147C57.1457 8.76147 58.3978 10.0136 58.3978 11.6163C58.4479 13.9702 58.3978 16.3241 58.3978 18.6781C58.3978 19.7298 57.8969 20.4811 57.0455 20.9819C56.8452 21.032 56.745 21.1322 56.4445 21.3325ZM44.8751 30.2975C44.8751 29.997 44.8751 29.7466 44.8751 29.4962C44.8751 23.9369 44.8751 18.3275 44.8751 12.7682C44.8751 11.5662 44.6748 11.4159 43.4728 11.4159C34.8083 11.4159 26.1438 11.4159 17.5294 11.4159C16.2272 11.4159 16.0769 11.5662 16.0769 12.8183C16.0769 20.2807 16.0769 27.6932 16.0769 35.1556C16.0769 36.4077 16.2773 36.6081 17.5294 36.6081C26.1438 36.6081 34.8083 36.6081 43.4227 36.6081C43.623 36.6081 43.8234 36.6081 44.0237 36.6081C44.5245 36.558 44.8251 36.3076 44.8251 35.7566C44.775 35.7566 44.7249 35.7066 44.6748 35.7066C43.573 35.7066 42.4711 35.7066 41.3693 35.7066C39.7666 35.7066 38.5646 34.5546 38.5145 33.002C38.5145 31.4494 39.7165 30.2975 41.3693 30.2975C42.5713 30.2975 43.6731 30.2975 44.8751 30.2975ZM40.3676 59.0456C40.3676 52.134 40.3676 45.2726 40.3676 38.4111C34.057 38.4111 27.8466 38.4111 21.5361 38.4111C21.5361 45.3227 21.5361 52.134 21.5361 59.0456C27.7966 59.0456 34.057 59.0456 40.3676 59.0456ZM51.1356 23.3359C49.2825 23.5863 47.3292 25.4394 46.8785 27.5429C46.6782 28.6447 46.7282 29.7967 46.6782 30.9486C46.6281 31.8 46.3777 32.1005 45.5763 32.1005C45.0755 32.1005 44.5245 32.1005 44.0237 32.1005C44.0237 32.7516 44.0237 33.3025 44.0237 33.8535C45.5262 33.8535 46.9787 33.8535 48.4812 33.8535C48.4812 33.603 48.4812 33.3526 48.4812 33.1022C48.4812 32.2007 48.4812 31.2992 48.4812 30.3977C48.4812 29.7967 48.8818 29.396 49.3827 29.396C49.8835 29.396 50.2842 29.7967 50.2842 30.3977C50.2842 30.5479 50.2842 30.6982 50.2842 30.8484C50.2842 33.4027 50.2842 36.0071 50.2842 38.5613C50.2842 38.8118 50.2842 39.0121 50.2842 39.2625C52.7383 39.2625 55.0922 39.2625 57.4963 39.2625C57.4963 39.0121 57.4963 38.7617 57.4963 38.5113C57.4963 35.6565 57.4963 32.8017 57.4963 29.9469C57.4963 29.7466 57.4963 29.4962 57.5463 29.2958C57.5964 28.795 57.947 28.4945 58.4479 28.5446C58.9487 28.5446 59.2492 28.8451 59.2993 29.396C59.2993 29.5963 59.2993 29.7967 59.2993 29.997C59.2993 32.8518 59.2993 35.7066 59.2993 38.5613C59.2993 38.8118 59.2993 39.0121 59.2993 39.3126C59.9504 39.3126 60.5013 39.3126 61.1023 39.3126C61.1023 35.7066 61.2025 32.2007 61.0522 28.6447C60.952 26.0905 59.4996 24.3876 57.0956 23.4861C56.9453 23.436 56.7951 23.436 56.6448 23.3859C56.1941 25.0387 55.2926 25.8401 53.9904 25.8901C52.6381 25.8401 51.7366 25.0387 51.1356 23.3359ZM49.3326 59.0957C49.0321 51.2826 48.6815 43.5196 48.381 35.7566C47.8802 35.7566 47.3292 35.7566 46.7282 35.7566C46.6281 36.7583 46.2775 37.5597 45.376 38.0104C44.9753 38.2108 44.8751 38.4612 44.8751 38.8618C44.8751 45.3727 44.8751 51.9337 44.8751 58.4446C44.8751 58.6449 44.8751 58.8453 44.8751 59.0957C46.4277 59.0957 47.8301 59.0957 49.3326 59.0957ZM52.9887 59.0456C52.9887 58.695 52.9887 58.4446 52.9887 58.1942C52.9887 53.887 52.9887 49.5798 52.9887 45.2726C52.9887 45.0221 52.9386 44.6716 53.0388 44.5213C53.2391 44.2208 53.5897 43.9203 53.8902 43.8702C54.341 43.7701 54.6916 44.1206 54.7416 44.5714C54.7917 44.7717 54.7416 45.0222 54.7416 45.2225C54.7416 49.5798 54.7416 53.9871 54.7416 58.3444C54.7416 58.5949 54.7416 58.7952 54.7416 59.0456C55.3927 59.0456 55.9937 59.0456 56.5947 59.0456C56.8452 53.0356 57.1457 47.1257 57.3961 41.1657C54.9921 41.1657 52.6381 41.1657 50.2842 41.1657C50.5346 47.1758 50.8351 53.0856 51.0855 59.0456C51.7867 59.0456 52.3376 59.0456 52.9887 59.0456ZM51.1857 14.1204C51.1857 15.673 51.1857 17.1255 51.1857 18.5779C51.1857 19.1288 51.5363 19.4293 52.0371 19.4794C52.6882 19.5295 52.9386 19.9302 52.9386 20.5312C52.9386 21.3325 52.9386 22.1339 52.9386 22.9853C52.9386 23.6364 53.3393 23.9869 53.8401 23.9869C54.341 23.9869 54.6916 23.5863 54.7416 22.9853C54.7416 22.1839 54.7416 21.3826 54.7416 20.5312C54.7416 19.9302 54.9921 19.5796 55.6432 19.4794C56.3443 19.3792 56.5947 18.9786 56.5947 18.3275C56.5947 17.5261 56.5947 16.7248 56.5947 15.9735C56.5947 15.3225 56.5947 14.7214 56.5947 14.0704C54.7416 14.1204 53.0388 14.1204 51.1857 14.1204ZM18.8316 38.4111C18.8316 45.3227 18.8316 52.1841 18.8316 59.0456C19.1321 59.0456 19.3825 59.0456 19.683 59.0456C19.683 52.134 19.683 45.3227 19.683 38.4111C19.3825 38.4111 19.1321 38.4111 18.8316 38.4111ZM43.022 59.0456C43.022 52.1841 43.022 45.3227 43.022 38.4111C42.7215 38.4111 42.4711 38.4111 42.2207 38.4111C42.2207 45.3227 42.2207 52.134 42.2207 59.0456C42.5212 59.0456 42.7716 59.0456 43.022 59.0456ZM49.583 10.5144C49.9837 11.466 50.6348 12.1171 51.4862 12.1672C53.139 12.2673 54.8418 12.2173 56.5447 12.2173C56.6949 11.2156 56.3443 10.5144 55.4929 10.5144C53.5396 10.5144 51.6365 10.5144 49.583 10.5144ZM59.2993 41.1657C59.2993 41.8168 59.149 42.4679 59.75 42.7684C60.0004 42.8685 60.4512 42.8685 60.6515 42.7183C61.2525 42.3677 61.0522 41.7166 61.0522 41.1657C60.4512 41.1657 59.9003 41.1657 59.2993 41.1657ZM42.1706 32.1506C41.5195 32.1506 40.8684 31.9503 40.5679 32.6014C40.4177 32.8518 40.4678 33.3025 40.618 33.553C40.9686 34.154 41.6197 33.9035 42.1706 33.9035C42.1706 33.2525 42.1706 32.7516 42.1706 32.1506Z" fill="white"/>
<path d="M28.4978 18.5778C29.6497 18.5778 30.7516 18.5778 31.8534 18.5778C32.9552 18.6279 33.9068 19.4293 34.0571 20.481C34.2073 21.5829 33.6063 22.6346 32.5045 22.9351C32.204 23.0353 31.9035 23.0353 31.603 23.0353C30.6514 23.0353 29.6998 23.0353 28.648 23.0353C28.7482 24.3375 28.3976 25.5896 28.9485 26.8417C29.85 28.845 30.7516 30.8984 31.603 32.9519C32.0037 33.9536 31.7532 35.0053 30.9018 35.6063C30.1005 36.2073 28.9986 36.2574 28.1973 35.6564C27.8467 35.3559 27.5963 34.9552 27.3959 34.5546C26.8951 33.4527 26.4443 32.3509 25.8934 31.0988C25.3425 32.3509 24.8917 33.4527 24.3909 34.6046C24.0403 35.4561 23.4393 35.9569 22.4877 36.0571C20.7348 36.2574 19.5328 34.5546 20.234 32.9018C20.9852 31.0988 21.6864 29.2958 22.5378 27.5929C23.2891 26.1405 23.0887 24.638 23.1388 23.0353C22.037 23.0353 20.9351 23.0353 19.8834 23.0353C18.8817 22.9852 18.0804 22.3341 17.8299 21.3324C17.5795 20.3808 17.9802 19.3792 18.8817 18.9284C19.2824 18.7281 19.7331 18.6279 20.1839 18.5778C21.2356 18.5277 22.2874 18.5778 23.3392 18.5778C21.8867 16.3741 21.9368 14.521 23.4393 13.2189C24.7916 12.0169 26.7949 11.9668 28.1472 13.1187C29.9001 14.471 29.9502 16.274 28.4978 18.5778ZM25.9936 20.4309C24.1405 20.4309 22.2874 20.4309 20.4343 20.4309C20.0837 20.4309 19.683 20.3808 19.683 20.8817C19.683 21.3324 20.0837 21.3324 20.3842 21.3324C21.5361 21.3324 22.6881 21.3324 23.7899 21.3324C24.7415 21.3324 24.9418 21.6329 25.042 22.5345C25.2423 25.1889 24.8917 27.7432 23.4894 30.047C23.3892 30.1973 23.3391 30.3976 23.239 30.5979C22.7882 31.5996 22.3375 32.6013 21.9368 33.603C21.8867 33.7532 22.037 34.0537 22.1371 34.2541C22.3375 34.1539 22.5879 34.0537 22.7381 33.9536C22.8383 33.9035 22.8383 33.7031 22.8884 33.603C23.5896 31.9502 24.2907 30.3475 24.9418 28.6948C25.1422 28.244 25.3926 27.8433 25.8934 27.9435C26.244 28.0437 26.5946 28.3442 26.7949 28.6948C27.2457 29.5462 27.5462 30.4477 27.9469 31.3492C28.2974 32.2006 28.648 33.1021 29.0487 33.9536C29.1489 34.1038 29.4494 34.204 29.6497 34.3041C29.7499 34.1038 29.85 33.8534 29.85 33.6531C29.85 33.5028 29.7499 33.3526 29.6998 33.2524C28.8484 31.249 27.9469 29.2457 27.0954 27.1922C26.9452 26.8417 26.845 26.4911 26.845 26.1405C26.7949 24.9385 26.845 23.7365 26.845 22.5345C26.845 21.6329 27.1455 21.3825 28.047 21.3825C29.199 21.3825 30.3509 21.3825 31.4527 21.3825C31.8033 21.3825 32.1539 21.3825 32.204 20.9318C32.204 20.4309 31.8033 20.481 31.5028 20.481C29.6998 20.4309 27.8467 20.4309 25.9936 20.4309ZM27.7966 15.9234C27.7966 14.9217 26.9953 14.1204 25.9936 14.1204C24.9919 14.1204 24.1906 14.9718 24.1906 15.9234C24.1906 16.875 24.9919 17.6763 25.9435 17.6763C26.9953 17.6763 27.7465 16.9251 27.7966 15.9234Z" fill="white"/>
<path d="M39.5162 20.4309C38.4644 20.4309 37.3626 20.4309 36.3108 20.4309C35.1088 20.4309 34.7582 19.7799 35.3091 18.7782C36.411 16.875 37.5128 14.9217 38.6147 13.0185C39.1155 12.117 39.9168 12.117 40.4177 13.0185C41.5696 14.9718 42.6714 16.9251 43.7733 18.9284C44.2741 19.7799 43.8735 20.4309 42.8718 20.481C41.7199 20.4309 40.618 20.4309 39.5162 20.4309ZM41.5195 18.5778C40.8183 17.3758 40.1673 16.2239 39.4661 15.0219C38.7649 16.274 38.1138 17.3758 37.4126 18.5778C38.8651 18.5778 40.1172 18.5778 41.5195 18.5778Z" fill="white"/>
<path d="M39.0152 23.987C38.0136 23.987 37.062 23.987 36.0603 23.987C35.4092 23.987 35.0586 23.6865 35.0085 23.1356C35.0085 22.5846 35.3591 22.184 36.0102 22.184C38.0136 22.184 40.0169 22.184 42.0704 22.184C42.7215 22.184 43.072 22.5345 43.072 23.0855C43.072 23.6364 42.7215 23.987 42.0203 23.987C41.0186 23.987 40.0169 23.987 39.0152 23.987Z" fill="white"/>
<path d="M37.7131 24.9386C38.264 24.9386 38.865 24.9386 39.4159 24.9386C40.0169 24.9386 40.3174 25.2391 40.3675 25.7901C40.4176 26.2909 40.0169 26.6916 39.466 26.6916C38.264 26.7417 37.1121 26.6916 35.9101 26.6916C35.3591 26.6916 35.0085 26.3911 35.0085 25.7901C35.0085 25.2892 35.3591 24.9386 35.9601 24.9386C36.5611 24.8886 37.1121 24.9386 37.7131 24.9386Z" fill="white"/>
</svg>
