<svg width="24" height="20" viewBox="0 0 24 20" fill="none" xmlns="http://www.w3.org/2000/svg">
<g clip-path="url(#clip0_48_183)">
<path d="M12.8697 15.5887L10.6162 17.7916L9.85077 18.544C9.79245 18.618 9.71055 18.6699 9.61862 18.6912C9.52668 18.7124 9.43023 18.7017 9.34523 18.6608C9.25452 18.6209 9.17988 18.5517 9.13327 18.4643C9.08666 18.377 9.07078 18.2766 9.08818 18.1792C9.20814 16.5548 9.31953 14.9276 9.4452 13.3032C9.46636 13.1844 9.52667 13.0761 9.61656 12.9954C11.8462 10.9397 14.0797 8.88785 16.317 6.83979L19.196 4.19516C19.2744 4.13512 19.3436 4.06409 19.4016 3.98427C19.4165 3.95463 19.4242 3.92194 19.4242 3.8888C19.4242 3.85567 19.4165 3.82298 19.4016 3.79334C19.3788 3.76948 19.3505 3.75156 19.3191 3.74113C19.2878 3.7307 19.2543 3.72808 19.2217 3.73349C19.144 3.75564 19.0713 3.7924 19.0075 3.84178C14.7747 6.41042 10.5429 8.9914 6.31203 11.5847C6.2332 11.6391 6.14191 11.6729 6.04658 11.6828C5.95124 11.6928 5.85493 11.6787 5.76651 11.6417C4.05284 11.0547 2.36201 10.479 0.659764 9.90049C0.208497 9.7466 0 9.51576 0 9.13674C0 8.75771 0.17708 8.50978 0.622635 8.33879L15.0232 2.85005L22.135 0.117075C22.9918 -0.207804 23.8144 0.165522 23.9771 0.997668C24.0162 1.33989 23.988 1.68641 23.8943 2.0179C22.6529 7.67763 21.4057 13.3355 20.1528 18.9914C19.9929 19.7095 19.6016 20.0629 18.9675 19.9888C18.7484 19.954 18.5419 19.8637 18.3677 19.7266C16.6026 18.4072 14.849 17.0763 13.0896 15.7369L12.8697 15.5887Z" fill="black"/>
</g>
<defs>
<clipPath id="clip0_48_183">
<rect width="24" height="20" fill="white"/>
</clipPath>
</defs>
</svg>
