<svg width="28" height="16" viewBox="0 0 28 16" fill="none" xmlns="http://www.w3.org/2000/svg">
<g id="&#208;&#145;&#208;&#181;&#208;&#183;&#209;&#139;&#208;&#188;&#209;&#143;&#208;&#189;&#208;&#189;&#209;&#139;&#208;&#185;-1-02 1" clip-path="url(#clip0_48_185)">
<path id="Vector" d="M0 1.10853C0.122824 0.974853 0.274726 0.871161 0.443989 0.80545C0.613253 0.739739 0.795355 0.713764 0.976251 0.72953C2.24113 0.72953 3.52299 0.712559 4.77373 0.715388C5.03443 0.711177 5.28999 0.788145 5.50497 0.93562C5.71996 1.0831 5.88371 1.29377 5.97352 1.53844C6.68378 3.01201 7.41102 4.47427 8.16655 5.92522C8.47279 6.55971 8.91877 7.11668 9.47105 7.55435C9.59136 7.65019 9.726 7.72655 9.87004 7.78062C9.93547 7.8174 10.0082 7.83926 10.0831 7.84465C10.158 7.85004 10.2331 7.83882 10.3032 7.8118C10.3732 7.78477 10.4364 7.74261 10.4882 7.68832C10.54 7.63403 10.5792 7.56897 10.6029 7.49778C10.7438 7.13248 10.8453 6.75323 10.9057 6.36644C11.0973 5.1483 11.0973 3.90772 10.9057 2.68958C10.7755 1.85804 10.3794 1.315 9.51349 1.18207C9.45418 1.17555 9.39551 1.1642 9.33805 1.14813C9.30899 1.12661 9.28156 1.10298 9.25599 1.07742C9.31491 0.967837 9.38208 0.862886 9.4569 0.76347C9.80471 0.391436 10.2837 0.169291 10.7925 0.14406C12.2956 -0.0607492 13.8202 -0.0493198 15.3201 0.178001C16.0728 0.308105 16.3444 0.585284 16.3982 1.39419C16.4633 2.33603 16.3982 3.28636 16.3982 4.22255C16.3982 5.07105 16.3982 5.9337 16.4237 6.78786C16.438 6.98584 16.494 7.17858 16.5878 7.35354C16.8255 7.82587 17.2358 7.91921 17.598 7.53738C18.0665 7.06922 18.4988 6.56622 18.8912 6.03269C19.8743 4.62682 20.6838 3.10735 21.3021 1.50733C21.35 1.37727 21.4086 1.25144 21.4775 1.13116C21.534 1.02269 21.6194 0.93197 21.7243 0.869064C21.8292 0.806159 21.9494 0.773525 22.0718 0.774783C23.7215 0.760641 25.3712 0.738015 27.0209 0.718216H27.1285C27.9066 0.78044 28.1613 1.15095 27.9264 1.89198C27.6644 2.65822 27.2823 3.37803 26.7945 4.02456C25.8947 5.28318 24.9581 6.51634 24.0412 7.76365C23.8901 7.96911 23.753 8.18456 23.6309 8.40851C23.491 8.62823 23.4325 8.88999 23.4656 9.14834C23.4987 9.40668 23.6213 9.64527 23.812 9.82269C24.46 10.4902 25.1335 11.1294 25.7928 11.7856C26.5264 12.4828 27.1631 13.2752 27.6859 14.1416C27.8324 14.4114 27.9283 14.7056 27.9689 15.0099C28.034 15.4426 27.6265 15.8358 27.1002 15.8584C25.9683 15.9008 24.8364 15.8584 23.7045 15.9687C22.1595 16.1327 21.0021 15.5275 20.0259 14.4018C19.6156 13.9266 19.2024 13.4543 18.7667 12.9876C18.5386 12.7529 18.2852 12.5442 18.0111 12.3654C17.9387 12.3088 17.8558 12.2671 17.7672 12.2426C17.6787 12.2181 17.5861 12.2113 17.4949 12.2226C17.4037 12.2339 17.3156 12.2631 17.2357 12.3085C17.1558 12.3538 17.0856 12.4145 17.0292 12.487C16.5453 12.9678 16.4406 13.5957 16.3755 14.2349C16.3529 14.4527 16.3755 14.6733 16.3444 14.8883C16.2793 15.5558 16.0162 15.8669 15.3484 15.8782C14.1401 15.8782 12.929 15.9885 11.732 15.6915C10.6895 15.4047 9.69767 14.9582 8.79192 14.3679C7.3431 13.4741 6.24517 12.2296 5.24912 10.889C3.14098 8.07477 1.51956 4.99186 0.107529 1.79016L0 1.5441V1.10853Z" fill="black"/>
</g>
<defs>
<clipPath id="clip0_48_185">
<rect width="28" height="16" fill="white"/>
</clipPath>
</defs>
</svg>
