<svg width="21" height="20" fill="none" xmlns="http://www.w3.org/2000/svg"><g clip-path="url(#clip0_48_187)" fill="#000"><path d="M20.983 10.078v.168c0 1.749.02 3.5-.015 5.253a4.21 4.21 0 01-.354 1.793 4.395 4.395 0 01-1.088 1.502c-.68.614-1.554 1-2.486 1.099-1.765.195-3.542.052-5.313.09h-1.079v-.92c.01-1.444.14-2.886.387-4.311.343-1.664 1.214-2.966 2.844-3.74a8.047 8.047 0 012.884-.687c1.407-.099 2.8-.164 4.22-.247zm-10.629 9.908H7.842c-1.168 0-2.339.02-3.501-.05a4.535 4.535 0 01-2.676-.966A4.165 4.165 0 01.18 16.64 6.012 6.012 0 010 15.288v-5.133c.528 0 1.038-.02 1.549 0 .88.041 1.76.085 2.633.165a8.226 8.226 0 013.12.793 5.017 5.017 0 011.586 1.273 4.74 4.74 0 01.918 1.77c.266.978.418 1.981.456 2.99.052.825.072 1.648.104 2.472a4.712 4.712 0 00-.012.368zM20.994 9.87c-.799-.028-1.566-.034-2.33-.086-.949-.063-1.9-.14-2.844-.274a6.081 6.081 0 01-2.596-.918 4.94 4.94 0 01-1.377-1.35 4.69 4.69 0 01-.728-1.75 19.529 19.529 0 01-.35-2.471c-.097-1-.097-1.994-.155-3.002.092 0 .161-.016.23-.016h5.123a5.485 5.485 0 012.919.724 4.29 4.29 0 011.36 1.272c.349.514.574 1.096.659 1.703.065.437.099.878.1 1.32v4.55l-.01.297zM0 9.856V6.135c0-.662 0-1.321.043-1.98A4.138 4.138 0 011.241 1.41 4.54 4.54 0 014.038.088C4.517.035 4.998.006 5.48 0h4.866v.489c-.095 1.373-.162 2.76-.289 4.133a5.499 5.499 0 01-1.153 2.955 4.984 4.984 0 01-3.006 1.79 29.62 29.62 0 01-3.014.382c-.819.074-1.644.074-2.469.107H0z"/></g><defs><clipPath id="clip0_48_187"><path fill="#fff" d="M0 0h21v20H0z"/></clipPath></defs></svg>