<svg width="23" height="22" fill="none" xmlns="http://www.w3.org/2000/svg"><g id="Безымянный-1-04 1" clip-path="url(#clip0_48_192)" fill="#000"><path id="Vector" d="M0 9.987c.061-.354.114-.705.181-1.057a10.583 10.583 0 011.92-4.313c.017-.022.037-.042.02-.022l3.217 1.23a21.324 21.324 0 00-.6 4.55H0v-.388z"/><path id="Vector_2" d="M0 11.668h4.745c.036 1.532.237 3.056.6 4.549l-3.268 1.245c-.322-.534-.685-1.104-.992-1.706a9.938 9.938 0 01-1.044-3.58.49.49 0 00-.041-.12v-.388z"/><path id="Vector_3" d="M23 10.363h-4.75a21.42 21.42 0 00-.585-4.538l3.217-1.23A10.66 10.66 0 0123 10.362z"/><path id="Vector_4" d="M17.65 16.214c.357-1.487.553-3.006.585-4.532H23a10.688 10.688 0 01-2.12 5.766l-3.23-1.234z"/><path id="Vector_5" d="M10.823 6.587v3.777H6.084a19.48 19.48 0 01.562-4.235l4.177.458z"/><path id="Vector_6" d="M6.643 15.91a19.666 19.666 0 01-.562-4.215h4.742v3.76l-4.18.455z"/><path id="Vector_7" d="M12.183 10.358V6.584l4.165-.453c.34 1.383.53 2.795.565 4.215l-4.73.012z"/><path id="Vector_8" d="M12.18 15.492v-3.81h4.704c.11.525-.293 3.557-.559 4.262-.681-.098-1.363-.21-2.047-.28-.685-.07-1.387-.116-2.098-.172z"/><path id="Vector_9" d="M15.965 4.89l-3.779.404V0c.335.153.662.323.977.511a5.678 5.678 0 011.831 2.116c.357.675.638 1.386.95 2.083.013.059.02.12.021.18z"/><path id="Vector_10" d="M12.177 21.989v-5.151c.39-.101 3.034.166 3.803.388-.114.295-.22.593-.342.882a8.633 8.633 0 01-1.89 2.945 3.762 3.762 0 01-1.427.905c-.035.011-.08.017-.144.03z"/><path id="Vector_11" d="M10.823.07v5.17a22.402 22.402 0 01-3.803-.41c.056-.151.103-.295.155-.432A9.582 9.582 0 018.98 1.273 4.013 4.013 0 0110.64.1l.108-.034a.28.28 0 01.076.003z"/><path id="Vector_12" d="M7.047 17.206a22.806 22.806 0 013.776-.408V22c-.176-.068-.342-.118-.497-.194a5.086 5.086 0 01-1.893-1.737 11.263 11.263 0 01-1.36-2.745.623.623 0 01-.026-.118z"/><path id="Vector_13" d="M15.12 21.537c1.117-1.535 1.117-1.535 2.164-4.016.932.236 1.835.568 2.692.992a11.605 11.605 0 01-4.856 3.024z"/><path id="Vector_14" d="M20.014 3.569l-2.677.992c-.334-.75-.6-1.456-.954-2.122-.354-.666-.786-1.279-1.173-1.905a11.545 11.545 0 014.803 3.035z"/><path id="Vector_15" d="M2.98 18.476l2.718-1.009a12.647 12.647 0 002.138 4.03 11.336 11.336 0 01-4.855-3.02z"/><path id="Vector_16" d="M3.022 3.527A11.278 11.278 0 017.834.542a12.535 12.535 0 00-2.115 3.982 13.564 13.564 0 01-2.697-.997z"/></g><defs><clipPath id="clip0_48_192"><path fill="#fff" d="M0 0h23v22H0z"/></clipPath></defs></svg>