<svg width="79" height="72" fill="none" xmlns="http://www.w3.org/2000/svg"><rect x="1.5" y="1.5" width="76" height="69" rx="5.5" fill="#81D8D0" stroke="#81D8D0" stroke-width="3"/><path d="M44.894 10.528c-3.348 1.14-7.124 1.14-11.256 0-.142.927-.285 1.853-.427 2.85-.072.641-.143 1.211-.214 1.852-.071.499-.356.713-.855.641-.427-.07-.641-.427-.57-.854.285-2.066.57-4.132.998-6.198.07-.428.57-.926.997-1.069a13.597 13.597 0 012.92-.784c2.423-.356 4.774-.284 7.196.285.214.072.427.143.712.214 1.069.285 1.639.926 1.853 2.066.926 4.63 1.567 9.261 1.424 13.963-.07 3.633-.498 7.195-1.994 10.544a10.808 10.808 0 01-1.995 3.063c-1.496 1.638-2.493 3.49-2.707 5.699 0 .285-.143.712-.285.855-.428.356-.428.783-.428 1.282v12.325c0 1.21.428 2.208 1.069 3.134.428.641 1.14.855 1.852.997.713.143 1.425.285 2.138.5 1.068.284 1.852.996 2.493 1.851.214.285.214.784.142 1.14-.07.428-.57.57-.997.57H32c-.428 0-.926-.142-.998-.57-.07-.356-.07-.855.143-1.14.926-1.353 2.28-1.994 3.847-2.208 2.493-.356 3.775-1.852 3.775-4.417V44.581c0-.285-.213-.57-.285-.855-.142-.285-.356-.57-.356-.855-.213-2.066-1.068-3.847-2.422-5.343-2.066-2.35-3.063-5.129-3.704-8.05-.57-2.707-.713-5.414-.713-8.121 0-.214.072-.57.214-.712.142-.143.57-.285.712-.143.214.143.428.499.5.712.142 1.568.142 3.206.284 4.773.285 3.064.926 5.985 2.422 8.763 1.852 3.348 6.34 3.42 8.335.142 1.425-2.35 2.066-4.986 2.351-7.765.641-5.485 0-10.828-.997-16.171-.143-.214-.214-.285-.214-.428zm.997 53.501s0-.071.072-.071c-.285-.142-.5-.427-.784-.499-.712-.213-1.425-.427-2.209-.57-1.495-.285-2.707-.926-3.419-2.35-.071-.072-.071-.143-.142-.214h-.072c-.07.071-.142.142-.142.213-.712 1.354-1.924 2.067-3.348 2.28a7.232 7.232 0 00-1.781.428c-.428.142-.784.427-1.211.64 0 .072.07.072.07.143h12.966zm-1.21-56.208c-3.064-1.282-7.908-1.21-10.83 0-1.281.57-1.281 1.924.072 2.422 3.562 1.283 6.982 1.354 10.615 0 1.353-.57 1.425-1.923.142-2.422zm-6.483 30.776c.427 1.21.854 2.493 1.21 3.49.357-.997.784-2.28 1.14-3.49h-2.35z" fill="#fff" stroke="#fff" stroke-miterlimit="10"/><path d="M33.638 22.64v-1.07c0-.498.214-.783.713-.783.498 0 .712.356.783.784 0 .926 0 1.78.143 2.707.142 1.282.356 2.564.57 3.918.071.57-.071.926-.499 1.068-.427.072-.783-.213-.855-.783l-.855-5.77c-.07-.072 0-.072 0-.072zm1.568-4.56v.855c0 .427-.285.712-.713.712-.427 0-.712-.285-.712-.712v-1.781c0-.428.285-.713.712-.713.428 0 .712.285.712.713v.926z" fill="#fff"/></svg>