<svg width="79" height="72" fill="none" xmlns="http://www.w3.org/2000/svg"><rect x="1.5" y="1.5" width="76" height="69" rx="5.5" fill="#81D8D0" stroke="#81D8D0" stroke-width="3"/><path d="M40.823 60.598h-3.05c-.15-.05-.3-.05-.45-.1-1-.15-2.05-.25-3.05-.45-5.85-1.25-10.65-4.25-14.25-9.05-4.35-5.75-5.9-12.2-4.55-19.25 1.15-6.1 4.25-11.05 9.2-14.8 5.55-4.2 11.8-5.7 18.65-4.6 4.6.75 8.65 2.7 12.15 5.8 4.2 3.75 6.8 8.4 7.8 13.95.15.9.25 1.8.35 2.65v3.05c-.05.6-.15 1.2-.2 1.8-.7 4.85-2.65 9.15-5.9 12.8-3.75 4.2-8.4 6.8-13.95 7.8-.95.15-1.85.25-2.75.4zm19.9-24.3c0-11.8-9.65-21.45-21.45-21.45-11.8 0-21.4 9.6-21.4 21.4 0 11.8 9.6 21.45 21.45 21.45 11.75.05 21.4-9.6 21.4-21.4z" fill="#fff"/><path d="M33.273 45.298h-1.45c-.95 0-1.55-.55-1.55-1.4 0-.85.65-1.45 1.6-1.45h1.45v-3.25h-1.45c-.95 0-1.55-.55-1.55-1.4 0-.85.65-1.45 1.6-1.45h1.45v-10.5c0-1.15.5-1.65 1.65-1.65 2.6 0 5.2-.05 7.8.05 4 .15 7.1 3.5 7.1 7.5 0 4.1-3.35 7.45-7.45 7.45h-6.25v3.25h6.05c1.15 0 1.85 1 1.45 2-.25.6-.75.85-1.4.85h-6.1v3.15c-.05.85-.65 1.45-1.45 1.45-.8 0-1.35-.65-1.35-1.45-.15-1-.15-2.05-.15-3.15zm2.9-8.9h6.6c.15 0 .3-.05.45-.1 2.2-.4 3.8-2.45 3.75-4.7-.05-2.3-1.8-4.3-4-4.45-2.25-.15-4.5-.05-6.75-.05-.05 0-.05.05-.1.05.05 3 .05 6.1.05 9.25z" fill="#fff"/></svg>