<svg width="80" height="72" fill="none" xmlns="http://www.w3.org/2000/svg"><rect x="1.5" y="1.5" width="77" height="69" rx="6.5" fill="#81D8D0" stroke="#81D8D0" stroke-width="3"/><g clip-path="url(#clip0_70_1108)" fill="#fff"><path d="M6 50.156c.524-2.627 2.868-3.28 4.9-4.34-1.393-.653-2.573-1.42-3.458-2.578-.311-.408-.508-.816-.295-1.322.64-1.55.689-3.214.803-4.846.115-1.583.082-3.182.41-4.716 1.246-5.71 7.572-8.435 12.374-5.352 2.41 1.55 3.671 3.851 3.95 6.658.197 1.99.246 3.981.426 5.972.066.718.295 1.436.524 2.137.197.588.099 1.045-.262 1.518-.885 1.126-2.016 1.892-3.36 2.513.476.424.836.473 1.443.212 1.77-.767 3.605-1.387 5.425-2.056.622-.229 1.294-.327 1.491-1.142.05-.196.312-.36.475-.539.361-.375.721-.75 1.082-1.142.443-.49.443-3.46-.033-3.9-2.556-2.382-3.835-5.352-3.851-8.811-.017-1.403-.312-2.709-.64-4.063-.704-3.035-.884-6.135.541-9.04 1.59-3.23 4.278-5.09 7.867-5.221 5.032-.163 10.08-.065 15.111-.049.722 0 1.115.375 1.115 1.093 0 3.655.016 7.294-.05 10.949-.016.914-.163 1.893-.507 2.741-.492 1.191-.492 2.399-.492 3.639 0 1.958-.311 3.883-1.328 5.564-.688 1.142-1.573 2.17-2.442 3.182-.278.326-.475.587-.426 1.011v.131c-.278 1.713.164 3.15 1.623 4.194.065.048.164.114.18.195.213.947 1.066 1.012 1.77 1.29 1.18.44 2.36.897 3.557 1.272.426.13.917.082 1.376.049.295-.016.59-.163.885-.245 1.279-.359 1.295-.359 1.213-1.68-.016-.212-.13-.474-.278-.588-1.967-1.648-2.918-3.753-2.836-6.282.033-.848-.196-1.599-.557-2.366-1.655-3.59 1.016-8.158 4.982-8.354 3.328-.163 6.67-.098 9.998-.114.688 0 1.13.326 1.13.93.017 1.99 0 3.997-.081 5.988-.016.571-.23 1.159-.492 1.664-.377.718-.475 1.453-.459 2.252.082 2.562-.786 4.716-2.852 6.331-.557.44-.245 1.06-.229 1.583 0 .18.426.424.705.506 1.163.359 2.344.669 3.507 1.028C71.885 46.615 73 48.1 73 50.124c.016 2.578.016 5.172 0 7.75 0 .718-.393 1.159-.983 1.159-.574 0-.951-.44-.984-1.159v-7.359c0-1.648-.491-2.317-2.081-2.774-1.197-.342-2.377-.701-3.59-.995-.196-.049-.458.082-.671.147-.05.016-.099.081-.148.13-.672.686-1.59 1.257-1.934 2.073-.344.8-.098 1.843-.098 2.774v5.727c0 .228-.017.473-.066.701-.13.49-.492.735-.967.702-.508-.033-.852-.343-.901-.865-.033-.424-.017-.865-.017-1.305 0-2.317-.016-4.65.017-6.968 0-.554-.099-.995-.557-1.354-.427-.359-.803-.783-1.213-1.19-.787-.784-.787-.784-1.852-.344.213.294.426.572.623.882.524.848.77 1.794.77 2.79.016 2.382.033 4.78-.017 7.163 0 .375-.262.816-.557 1.06-.18.147-.754.115-.934-.065-.262-.245-.426-.701-.443-1.077-.032-2.284-.016-4.552-.016-6.836 0-1.828-.721-2.856-2.458-3.492-1.983-.718-3.967-1.436-6.032-2.187-.475.702-.95 1.42-1.442 2.138-.393.57-.77 1.158-1.163 1.73-.853 1.19-2.197 1.321-3.262.326-.475-.457-.901-.93-1.492-1.55-.016.424-.049.652-.049.88v8.796c0 1.028-.344 1.533-1.016 1.5-.655-.032-.934-.489-.934-1.517v-9.643l-1.393 1.387c-1.246 1.224-2.573 1.093-3.557-.36-.82-1.207-1.622-2.414-2.458-3.67-1.754.636-3.49 1.256-5.212 1.876-2.852 1.044-3.278 1.648-3.278 4.683v5.727c0 .212 0 .44-.016.653-.066.522-.41.816-.918.848-.475.017-.836-.244-.95-.734a3.388 3.388 0 01-.066-.701v-6.12c0-1.778.066-2.072.721-3.59-.901-.7-.901-.7-1.688.066-1.754 1.664-3.606 2.023-5.376.963-.59-.36-1.065-.898-1.622-1.306-.164-.114-.476-.179-.656-.097-.934.424-1.835.897-2.753 1.354-.935.457-1.377 1.207-1.36 2.252.016 2.251.016 4.52 0 6.771 0 .8-.525 1.322-1.148 1.126-.295-.098-.54-.392-.803-.587v-8.257zM50.006 12.04c-.05-.017-.115-.05-.164-.05-4.639 0-9.293-.065-13.931.033-3.245.082-6.048 2.464-6.72 5.613-.475 2.252-.508 4.57.279 6.756.426 1.207.524 2.382.524 3.622-.016 1.648.279 3.23.983 4.732 1.738 3.704 5.409 5.776 9.637 5.417 3.72-.31 7.163-3.214 8.048-6.983.344-1.502.245-3.1.377-4.65a7.22 7.22 0 01.245-1.323c.246-1.044.689-2.088.722-3.149.098-3.296.049-6.592.065-9.888 0-.049-.033-.081-.065-.13zm17.897 15.664c-.197-.016-.328-.049-.443-.049-2.622 0-5.228-.016-7.85 0-.41 0-.836.049-1.23.147-2.622.636-4.031 3.655-2.687 5.956.393.669.54 1.387.557 2.17.016.93.033 1.893.311 2.757.738 2.187 2.311 3.46 4.655 3.704 1.868.196 3.95-.946 4.95-2.692.672-1.191.704-2.48.704-3.786 0-.473-.065-1.028.164-1.403 1.295-2.137.721-4.487.869-6.804zm-57.888 8.42c.87.081 1.131.62 1.131 1.386 0 .115.033.213.05.327.245 2.3 2.294 4.373 4.867 4.552 2.262.163 4.54-1.256 5.36-3.459.245-.685.213-1.256-.246-1.876-1.262-1.714-3.032-2.513-5.048-2.954-.967-.212-1.738-.081-2.311.783-.131.196-.328.36-.492.523-.459.424-1.016.456-1.41.114-.41-.375-.425-.98 0-1.452.525-.572 1.066-1.159 1.64-1.681.213-.196.573-.359.868-.359 2 .016 3.917.408 5.605 1.485 1.017.653 1.918 1.501 2.803 2.203a8.11 8.11 0 00-1.836-5.956c-2.016-2.399-5.949-2.725-8.358-.734-2.262 1.843-2.688 4.356-2.623 7.098zM34.19 38.88c0 .555-.033.98.016 1.403.033.229.164.506.344.62a177.943 177.943 0 004.639 3.15c.163.098.508.098.655 0a230.798 230.798 0 004.638-3.15c.18-.13.312-.407.345-.62.049-.424.016-.848.016-1.37-3.573 1.68-7.048 1.713-10.653-.033zm9.407 9.187c.803-1.191 1.59-2.366 2.36-3.525.722-1.077.722-1.077-.213-1.958-.032-.032-.082-.016-.163-.049-1.492 1.012-3 2.04-4.458 3.035.835.849 1.639 1.648 2.474 2.497zm-5.67-2.48a530.08 530.08 0 00-4.639-3.15c-.163.212-.278.44-.458.571-.46.343-.394.653-.082 1.077.655.898 1.245 1.828 1.852 2.742.278.424.573.832.852 1.24.836-.849 1.639-1.648 2.475-2.48zm-23.634-1.339c-.098 1.077-.393 2.268 1.016 2.938.82.391 1.557.358 2.36-.066 1.393-.718.984-1.876.869-2.888-1.41.017-2.82.017-4.245.017zM61.495 47.3c.639-.653 1.147-1.224 1.72-1.714.492-.424.64-.88.427-1.452-.705.082-1.377.229-2.065.229-.705 0-1.41-.147-2.23-.261.033.359-.049.816.148 1.06.574.735 1.279 1.387 2 2.138zm-49.25-3.1c.114-.67.081-1.175-.541-1.616-.46-.31-.804-.783-1.148-1.224-.311-.391-.557-.848-.836-1.305-.163.669-.344 1.273-.459 1.893a.737.737 0 00.148.555c.787.815 1.737 1.338 2.835 1.697zm8.358.016c1.114-.375 2.065-.898 2.852-1.713.098-.098.213-.261.196-.376-.147-.669-.344-1.338-.491-1.892-.656.783-1.246 1.648-2 2.333-.524.473-.72.914-.557 1.648z"/><path d="M68.804 54.888c0 .98.017 1.942 0 2.92-.016.735-.41 1.208-1 1.192-.573-.016-.95-.457-.95-1.175v-5.841c0-.751.393-1.192 1-1.175.59.016.95.44.967 1.158 0 .963-.017 1.942-.017 2.921zm-56.642.702v2.202c0 .751-.393 1.208-.983 1.208-.574 0-.967-.457-.967-1.158a216.705 216.705 0 010-4.618c0-.702.41-1.126 1-1.126.59 0 .95.424.967 1.142-.017.783-.017 1.566-.017 2.35zm37.926.342c0-.652-.017-1.305 0-1.958.016-.669.393-1.077.967-1.077.557 0 .967.408.983 1.077.016 1.322.016 2.644 0 3.965-.016.653-.459 1.077-1.016 1.06-.557-.015-.918-.44-.934-1.109-.017-.669 0-1.321 0-1.958zm-21.159.033c0 .669.016 1.338 0 2.023-.016.588-.328.93-.901 1.012-.509.065-1-.359-1.033-.963a87.981 87.981 0 010-4.16c.016-.62.459-.996 1-.98.54.017.901.408.934 1.045.016.669 0 1.338 0 2.023zm4.211-34.723c0 .735.017 1.404 0 2.073-.016.783-.376 1.19-.999 1.19-.59-.015-.95-.407-.967-1.158-.016-.734-.033-1.468.033-2.203.066-.946.738-1.696 1.672-1.827 3.343-.49 6.687-.62 9.997.13 1.705.376 3.278 1.061 4.556 2.285.46.44.509.963.18 1.387-.343.424-.933.506-1.392.098-1.852-1.648-4.114-2.056-6.458-2.252-2.196-.196-4.36-.033-6.621.277zm32.501 11.455c.016.865-.574 1.387-1.196 1.158-1.983-.734-4.065-.864-6.146-.995-.558-.033-.869-.375-.885-.93-.017-.538.344-.963.934-.963 2.245.017 4.474.164 6.572 1.077.344.13.574.506.721.653z"/></g><defs><clipPath id="clip0_70_1108"><path fill="#fff" transform="translate(6 10)" d="M0 0h67v49H0z"/></clipPath></defs></svg>