<svg width="79" height="72" fill="none" xmlns="http://www.w3.org/2000/svg"><rect x="1.5" y="1.5" width="76" height="69" rx="5.5" fill="#81D8D0" stroke="#81D8D0" stroke-width="3"/><path d="M19.764 25.194c-.497-1.605-.15-2.959 1.093-4.012-.05-.1-.1-.15-.199-.25-2.037-2.207-2.484-4.915-1.192-7.672.348-.703.795-1.354 1.242-2.006 1.044-1.404 2.485-1.404 3.975-1.053 1.292.3 2.385 1.053 3.23 2.056 1.69 1.955 3.28 4.011 4.969 6.017.05.1.15.15.199.25.596 1.004 1.341 1.655 2.584 1.355.298-.05.695.05.993.2.497.251.795.05 1.143-.3 2.485-2.408 5.069-4.764 8.1-6.47a19.93 19.93 0 013.329-1.504c1.789-.601 3.03.502 2.931 2.407 0 .351.15.702.2 1.104.347 2.106-.1 4.061-1.243 5.866-.1.1-.15.251-.248.351.844 1.204 1.093 2.508.646 4.012.596.1 1.142.25 1.689.351.845.2 1.69.351 2.484.552.249.05.497.25.696.4.15.101.248.201.398.201 3.23.652 5.267 2.708 6.608 5.566.249.502.497.702 1.093.702 1.988 0 3.429 1.003 4.423 2.708 1.093 1.856 1.242 3.912.894 6.018-.497 3.31-1.888 6.268-4.025 8.825-.149.2-.596.351-.894.3-1.49-.25-2.981-.55-4.422-.801-1.59-.301-3.18-.552-4.87-.853v3.31c0 2.206-.994 3.66-3.031 4.362-5.068 1.856-10.286 3.26-15.553 4.664-1.242.3-2.435 0-3.577-.351l-12.82-3.912c-.795-.25-1.64-.45-2.485-.702-1.987-.601-3.18-2.106-3.18-4.212a2013.7 2013.7 0 01-.248-17.55c0-.351.05-.702-.398-.953-.149-.05-.248-.401-.248-.652 0-2.056-.05-4.162-.05-6.318 0-.502.248-.702.696-.802a379.08 379.08 0 015.068-1.204zm16.944 35.452c2.534-.702 5.068-1.404 7.652-2.106.15-.05.298-.3.298-.451.05-1.003.15-2.056.15-3.059-.05-5.767-.1-11.483-.1-17.25 0-.2-.05-.35-.05-.601-2.633.551-5.217 1.053-7.9 1.604-.05 7.271-.05 14.542-.05 21.863zm-1.292.1v-5.014c0-5.466.05-10.931.05-16.397 0-.452-.1-.602-.547-.702-.993-.2-1.938-.452-2.931-.652-1.54-.351-3.032-.652-4.622-1.003-.05.2-.05.351-.05.451-.099 6.67 0 13.238.597 19.757.1 1.354.15 1.354 1.391 1.705a561.12 561.12 0 006.112 1.856zm27.528-25.824c-1.44.602-2.286 1.855-2.335 3.51-.05 1.354-.746 1.805-1.988 1.204-1.342-.652-2.633-.552-3.826.3-1.441 1.054-2.137 2.508-1.938 4.313.199 1.855 1.143 3.21 2.882 3.861.944.351 1.988.502 3.031.702 1.839.351 3.677.702 5.516 1.003.298.05.646.2.944-.2 2.186-2.909 3.528-6.118 3.478-9.829-.05-1.504-.447-2.858-1.54-3.961-.795-.803-1.69-1.204-2.932-1.154.348.702.15 1.605.994 2.056.447.251.447 1.053.149 1.505-.298.501-.845.651-1.391.501-.497-.2-.895-.752-.696-1.203.397-1.053-.15-1.806-.348-2.608zM22.497 56.835v-.551c-.15-3.009-.348-6.018-.398-9.026-.05-3.56 0-7.12 0-10.731 0-.401-.099-.602-.497-.652-.993-.15-1.937-.401-2.931-.602-.895-.2-1.789-.35-2.683-.552v.753c.05 2.507.099 4.964.099 7.471l.149 9.728c0 1.254.547 2.357 1.74 2.808 1.44.552 2.98.903 4.52 1.354zm-1.54-43.726c-.895 1.705-1.243 3.31-.547 5.065.398 1.053 1.093 1.855 1.988 2.507.198.15.397.501.397.752 0 .2-.348.351-.547.502-.248.2-.596.3-.795.501-.645.652-.695 1.705-.198 2.608.745 1.354 3.08 2.958 5.267 2.106 1.44-.602 2.981-1.003 4.422-1.505.15-.05.298-.1.447-.2-.944-1.805-.695-3.36.795-4.714-4.223-1.905-8.248-3.911-11.23-7.622zm17.142 13.289c.249.1.448.15.646.25 1.64.602 3.33 1.204 4.97 1.855 2.037.853 1.689.402 1.838 2.558.546 8.173.795 16.297.497 24.52-.05.803 0 1.655 0 2.508.745-.25 1.49-.502 2.285-.702.348-.1.547-.25.547-.652.05-1.905.248-3.76.199-5.666-.1-4.764-.199-9.528-.398-14.292-.1-2.407-.348-4.814-.546-7.22-.05-.803-.398-1.154-1.193-1.354-.199-.05-.447-.1-.646-.15-1.987-.803-4.025-1.555-6.012-2.358-.447-.15-.895-.35-1.342-.501-.298.351-.547.752-.845 1.204zm-11.478 31.69v-.5c-.149-2.809-.397-5.567-.497-8.375a176.026 176.026 0 01.298-19.155c.05-.552.249-.852.795-1.003 1.243-.401 2.485-.852 3.677-1.253.646-.251 1.243-.502 1.889-.753 0-.1-.05-.15-.05-.25-.348 0-.696-.1-.994 0-2.435.802-4.87 1.654-7.354 2.457-.547.15-.745.451-.745 1.003-.1 3.961-.398 7.973-.348 11.934.05 4.864.298 9.778.497 14.642 0 .15.1.452.248.502.845.25 1.69.501 2.584.752zm12.174-36.454c.15.652.298 1.153.348 1.705.05.4.149.501.497.652 1.391.551 2.832 1.203 4.223 1.755 1.093.4 2.236.852 3.429 1.103 1.49.35 2.733-.451 3.08-1.805.25-1.003.05-1.956-.596-2.758-.497-.602-.447-.702-.05-1.354.498-.803.945-1.655 1.243-2.558.348-1.003.298-2.106 0-3.26a55.995 55.995 0 01-12.174 6.52zm11.13 14.19c.398 6.97.597 13.89.249 20.911.696-.25 1.342-.451 1.987-.702 1.54-.552 2.236-1.504 2.236-3.109 0-1.153 0-2.357.05-3.51 0-.351-.1-.602-.397-.803-1.441-1.052-2.236-2.456-2.385-4.262-.2-2.607.894-4.613 3.13-5.917v-3.66c-1.64.35-3.23.702-4.87 1.053zM35.367 37.43v-5.716c-.746-.15-1.392-.301-2.087-.451-1.64-.352-3.28-.703-4.87-1.003-.447-.1-.745-.05-.696.551 0 .351-.05.752-.05 1.103-.05 1.254-.149 2.508-.198 3.811 2.633.552 5.267 1.154 7.9 1.705zm8.894-7.02l-.1-.05c-2.385.401-4.82.802-7.205 1.253-.099 0-.248.201-.248.301v5.516c2.733-.551 5.267-1.053 7.9-1.604-.148-1.856-.248-3.66-.347-5.416zm-21.764-1.304c-2.435-.4-4.77-.852-7.155-1.253v5.415c1.192.251 2.335.502 3.478.702 1.143.251 2.236.452 3.379.702.05-1.855.149-3.66.298-5.566zm40 4.563c-1.242-2.958-3.826-5.215-5.764-5.215v4.213c0 .651.248 1.404-.547 1.805-.05 0-.05.1-.05.15v3.16c1.094.15 2.137.3 3.23.5.15-2.055 1.094-3.71 3.13-4.613zm-12.67.853c1.887-.401 3.726-.802 5.614-1.254-.05-1.755-.15-3.41-.199-5.165-1.987.452-3.925.853-5.863 1.304.149 1.705.298 3.36.447 5.115zM21.751 12.006c2.633 3.46 6.21 5.365 9.987 7.12a19.573 19.573 0 00-1.49-2.055c-1.193-1.455-2.386-2.909-3.678-4.263-.596-.601-1.49-1.053-2.335-1.354-.795-.25-1.74-.35-2.484.552zm13.366 14.392c.547-.201 1.143-.351 1.64-.703.844-.551 1.192-1.404 1.143-2.356-.05-.903-.547-1.605-1.392-1.956-1.292-.552-2.534-.351-3.677.501-.546.402-.795.953-.795 1.655.05 1.505 1.392 2.758 3.081 2.858zm6.956 2.958c0-.05.05-.1.05-.1-1.49-.502-2.981-.953-4.472-1.605-1.043-.451-2.087-.2-3.03.05-1.392.351-2.734 1.053-4.175 1.655 1.441.3 2.832.602 4.174.903.497.1.994.3 1.441.2 2.037-.35 4.025-.752 6.013-1.103zM50.77 13.56c-.149-.551-.447-.702-.894-.601-.298.05-.596.15-.895.25-3.528 1.405-6.41 3.811-9.142 6.419 0 0 0 .05.05.15A48.967 48.967 0 0050.77 13.56zM21.453 27.6c-.248-.3-.546-.65-.844-1.002a.535.535 0 00-.348-.15c-.696.15-1.391.3-2.087.501v.1c1.143.15 2.286.402 3.28.552zm31.503-.3v-.1c-.596-.1-1.142-.25-1.739-.351-.149 0-.298 0-.447.1-.546.401-1.143.802-1.64 1.203 1.243-.3 2.535-.551 3.826-.852z" fill="#fff"/></svg>