<svg width="79" height="72" fill="none" xmlns="http://www.w3.org/2000/svg"><rect x="1.5" y="1.5" width="76" height="69" rx="5.5" fill="#81D8D0" stroke="#81D8D0" stroke-width="3"/><path d="M71.61 56.122c-.257.514-.642.642-1.22.642H57.604v5.269c0 .45-.13.835-.515.9-.321.064-.77-.065-1.028-.257a94.045 94.045 0 01-2.891-2.378c-.964.771-1.864 1.542-2.763 2.313-.321.257-.707.515-1.157.322-.45-.257-.514-.643-.514-1.093v-5.139H9.414C8.193 56.7 8 56.506 8 55.286V16.414C8 15.257 8.257 15 9.35 15h60.975c.579 0 1.093.064 1.35.643-.065 13.493-.065 26.986-.065 40.479zm-57.892-8.16c2.25.321 2.828 1.478 3.02 2.955h31.998v-3.405c0-.514-.128-.9-.514-1.285-1.992-2.056-2.313-5.269-.9-7.775 1.414-2.505 4.306-3.92 7.133-3.34 2.57.513 4.37 2.055 5.14 4.625.771 2.506.193 4.755-1.542 6.683-.128.128-.321.385-.321.514v3.983H63c.192-1.863 1.22-2.763 2.955-2.955V23.738c-1.799-.192-2.827-1.156-3.02-2.955H16.738c-.064.835-.257 1.606-.9 2.056-.577.45-1.284.707-2.055 1.092-.064 7.903-.064 16-.064 24.03zm56.093 7.003V16.863H9.671v38.102h38.937v-2.184H16.16c-1.092 0-1.285-.257-1.285-1.285 0-1.35-.321-1.67-1.67-1.67-1.093 0-1.35-.258-1.35-1.286V23.417c0-1.092.257-1.35 1.35-1.35 1.285 0 1.606-.32 1.606-1.605 0-1.157.193-1.35 1.413-1.35h46.97c1.22 0 1.413.193 1.413 1.414 0 1.22.321 1.542 1.606 1.606 1.157 0 1.414.193 1.414 1.35v24.544c0 1.735 0 1.735-1.735 1.863-.835.065-1.22.45-1.22 1.285v.45c0 .964-.258 1.221-1.222 1.221h-5.783v2.185c4.048-.065 8.096-.065 12.144-.065zM58.117 41.73c0-2.763-2.248-4.947-5.011-4.947s-5.012 2.249-4.948 5.012c0 2.762 2.249 4.947 5.012 4.947 2.698 0 4.947-2.249 4.947-5.012zm-7.646 18.505c.707-.578 1.285-1.028 1.864-1.542.706-.578.963-.578 1.67 0 .578.45 1.157.964 1.8 1.478V47.897c-1.8.707-3.535.707-5.334 0v12.337z" fill="#fff"/><path d="M39.741 26.758H18.794c-.514 0-.899-.321-.899-.835s.321-.835.835-.9h41.508c.257 0 .514 0 .77.065.45.128.643.45.643.9-.064.449-.321.706-.77.77H39.74zm.064 2.313h20.497c.9 0 1.35.257 1.35.836 0 .578-.45.9-1.35.9H18.924c-.643 0-1.029-.386-1.029-.9s.386-.836 1.028-.836h20.882zM23.357 43.914c.835-1.028 1.606-2.12 2.505-3.149.193-.257.514-.45.771-.514.579-.128.964.322.964 1.028v3.02c.578-.321 1.221-.706 1.863-1.028a2.924 2.924 0 011.286-.321c.9-.064 1.863 0 2.827 0 .642 0 1.028.386 1.028.9s-.386.9-1.093.835c-2.12-.257-4.048.321-5.718 1.542-.193.128-.45.257-.707.385-.77.386-1.413 0-1.413-.835 0-.578.064-1.156.064-1.928l-.514.515a98.168 98.168 0 00-2.377 3.084c-.322.385-.643.642-1.157.45-.514-.193-.578-.643-.514-1.157.064-.578.128-1.157.257-1.863-.707.578-1.35 1.156-1.928 1.67-.578.45-1.349.257-1.478-.385-.064-.322.193-.707.386-.964.707-.707 1.478-1.285 2.185-2.056.45-.514.835-1.093 1.22-1.607.257-.45.643-.642 1.093-.45.45.13.642.515.578.965-.064.642-.128 1.22-.193 1.863h.064zm3.662-9.06H19.05c-.32 0-.706-.064-.9-.257-.513-.45-.256-1.156.386-1.35.193-.063.45-.063.707-.063h16.064c.579.064.964.385.9.9 0 .513-.386.834-.964.834H30.04c-1.028-.064-2.056-.064-3.02-.064z" fill="#fff"/></svg>