<svg width="79" height="72" fill="none" xmlns="http://www.w3.org/2000/svg"><rect x="1.5" y="1.5" width="76" height="69" rx="5.5" fill="#81D8D0" stroke="#81D8D0" stroke-width="3"/><path d="M56.444 21.332c.551.15.852.25 1.203.351 3.155 1.052 5.208 3.857 5.258 7.362.05 4.258 0 8.515 0 12.772 0 1.602-1.352 3.355-3.806 2.704-.2 4.858-.45 9.666-.651 14.575h7.211c.552.1.852.4.852.951 0 .501-.35.802-.851.852H13.973c-1.001 0-1.452-.3-1.452-.902 0-.65.45-.901 1.452-.901h2.955V38.46c-.05 0-.1-.05-.15-.05-1.603-.25-2.454-1.202-2.454-2.805V12.418c0-1.653 1.102-2.755 2.755-2.755h26.844c1.703 0 2.805 1.102 2.805 2.905v11.519c1.302-1.452 2.755-2.254 4.608-2.654-.2-.2-.3-.3-.45-.35-1.053-.552-1.503-1.453-1.503-2.655V13.87c0-.4-.1-.701-.401-1.052a4.19 4.19 0 01-1.352-2.955c-.05-.75.3-1.102 1.051-1.102h6.812c1.653 0 2.905 1.253 2.905 2.855.05 2.354 0 4.708 0 7.062 0 1.052-.501 1.803-1.353 2.304-.2.05-.3.15-.6.35zm-11.569 8.965V12.768c0-1.202-.2-1.352-1.402-1.352H17.529c-1.302 0-1.452.15-1.452 1.402v22.338c0 1.252.2 1.452 1.452 1.452h26.494c.502-.05.802-.3.802-.851-.05 0-.1-.05-.15-.05h-3.306c-1.602 0-2.804-1.152-2.855-2.705 0-1.553 1.203-2.705 2.855-2.705h3.506zm-4.507 28.749V38.41H21.536v20.635h18.832zm10.768-35.71c-1.854.25-3.807 2.103-4.258 4.207-.2 1.102-.15 2.254-.2 3.406-.05.851-.3 1.151-1.102 1.151h-1.552v1.753h4.457v-3.455c0-.601.4-1.002.902-1.002.5 0 .901.4.901 1.002v8.865h7.212v-9.316c0-.2 0-.45.05-.651.05-.501.401-.802.902-.751.5 0 .801.3.851.851v9.917h1.803c0-3.606.1-7.112-.05-10.668-.1-2.555-1.552-4.257-3.956-5.159-.15-.05-.3-.05-.451-.1-.45 1.653-1.352 2.454-2.655 2.504-1.352-.05-2.253-.851-2.854-2.554zm-1.803 35.76c-.3-7.813-.651-15.576-.952-23.34h-1.653c-.1 1.002-.45 1.804-1.352 2.254-.4.2-.5.451-.5.852v20.233h4.457zm3.656-.05V45.273c0-.25-.05-.601.05-.752.2-.3.55-.6.851-.65.451-.1.802.25.852.7.05.2 0 .451 0 .651v13.824h1.853c.25-6.01.55-11.92.801-17.88h-7.112c.25 6.01.551 11.92.802 17.88h1.903zM51.186 14.12v4.458c0 .55.35.851.851.901.651.05.902.451.902 1.052v2.454c0 .651.4 1.002.901 1.002s.852-.4.902-1.002v-2.454c0-.6.25-.951.901-1.052.701-.1.952-.5.952-1.151V14.07c-1.853.05-3.556.05-5.41.05zM18.832 38.411v20.635h.851V38.41h-.851zm24.19 20.635V38.41h-.801v20.635h.801zm6.561-48.532c.4.952 1.052 1.603 1.903 1.653 1.653.1 3.356.05 5.059.05.15-1.001-.2-1.703-1.052-1.703h-5.91zm9.716 30.652c0 .65-.15 1.302.451 1.602.25.1.701.1.901-.05.601-.35.401-1.001.401-1.552H59.3zM42.171 32.15c-.651 0-1.303-.2-1.603.45-.15.25-.1.702.05.952.35.601 1.002.35 1.553.35V32.15z" fill="#fff"/><path d="M28.498 18.578h3.355c1.102.05 2.054.851 2.204 1.903.15 1.102-.45 2.154-1.553 2.454-.3.1-.6.1-.901.1h-2.955c.1 1.302-.25 2.555.3 3.807a224.314 224.314 0 012.655 6.11c.4 1.002.15 2.053-.701 2.654-.802.601-1.903.651-2.705.05-.35-.3-.6-.7-.801-1.101-.5-1.102-.952-2.204-1.503-3.456-.55 1.252-1.001 2.354-1.502 3.506-.35.851-.952 1.352-1.903 1.452-1.753.2-2.955-1.502-2.254-3.155.751-1.803 1.452-3.606 2.304-5.31.751-1.451.55-2.954.6-4.557h-3.255c-1.001-.05-1.803-.7-2.053-1.703-.25-.951.15-1.953 1.052-2.404.4-.2.851-.3 1.302-.35 1.052-.05 2.103 0 3.155 0-1.452-2.204-1.402-4.057.1-5.36 1.353-1.201 3.356-1.251 4.708-.1 1.753 1.353 1.803 3.156.35 5.46zm-2.504 1.853h-5.56c-.35 0-.751-.05-.751.45 0 .451.4.451.701.451h3.406c.951 0 1.152.3 1.252 1.203.2 2.654-.15 5.208-1.553 7.512-.1.15-.15.35-.25.55a77.786 77.786 0 00-1.302 3.006c-.05.15.1.45.2.651.2-.1.45-.2.601-.3.1-.05.1-.25.15-.351.702-1.653 1.403-3.256 2.054-4.908.2-.451.45-.852.951-.752.351.1.702.401.902.752.45.851.751 1.753 1.152 2.654.35.852.701 1.753 1.102 2.605.1.15.4.25.6.35.1-.2.201-.45.201-.65 0-.151-.1-.301-.15-.402-.852-2.003-1.753-4.006-2.605-6.06-.15-.35-.25-.7-.25-1.052-.05-1.201 0-2.404 0-3.605 0-.902.3-1.152 1.202-1.152h3.406c.35 0 .7 0 .751-.451 0-.501-.4-.451-.701-.451-1.803-.05-3.656-.05-5.51-.05zm1.803-4.508a1.795 1.795 0 00-1.803-1.803c-1.002 0-1.803.852-1.803 1.803 0 .952.8 1.753 1.753 1.753 1.051 0 1.803-.75 1.853-1.753zm11.719 4.507h-3.205c-1.202 0-1.553-.65-1.002-1.652 1.102-1.903 2.204-3.856 3.306-5.76.5-.901 1.302-.901 1.803 0a225.861 225.861 0 013.355 5.91c.501.852.1 1.503-.901 1.553-1.152-.05-2.254-.05-3.356-.05zm2.004-1.852c-.702-1.202-1.353-2.354-2.054-3.556-.701 1.252-1.352 2.354-2.053 3.556h4.107zm-2.505 5.409H36.06c-.65 0-1.001-.3-1.052-.851 0-.551.351-.952 1.002-.952h6.06c.651 0 1.002.35 1.002.901s-.35.902-1.052.902h-3.005zm-1.302.952h1.703c.6 0 .901.3.952.851.05.5-.351.902-.902.902-1.202.05-2.354 0-3.556 0-.55 0-.901-.3-.901-.902 0-.5.35-.851.951-.851.601-.05 1.152 0 1.753 0z" fill="#fff"/></svg>