<svg width="79" height="72" fill="none" xmlns="http://www.w3.org/2000/svg"><rect x="1.5" y="1.5" width="76" height="69" rx="5.5" fill="#81D8D0" stroke="#81D8D0" stroke-width="3"/><path d="M50.043 10c1.217.221 2.268.94 3.32 1.55 2.434 1.438 4.923 2.876 7.357 4.37 1.715.996 1.992 2.877.554 4.315-1.162 1.106-2.49 1.383-3.984.885-.221-.055-.498-.221-.719-.277-.276.332-.553.72-.83.996-1.217 1.051-2.545 1.273-4.038.664-.775-.332-1.494-.72-2.269-1.106-.885 1.272-2.157 1.88-3.706 1.77-.056.553 0 1.106-.111 1.604-.332 1.715-1.77 2.933-3.54 2.933-2.324 0-4.648.055-7.027 0-1.77-.056-3.43-.609-4.979-1.494-1.826-1.051-3.651-1.992-5.754-2.49-1.66-.387-3.264-.442-4.923-.387-.83 0-1.217-.221-1.217-.774 0-.554.387-.72 1.217-.775 4.038-.166 7.8.774 11.175 2.932.166.11.277.166.443.277 1.438.83 2.987 1.217 4.647 1.217h6.085c1.383 0 2.324-.94 2.324-2.158 0-1.272-.996-2.157-2.324-2.157h-5.421c-1.881 0-2.822-1.605-1.937-3.264.996-1.77 2.49-2.711 4.481-2.767 3.541-.055 7.082 0 10.567 0 .222 0 .443.056.664.111.553.221 1.107.498 1.605.775.497.276.663.663.442 1.106-.221.387-.664.553-1.106.277-1.162-.775-2.434-.83-3.762-.775-.83.055-1.605 0-2.545 0 .11.11.166.166.276.221 2.324 1.162 4.648 2.269 6.971 3.43 1.217.554 2.434.222 2.988-.885-.277-.166-.553-.276-.83-.442-.387-.222-.553-.609-.332-.996.166-.387.608-.553 1.051-.332.885.387 1.77.885 2.656 1.272.995.443 2.102.222 2.71-.608.498-.609.388-1.273-.276-1.66a464.687 464.687 0 00-8.852-5.2c-.553-.332-1.328-.498-1.992-.498-4.702-.056-9.46-.056-14.162 0-1.052 0-2.158.387-3.154.664-2.047.553-4.039 1.106-6.085 1.66-.554.165-1.162.22-1.77.276-1.605.055-3.21 0-4.759 0-.664 0-.995-.277-.995-.775 0-.497.387-.774 1.05-.774.997 0 1.937-.056 2.933 0a15.404 15.404 0 004.758-.609c2.434-.719 4.868-1.328 7.302-1.991C39.476 10 44.732 10 50.043 10zm-2.158 10.677c-.11-.055-.166-.11-.276-.165-2.103-.996-4.205-2.047-6.252-3.043-.166-.056-.332-.111-.498-.111-.664 0-1.328-.055-1.992 0-.387 0-.83.166-1.217.221.277.277.554.388.83.554 2.213 1.05 4.37 2.157 6.584 3.208 1.106.498 2.213.222 2.821-.664zm-8.852-.442v-.11c-.94-.443-1.936-.941-2.932-1.44a3.717 3.717 0 00-.387.61c-.276.553-.055.884.553.94h2.766zm-8.021 31.368c1.161-1.438 1.604-1.66 3.706-1.825.056-.554 0-1.162.111-1.66.332-1.605 1.826-2.822 3.43-2.877h1.328c.442 0 .774.277.774.72 0 .442-.276.774-.774.83-.387.055-.775 0-1.217 0-1.273 0-2.213.94-2.213 2.212 0 1.217.996 2.158 2.268 2.158h5.422c2.047 0 2.987 1.604 1.936 3.374-.996 1.66-2.49 2.6-4.426 2.6-3.54.056-7.081 0-10.567 0-.276 0-.608-.11-.885-.22-2.379-1.162-4.702-2.324-7.081-3.43-1.051-.499-2.158-.333-2.822.497-.498.664-.442 1.273.277 1.715 2.987 1.77 5.92 3.541 8.907 5.256a3.815 3.815 0 001.77.443c4.758.055 9.516.055 14.274 0 1.051 0 2.158-.388 3.153-.664 2.047-.553 4.15-1.162 6.197-1.66a5.71 5.71 0 011.66-.221c1.604-.056 3.208 0 4.757 0 .664 0 .996.276.996.774s-.387.775-1.051.775c-1.051 0-2.158.055-3.209 0-1.494-.056-2.877.166-4.26.553-2.102.609-4.26 1.217-6.417 1.77-.664.166-1.383.277-2.047.277H31.012c-1.051 0-1.992-.277-2.932-.775-2.877-1.715-5.754-3.43-8.63-5.09-1.66-.995-1.937-2.765-.61-4.204 1.107-1.217 2.767-1.549 4.26-.94a2.6 2.6 0 01.554.276c.719-1.162 1.715-1.936 3.098-1.992.664 0 1.328.166 1.936.388.94.221 1.605.608 2.324.94zm4.48 4.039v-.11a64.463 64.463 0 01-2.765-1.384c-1.494-.719-2.988-1.494-4.537-2.213-1.106-.553-2.379-.11-2.877.94 1.826.886 3.652 1.771 5.422 2.656.11.056.221.056.277.056 1.493.055 2.987.055 4.48.055zm7.248-.221v-.166c-.442-.222-.83-.388-1.272-.609-2.047-.996-4.094-1.992-6.196-2.987-1.051-.498-2.158-.277-2.822.663.166.056.277.166.443.222 1.493.719 3.098 1.438 4.536 2.268 1.273.72 2.6.94 4.039.83.442-.055.83-.166 1.272-.221zm-1.383-2.656v.11c.94.443 1.937.941 2.932 1.44.111-.167.222-.333.332-.443l.166-.332c.166-.388-.055-.72-.442-.72-1.051-.11-2.047-.055-2.988-.055zm-1.162-21.023c1.273-1.162 2.656-1.549 4.26-1.051 2.767.885 3.762 4.37 1.826 6.528-1.55 1.66-3.209 3.264-4.813 4.869-.72.663-1.77.663-2.49-.056l-2.323-2.323c-.332-.332-.332-.83-.056-1.107.332-.332.775-.332 1.162 0 .72.664 1.383 1.383 2.102 2.103.277.331.498.331.83 0a311.424 311.424 0 004.26-4.316c1.051-1.106 1.051-2.655.055-3.651-.995-.996-2.544-.94-3.596.11-1.106 1.107-1.106 1.107-2.212 0-1.052-.995-2.49-1.106-3.486-.22-1.051.885-1.162 2.268-.387 3.43.332.497.332.94-.055 1.217-.388.276-.83.165-1.218-.332-1.217-1.605-1.05-3.984.388-5.367a4.064 4.064 0 015.421-.221c.056.11.166.221.332.387zm19.53 19.474c-3.21 0-6.197-.775-9.018-2.379-1.328-.774-2.656-1.604-4.205-1.826-.995-.11-2.047-.11-3.043-.166-.22 0-.442 0-.608-.055-.387-.11-.609-.387-.609-.774 0-.443.277-.664.664-.72 2.324-.11 4.592.056 6.694 1.162 1.162.609 2.324 1.328 3.596 1.881 2.047.94 4.26 1.328 6.529 1.328h1.549c.553 0 .885.332.885.774 0 .443-.332.775-.885.775h-1.55z" fill="#fff"/><path d="M30.514 49.224c0 .609-.609 1.052-1.107.72a5.55 5.55 0 01-1.217-1.052c-.166-.166-.11-.608 0-.83.166-.22.609-.387.775-.276.498.332.996.774 1.438 1.217.11 0 .11.166.11.221zM52.035 24.44c-.111.165-.277.442-.498.553-.222.11-.554.11-.775-.056a4.067 4.067 0 01-1.051-.885c-.166-.221-.221-.664-.11-.885.11-.221.608-.443.774-.332.553.332.996.775 1.494 1.217.11.056.11.166.166.387zm3.098 3.65c-.166.222-.332.499-.553.61-.332.22-.664.055-.886-.222-.276-.387-.553-.72-.719-1.162-.11-.221 0-.664.166-.885.166-.166.609-.221.83-.11.553.387.83 1.05 1.162 1.77zm.83 2.49c.11.111.387.277.498.498.22.388.276.83.387 1.273.11.442-.166.83-.553.885-.443.11-.775-.055-.886-.498a11.27 11.27 0 01-.387-1.272c-.11-.498.277-.886.94-.886zm-31.535 5.422v.664c-.055.443-.332.72-.774.72-.443 0-.72-.222-.775-.665-.055-.442 0-.94.055-1.383a.743.743 0 01.83-.664c.387.056.664.388.72.83-.056.11-.056.332-.056.498zm3.375-9.682c0 .498-.885 1.826-1.217 1.826-.277.055-.609 0-.775-.221-.166-.166-.221-.609-.166-.83.222-.443.498-.885.885-1.217.166-.166.609-.221.83-.11.222.11.332.442.443.552zm-1.328 20.138c-.608 0-1.604-1.493-1.328-2.102.222-.498.886-.664 1.273-.221.276.387.553.774.774 1.217.222.553-.166 1.106-.719 1.106zm-.94-15.822c-.222.608-.388 1.217-.664 1.66-.11.22-.609.331-.83.276-.221-.055-.553-.498-.498-.72.055-.552.277-1.106.553-1.604.11-.166.609-.276.83-.22.277.055.443.387.609.608zm-1.328 11.507c-.11-.11-.387-.277-.553-.553a4.992 4.992 0 01-.332-1.217c-.11-.443.11-.72.498-.886.387-.166.83.056.94.498.166.443.277.83.332 1.273.11.498-.221.885-.885.885zm30.649 2.932c0 .609-.83 1.826-1.217 1.881-.277.055-.608 0-.774-.221-.166-.166-.277-.553-.166-.775.22-.498.553-.94.885-1.272.166-.166.553-.166.774-.11.222.11.388.386.498.497zm.996-8.409v-.609c0-.442.277-.663.664-.719.443-.055.774.166.83.609.055.498.055 1.05-.056 1.549-.055.387-.387.608-.774.553-.387-.055-.664-.277-.664-.664-.055-.221 0-.498 0-.719zm1.051 4.094c-.221.664-.387 1.217-.664 1.66-.11.166-.608.331-.83.276-.22-.055-.497-.498-.497-.719.055-.553.22-1.106.498-1.55.11-.22.553-.331.83-.276.22.056.442.388.663.609zM39.034 20.235h-2.711c-.609 0-.83-.332-.553-.94.11-.222.22-.388.387-.61.996.499 1.936.941 2.932 1.44-.055.055-.055.055-.055.11z" fill="#fff"/></svg>