<svg width="79" height="72" fill="none" xmlns="http://www.w3.org/2000/svg"><rect x="1.5" y="1.5" width="76" height="69" rx="5.5" fill="#81D8D0" stroke="#81D8D0" stroke-width="3"/><path d="M14.806 33.994c.304-1.014.507-2.028.862-2.941.253-.608.354-1.116.253-1.775-.811-5.222 2.637-9.836 7.86-10.597.151 0 .354-.152.456-.304 2.94-4.411 8.163-5.628 12.726-2.941a.55.55 0 00.558 0c4.107-2.94 9.786-2.079 12.777 1.927.102.152.355.253.508.203 4.816-.406 9.33 3.346 9.735 8.163.05.66.05 1.318 0 1.977 0 .305.05.508.355.66 2.94 1.825 4.512 4.512 4.512 8.01 0 4.159-3.042 7.81-7.149 8.773a.93.93 0 00-.507.355c-1.369 3.295-3.752 5.324-7.301 5.983-.102 0-.203.05-.406.101v3.296c0 2.079-1.37 3.701-3.448 4.056-1.673.305-3.346-.557-4.208-2.13-.964-1.774-1.876-3.6-2.84-5.374-.101-.152-.152-.304-.253-.456-5.73 2.636-12.017-.812-13.285-6.693-.152 0-.355 0-.507.05-5.172.812-9.989-2.839-10.699-8.01 0-.102-.05-.204-.1-.305.1-.811.1-1.42.1-2.028zM48.22 17.97c-2.434-2.89-7.099-3.194-10.09-.558-.66.558-1.015.558-1.674.051-3.6-2.738-8.62-1.622-10.75 2.333-.253.507-.607.76-1.216.76-4.563.355-7.707 4.665-6.49 9.026.152.608.05 1.064-.203 1.622-1.47 2.738-1.42 5.425.355 7.96 1.775 2.536 4.31 3.5 7.403 3.043.304-.05.405-.152.405-.456.102-.71.203-1.47.406-2.18a8.95 8.95 0 012.434-3.956c.355-.355.76-.456 1.217-.203.405.203.608.66.456 1.116-.101.253-.253.507-.456.66-1.166 1.216-1.927 2.687-2.08 4.36-.253 2.94.812 5.374 3.297 6.997 2.484 1.622 5.12 1.622 7.707.253.912-.456 1.318-.355 1.774.508l3.347 6.388c.507.964 1.42 1.42 2.383 1.166 1.014-.253 1.572-1.064 1.572-2.18v-3.955c0-.76.304-1.065 1.065-1.166.963-.152 1.977-.304 2.839-.71 1.673-.71 2.84-1.927 3.65-3.6-.202-.05-.354-.05-.506-.101-1.521-.203-2.89-.71-4.158-1.623-1.116-.811-2.028-1.775-2.687-2.991-.305-.558-.152-1.116.304-1.42.507-.254 1.014-.102 1.369.405.05.102.152.203.203.355 1.825 2.941 5.476 4.158 8.67 2.89 3.194-1.267 5.07-4.614 4.411-7.96-.456-2.383-1.876-4.107-4.056-5.172-.71-.355-.862-.659-.76-1.47.1-.811.202-1.623.1-2.383-.405-4.107-4.461-7.048-8.467-6.186-1.217.253-2.282.76-3.194 1.572-.507.405-.963.456-1.37.152-.506-.406-.557-1.167 0-1.572.964-.66 1.877-1.217 2.79-1.775z" fill="#fff"/><path d="M38.637 35.566c0-.355-.051-.71 0-1.065.152-1.319.861-2.13 2.13-2.535 1.064-.355 1.622-1.217 1.52-2.333-.05-.963-.811-1.724-1.825-1.927-1.268-.202-2.434.761-2.535 2.08-.051.81-.507 1.42-1.217 1.52-.964.153-1.724-.507-1.724-1.52 0-2.587 2.028-4.767 4.766-5.071 2.434-.254 4.918 1.572 5.425 4.006.558 2.535-.76 4.969-3.194 5.932-.253.101-.355.254-.355.507v1.318c0 .862-.66 1.47-1.47 1.47-.76 0-1.42-.608-1.47-1.419-.052-.304-.051-.66-.051-.963zm14.501-4.564c1.014 0 2.332.457 3.498 1.42.66.558.761 1.115.355 1.623-.405.456-.963.456-1.622-.102-2.028-1.622-4.97-1.166-6.287 1.014a2.365 2.365 0 00-.254.507c-.304.558-.811.811-1.369.558-.507-.254-.71-.76-.456-1.37.912-2.18 3.245-3.65 6.135-3.65zm-26.011-4.36c1.622 0 3.042.558 4.208 1.673.507.456.558 1.065.152 1.47-.405.457-.963.406-1.47 0-1.775-1.571-3.955-1.571-5.78 0-.558.457-1.116.507-1.522.051-.405-.456-.304-1.014.203-1.521 1.217-1.116 2.586-1.673 4.209-1.673zm14.451 14.907c0 .81-.66 1.47-1.47 1.52-.812 0-1.522-.71-1.522-1.47 0-.81.66-1.47 1.47-1.47a1.413 1.413 0 011.522 1.42z" fill="#fff"/></svg>