<svg width="24" height="20" fill="none" xmlns="http://www.w3.org/2000/svg"><g clip-path="url(#clip0_48_183)"><path d="M12.87 15.589l-2.254 2.203-.765.752a.415.415 0 01-.506.117.442.442 0 01-.257-.482c.12-1.624.232-3.251.357-4.876a.541.541 0 01.172-.308c2.23-2.055 4.463-4.107 6.7-6.155l2.879-2.645c.078-.06.148-.13.206-.21a.212.212 0 000-.192.202.202 0 00-.18-.06.634.634 0 00-.215.109 3371.1 3371.1 0 00-12.695 7.743.571.571 0 01-.545.057C4.053 11.055 2.362 10.479.66 9.9.208 9.747 0 9.516 0 9.137c0-.38.177-.627.623-.798l14.4-5.489L22.135.117c.857-.325 1.68.049 1.842.88.04.343.011.69-.083 1.02a8353.443 8353.443 0 01-3.741 16.974c-.16.718-.551 1.072-1.185.998a1.3 1.3 0 01-.6-.262 752.484 752.484 0 01-5.278-3.99l-.22-.148z" fill="#000"/></g><defs><clipPath id="clip0_48_183"><path fill="#fff" d="M0 0h24v20H0z"/></clipPath></defs></svg>