<svg width="28" height="16" fill="none" xmlns="http://www.w3.org/2000/svg"><g id="Безымянный-1-02 1" clip-path="url(#clip0_48_185)"><path id="Vector" d="M0 1.109a1.186 1.186 0 01.976-.38C2.241.73 3.523.714 4.774.716a1.257 1.257 0 011.2.823c.71 1.474 1.437 2.936 2.193 4.387a4.667 4.667 0 001.304 1.63c.12.095.255.172.399.226a.51.51 0 00.733-.283c.14-.366.242-.745.303-1.132a11.832 11.832 0 000-3.676c-.13-.832-.527-1.375-1.393-1.508a1.096 1.096 0 01-.175-.034.734.734 0 01-.082-.07c.059-.11.126-.215.2-.315a1.961 1.961 0 011.337-.619 15.894 15.894 0 014.527.034c.753.13 1.024.407 1.078 1.216.065.942 0 1.892 0 2.829 0 .848 0 1.71.026 2.565.014.198.07.39.164.566.238.472.648.565 1.01.183.469-.468.9-.97 1.293-1.504a21.285 21.285 0 002.411-4.526 2.57 2.57 0 01.175-.376.662.662 0 01.595-.356c1.65-.014 3.3-.037 4.949-.057h.107c.779.062 1.033.433.798 1.174a7.65 7.65 0 01-1.131 2.133c-.9 1.258-1.837 2.491-2.754 3.739-.15.205-.288.42-.41.645a1.114 1.114 0 00.181 1.414c.648.667 1.322 1.306 1.98 1.963.734.697 1.371 1.49 1.894 2.356.146.27.242.564.283.868.065.433-.343.826-.869.848-1.132.043-2.264 0-3.396.11-1.544.165-2.702-.44-3.678-1.566a47.08 47.08 0 00-1.26-1.414 4.425 4.425 0 00-.755-.623.698.698 0 00-.982.122c-.484.48-.588 1.109-.654 1.748-.022.218 0 .438-.03.653-.066.668-.329.979-.997.99-1.208 0-2.419.11-3.616-.187a10.472 10.472 0 01-2.94-1.323c-1.449-.894-2.547-2.138-3.543-3.479C3.141 8.075 1.52 4.992.108 1.79L0 1.544V1.11z" fill="#000"/></g><defs><clipPath id="clip0_48_185"><path fill="#fff" d="M0 0h28v16H0z"/></clipPath></defs></svg>