<svg width="222" height="53" fill="none" xmlns="http://www.w3.org/2000/svg"><g id="лого" clip-path="url(#clip0_48_14)"><g id="Group"><path id="Vector" d="M215.537 19.07v12.635H222V17.391c.188-5.371-1.504-8.684-5.123-9.938-4.842-1.656-8.908-1.065-12.222 1.917V3.123C204.632 1.065 203.551 0 201.412 0h-3.29v31.682h6.51V19.07c0-3.786 1.669-6.862 5.523-6.862 3.713 0 5.382 2.697 5.382 6.861zm-20.846 5.064h-4.889c-.822 0-1.574.284-2.209.875-1.081 1.16-2.397 1.775-3.901 1.775-3.62.047-5.429-2.413-5.429-7.311s1.715-7.359 5.147-7.359c1.527 0 2.679.497 3.478 1.42.682.78 1.316 1.136 2.703 1.136h5.123c-1.128-5.371-4.841-8.021-11.093-8.021-7.967.142-11.939 4.377-11.939 12.824.188 8.47 4.207 12.777 12.033 12.777 5.993.142 9.801-3.076 10.976-8.116zM169.026 7.027h-3.337c-2.162 0-3.173 1.018-3.126 3.076v13.013c0 2.745-1.457 4.094-4.394 4.094-2.938 0-4.395-1.349-4.395-4.094V7.027h-3.385c-1.95 0-3.125 1.42-3.125 3.029v11.807c0 4.14 1.128 6.837 3.384 8.21 2.256 1.372 4.653 2.106 7.332 2.106 2.797 0 5.335-.663 7.639-1.917 2.303-1.349 3.431-4.14 3.431-8.4V7.027h-.024zm-36.686 5.087c3.337 0 4.982 2.366 4.982 7.17-.047 4.897-1.715 7.405-5.029 7.405s-5.03-2.413-5.077-7.216c0-4.874 1.716-7.359 5.124-7.359zm0-5.442c-7.826 0-11.728 4.236-11.728 12.824 0 8.471 3.902 12.777 11.728 12.777s11.798-4.282 11.798-12.777c0-8.588-3.972-12.824-11.798-12.824zM118.074 8.4V7.05h-3.901V3.124c0-1.632-1.41-3.123-3.126-3.123h-3.408v26.95c-.047 2.744 1.128 4.188 3.572 4.424 2.445.237 4.748.237 6.84.047v-2.555c0-1.609-.847-2.153-1.998-2.153-1.269 0-1.904-.568-1.904-1.585V11.475h.682c1.809 0 3.243-1.325 3.243-3.075z" fill="#81D8D0"/><g id="Group_2" fill="#1D1D1B"><g id="Group_3"><path id="Vector_2" d="M107.733 38.472h1.387v1.964c.54-.733 1.175-1.301 1.904-1.68a5.118 5.118 0 012.397-.568c1.551 0 2.867.545 3.948 1.633 1.105 1.088 1.645 2.39 1.645 3.928 0 1.561-.54 2.886-1.621 3.975-1.081 1.088-2.398 1.632-3.925 1.632-.87 0-1.669-.165-2.374-.52-.728-.355-1.387-.876-1.974-1.562V53h-1.387V38.472zm5.594 1.065c-1.199 0-2.233.402-3.056 1.23-.822.828-1.245 1.846-1.245 3.076 0 .805.188 1.538.564 2.177.376.639.893 1.16 1.575 1.538.681.379 1.41.568 2.185.568.752 0 1.457-.19 2.115-.568.658-.379 1.176-.923 1.575-1.585a4.18 4.18 0 00.588-2.153 4.18 4.18 0 00-.588-2.154 4.072 4.072 0 00-1.575-1.585c-.658-.378-1.363-.544-2.138-.544z"/><path id="Vector_3" d="M121.129 38.472h1.434v1.562c.423-.615.87-1.065 1.34-1.372.47-.308.963-.45 1.48-.45.376 0 .799.118 1.246.355l-.729 1.16c-.282-.119-.54-.19-.728-.19-.47 0-.917.19-1.34.568-.423.379-.752.946-.987 1.75-.164.616-.258 1.823-.258 3.668v3.597h-1.434V38.472h-.024z"/><path id="Vector_4" d="M132.927 38.212c1.669 0 3.056.592 4.16 1.775 1.011 1.088 1.504 2.366 1.504 3.833 0 1.49-.517 2.792-1.574 3.88-1.058 1.112-2.421 1.656-4.066 1.656-1.669 0-3.032-.544-4.089-1.656-1.058-1.112-1.575-2.413-1.575-3.88s.494-2.745 1.504-3.833c1.081-1.183 2.468-1.775 4.136-1.775zm0 1.325c-1.151 0-2.162.426-2.984 1.254-.823.828-1.246 1.846-1.246 3.052 0 .757.188 1.49.564 2.153a3.893 3.893 0 001.551 1.538 4.423 4.423 0 002.139.545c.776 0 1.481-.19 2.139-.545.658-.355 1.151-.875 1.551-1.538a4.268 4.268 0 00.564-2.153c0-1.183-.423-2.2-1.246-3.052-.869-.828-1.88-1.254-3.032-1.254z"/><path id="Vector_5" d="M145.642 34.379v1.349c-.517-.213-.94-.332-1.316-.332-.282 0-.494.048-.682.166-.188.118-.282.237-.329.379-.047.142-.07.52-.07 1.112v1.443h2.256v1.183h-2.256v9.44h-1.387v-9.44h-1.433v-1.183h1.433V36.84c0-.757.071-1.302.212-1.633.141-.331.376-.591.728-.78a2.55 2.55 0 011.246-.308c.423 0 .963.07 1.598.26z"/><path id="Vector_6" d="M156.735 45.57l1.175.616c-.376.733-.823 1.348-1.34 1.798a5.572 5.572 0 01-1.715 1.041c-.635.237-1.34.355-2.139.355-1.763 0-3.149-.568-4.16-1.704-1.01-1.135-1.504-2.413-1.504-3.856 0-1.349.423-2.556 1.269-3.597 1.081-1.349 2.515-2.011 4.301-2.011 1.857 0 3.337.686 4.442 2.058.776.97 1.175 2.177 1.199 3.62h-9.777c.023 1.231.423 2.248 1.198 3.03.776.78 1.739 1.182 2.891 1.182.564 0 1.081-.094 1.622-.284.517-.189.963-.426 1.339-.757s.776-.78 1.199-1.49zm0-2.862c-.188-.734-.47-1.302-.823-1.751-.352-.426-.822-.781-1.41-1.065a4.514 4.514 0 00-1.856-.402c-1.058 0-1.975.331-2.75 1.017-.564.497-.987 1.23-1.269 2.2h8.108z"/><path id="Vector_7" d="M166.324 39.632l-.893.899c-.752-.71-1.481-1.065-2.186-1.065-.447 0-.846.142-1.175.45-.329.284-.494.639-.494 1.017 0 .355.141.663.4.994.258.307.822.686 1.669 1.112 1.034.52 1.739 1.04 2.115 1.514.376.497.54 1.041.54 1.68 0 .876-.305 1.609-.94 2.224-.634.615-1.41.9-2.35.9a4.195 4.195 0 01-1.786-.403 3.843 3.843 0 01-1.41-1.112l.869-.97c.705.78 1.481 1.183 2.28 1.183.564 0 1.034-.166 1.434-.52.399-.355.587-.758.587-1.231 0-.379-.141-.733-.399-1.041-.259-.308-.846-.686-1.763-1.136-.987-.497-1.645-.994-1.998-1.467a2.742 2.742 0 01-.54-1.656c0-.804.282-1.467.846-2.011.564-.544 1.269-.805 2.139-.805 1.057.024 2.044.497 3.055 1.444z"/><path id="Vector_8" d="M174.268 39.632l-.894.899c-.752-.71-1.48-1.065-2.185-1.065-.447 0-.846.142-1.175.45-.329.284-.494.639-.494 1.017 0 .355.141.663.4.994.258.307.822.686 1.668 1.112 1.034.52 1.739 1.04 2.115 1.514.376.497.541 1.041.541 1.68 0 .876-.306 1.609-.94 2.224-.635.615-1.41.9-2.35.9a4.195 4.195 0 01-1.786-.403 3.847 3.847 0 01-1.411-1.112l.87-.97c.705.78 1.481 1.183 2.28 1.183.564 0 1.034-.166 1.433-.52.4-.355.588-.758.588-1.231a1.6 1.6 0 00-.4-1.041c-.258-.308-.846-.686-1.762-1.136-.987-.497-1.645-.994-1.998-1.467a2.737 2.737 0 01-.541-1.656c0-.804.283-1.467.847-2.011.564-.544 1.269-.805 2.138-.805 1.034.024 2.045.497 3.056 1.444z"/><path id="Vector_9" d="M177.229 34.119c.329 0 .587.118.822.331.235.213.329.497.329.804 0 .308-.117.568-.329.781a1.17 1.17 0 01-.822.332c-.306 0-.588-.119-.799-.332a1.026 1.026 0 01-.329-.78c0-.308.117-.592.329-.805.211-.237.493-.331.799-.331zm-.705 4.353h1.386v10.624h-1.386V38.472z"/><path id="Vector_10" d="M185.971 38.212c1.669 0 3.056.592 4.16 1.775 1.011 1.088 1.504 2.366 1.504 3.833 0 1.49-.517 2.792-1.574 3.88-1.058 1.112-2.421 1.656-4.066 1.656-1.669 0-3.032-.544-4.089-1.656-1.058-1.112-1.575-2.413-1.575-3.88s.493-2.745 1.504-3.833c1.058-1.183 2.468-1.775 4.136-1.775zm0 1.325c-1.151 0-2.162.426-2.984 1.254-.823.828-1.246 1.846-1.246 3.052 0 .757.188 1.49.564 2.153a3.893 3.893 0 001.551 1.538 4.423 4.423 0 002.139.545c.775 0 1.481-.19 2.139-.545.658-.355 1.151-.875 1.551-1.538a4.268 4.268 0 00.564-2.153c0-1.183-.423-2.2-1.246-3.052-.893-.828-1.88-1.254-3.032-1.254z"/><path id="Vector_11" d="M194.221 38.472h1.386v1.893c.564-.733 1.175-1.278 1.857-1.632a4.7 4.7 0 012.209-.545 3.92 3.92 0 012.162.616 3.462 3.462 0 011.387 1.632c.305.686.447 1.751.447 3.194v5.466h-1.387v-5.063c0-1.23-.047-2.035-.165-2.461-.164-.71-.47-1.23-.94-1.585s-1.057-.52-1.786-.52c-.846 0-1.598.283-2.28.827a3.891 3.891 0 00-1.316 2.035c-.141.52-.188 1.49-.188 2.887v3.904h-1.386V38.472z"/><path id="Vector_12" d="M217.488 38.472v10.624h-1.387v-1.822c-.588.686-1.246 1.23-1.974 1.562-.729.355-1.528.52-2.397.52-1.528 0-2.844-.544-3.949-1.632-1.081-1.089-1.621-2.414-1.621-3.975 0-1.538.54-2.84 1.645-3.928 1.104-1.088 2.421-1.633 3.972-1.633.893 0 1.692.19 2.42.568.729.379 1.363.923 1.904 1.68v-1.964h1.387zm-5.57 1.065c-.776 0-1.504.19-2.163.568a4.231 4.231 0 00-1.574 1.585 4.18 4.18 0 00-.588 2.153c0 .757.188 1.467.588 2.153a4.228 4.228 0 001.574 1.586 4.2 4.2 0 002.139.568 4.34 4.34 0 002.162-.568c.682-.379 1.222-.9 1.575-1.538.376-.64.564-1.373.564-2.177 0-1.23-.423-2.248-1.246-3.076-.822-.852-1.833-1.254-3.031-1.254z"/><path id="Vector_13" d="M220.425 34.379h1.387v14.717h-1.387V34.379z"/></g><path id="Vector_14" d="M99.813 0h-3.36v28.133c0 2.01.751 3.383 3.29 3.383h3.196V3.005C102.915 1.396 101.505 0 99.813 0zM85.359 7.004V28.18c0 1.798.893 3.336 3.197 3.336h3.29V9.961c0-1.987-1.01-2.957-3.102-2.957h-3.385zm0-7.004v4.827h3.314c1.058 0 2.444.07 3.173 1.348v-3.17C91.893 1.017 90.859 0 88.72 0h-3.36zM70.271 26.476c3.502 0 5.311-2.366 5.453-7.098 0-4.969-1.857-7.43-5.547-7.43-3.69 0-5.453 2.461-5.406 7.43.212 4.732 1.998 7.098 5.5 7.098zm-5.5 11.594c0 2.035-1.08 3.052-3.22 3.052h-3.266V17.675c.329-7.335 4.324-10.932 12.056-10.932 7.991 0 11.963 4.117 11.963 12.375 0 8.352-3.408 12.73-10.27 12.895-3.22.07-5.547-.639-7.31-2.768v8.825h.047zM43.668 11.688c2.773 0 4.371 1.68 4.77 4.922h-9.682c.493-3.265 2.139-4.922 4.912-4.922zM54.9 24.016h-4.77c-.87 0-1.598.284-2.186.875-1.269 1.16-2.68 1.751-4.183 1.751-3.173 0-4.865-1.893-5.1-5.655H55.3c.47-9.582-3.362-14.362-11.54-14.362-7.827.047-11.775 4.212-11.775 12.564s3.902 12.658 11.68 12.895c6.323 0 9.825-2.863 11.235-8.068z"/><path id="Vector_15" d="M21.175 16.35c0 6.648-2.35 10.079-9.072 10.079H6.699V6.081h6.299c6.134 0 8.178 3.951 8.178 10.268zM12.973.543H3.408C1.128.592 0 1.751 0 3.928v28.227h11.164c3.031 0 5.358-.237 7.027-.663 6.392-1.632 9.894-7.405 9.894-15.166C28.108 6.27 23.525.544 12.973.544z"/></g></g></g><defs><clipPath id="clip0_48_14"><path fill="#fff" d="M0 0h222v53H0z"/></clipPath></defs></svg>