<svg width="222" height="53" viewBox="0 0 222 53" fill="none" xmlns="http://www.w3.org/2000/svg">
<g id="&#208;&#187;&#208;&#190;&#208;&#179;&#208;&#190;" clip-path="url(#clip0_48_14)">
<g id="Group">
<path id="Vector" d="M215.537 19.0705V31.7054H222V17.3906C222.188 12.0196 220.496 8.70714 216.877 7.45312C212.035 5.79688 207.969 6.38839 204.655 9.36964V3.12321C204.632 1.06473 203.551 0 201.412 0H198.122V31.6817H204.632V19.0705C204.632 15.2848 206.301 12.2089 210.155 12.2089C213.868 12.2089 215.537 14.9062 215.537 19.0705ZM194.691 24.1339H189.802C188.98 24.1339 188.228 24.4179 187.593 25.0094C186.512 26.1687 185.196 26.7839 183.692 26.7839C180.072 26.8312 178.263 24.3705 178.263 19.4728C178.263 14.575 179.978 12.1143 183.41 12.1143C184.937 12.1143 186.089 12.6112 186.888 13.5339C187.57 14.3147 188.204 14.6696 189.591 14.6696H194.714C193.586 9.29866 189.873 6.64866 183.621 6.64866C175.654 6.79062 171.682 11.0259 171.682 19.4728C171.87 27.9433 175.889 32.2496 183.715 32.2496C189.708 32.3915 193.516 29.1737 194.691 24.1339ZM169.026 7.02723H165.689C163.527 7.02723 162.516 8.04464 162.563 10.1031V23.1165C162.563 25.8612 161.106 27.2098 158.169 27.2098C155.231 27.2098 153.774 25.8612 153.774 23.1165V7.02723H150.389C148.439 7.02723 147.264 8.44687 147.264 10.0558V21.8625C147.264 26.0031 148.392 28.7004 150.648 30.0728C152.904 31.4451 155.301 32.1786 157.98 32.1786C160.777 32.1786 163.315 31.5161 165.619 30.2621C167.922 28.9134 169.05 26.1214 169.05 21.8625V7.02723H169.026ZM132.34 12.1143C135.677 12.1143 137.322 14.4804 137.322 19.2835C137.275 24.1812 135.607 26.6893 132.293 26.6893C128.979 26.6893 127.263 24.2759 127.216 19.4728C127.216 14.5987 128.932 12.1143 132.34 12.1143ZM132.34 6.67232C124.514 6.67232 120.612 10.9076 120.612 19.4964C120.612 27.967 124.514 32.2732 132.34 32.2732C140.166 32.2732 144.138 27.9906 144.138 19.4964C144.138 10.9076 140.166 6.67232 132.34 6.67232ZM118.074 8.39955V7.05089H114.173V3.12321C114.173 1.49062 112.763 0 111.047 0H107.639V26.9496C107.592 29.6942 108.767 31.1375 111.211 31.3741C113.656 31.6107 115.959 31.6107 118.051 31.4214V28.8661C118.051 27.2571 117.204 26.7129 116.053 26.7129C114.784 26.7129 114.149 26.1451 114.149 25.1277V11.4754H114.831C116.64 11.4754 118.074 10.1504 118.074 8.39955Z" fill="#81D8D0"/>
<g id="Group_2">
<g id="Group_3">
<path id="Vector_2" d="M107.733 38.4723H109.12V40.4362C109.66 39.7027 110.295 39.1348 111.024 38.7562C111.752 38.3777 112.551 38.1884 113.421 38.1884C114.972 38.1884 116.288 38.7326 117.369 39.821C118.474 40.9094 119.014 42.2107 119.014 43.7487C119.014 45.3103 118.474 46.6353 117.393 47.7237C116.312 48.812 114.995 49.3562 113.468 49.3562C112.598 49.3562 111.799 49.1906 111.094 48.8357C110.366 48.4808 109.707 47.9603 109.12 47.2741V53H107.733V38.4723ZM113.327 39.537C112.128 39.537 111.094 39.9393 110.271 40.7674C109.449 41.5955 109.026 42.6129 109.026 43.8433C109.026 44.6478 109.214 45.3812 109.59 46.0201C109.966 46.6589 110.483 47.1795 111.165 47.558C111.846 47.9366 112.575 48.1259 113.35 48.1259C114.102 48.1259 114.807 47.9366 115.465 47.558C116.123 47.1795 116.641 46.6353 117.04 45.9728C117.44 45.2866 117.628 44.5768 117.628 43.8196C117.628 43.0625 117.44 42.3527 117.04 41.6665C116.664 40.9804 116.123 40.4598 115.465 40.0812C114.807 39.7027 114.102 39.537 113.327 39.537Z" fill="#1D1D1B"/>
<path id="Vector_3" d="M121.129 38.4723H122.563V40.0339C122.986 39.4187 123.433 38.9692 123.903 38.6616C124.373 38.354 124.866 38.212 125.383 38.212C125.759 38.212 126.182 38.3303 126.629 38.5669L125.9 39.7263C125.618 39.608 125.36 39.537 125.172 39.537C124.702 39.537 124.255 39.7263 123.832 40.1049C123.409 40.4835 123.08 41.0513 122.845 41.8558C122.681 42.471 122.587 43.6777 122.587 45.5232V49.1196H121.153V38.4723H121.129Z" fill="#1D1D1B"/>
<path id="Vector_4" d="M132.927 38.212C134.596 38.212 135.983 38.8036 137.087 39.9866C138.098 41.075 138.591 42.3527 138.591 43.8196C138.591 45.3102 138.074 46.6116 137.017 47.7C135.959 48.812 134.596 49.3562 132.951 49.3562C131.282 49.3562 129.919 48.812 128.862 47.7C127.804 46.5879 127.287 45.2866 127.287 43.8196C127.287 42.3527 127.781 41.075 128.791 39.9866C129.872 38.8036 131.259 38.212 132.927 38.212ZM132.927 39.537C131.776 39.537 130.765 39.9629 129.943 40.7911C129.12 41.6192 128.697 42.6366 128.697 43.8433C128.697 44.6004 128.885 45.3339 129.261 45.9964C129.637 46.6589 130.154 47.1794 130.812 47.5344C131.47 47.8893 132.175 48.0786 132.951 48.0786C133.727 48.0786 134.432 47.8893 135.09 47.5344C135.748 47.1794 136.241 46.6589 136.641 45.9964C137.017 45.3339 137.205 44.6241 137.205 43.8433C137.205 42.6603 136.782 41.6428 135.959 40.7911C135.09 39.9629 134.079 39.537 132.927 39.537Z" fill="#1D1D1B"/>
<path id="Vector_5" d="M145.642 34.379V35.7277C145.125 35.5147 144.702 35.3964 144.326 35.3964C144.044 35.3964 143.832 35.4437 143.644 35.562C143.456 35.6804 143.362 35.7987 143.315 35.9406C143.268 36.0826 143.245 36.4612 143.245 37.0527V38.496H145.501V39.679H143.245V49.1196H141.858V39.679H140.425V38.496H141.858V36.8397C141.858 36.0826 141.929 35.5384 142.07 35.2071C142.211 34.8759 142.446 34.6156 142.798 34.4263C143.151 34.237 143.55 34.1187 144.044 34.1187C144.467 34.1187 145.007 34.1897 145.642 34.379Z" fill="#1D1D1B"/>
<path id="Vector_6" d="M156.735 45.5705L157.91 46.1857C157.534 46.9192 157.087 47.5344 156.57 47.9839C156.053 48.4335 155.489 48.7884 154.855 49.025C154.22 49.2616 153.515 49.3799 152.716 49.3799C150.953 49.3799 149.567 48.812 148.556 47.6763C147.546 46.5406 147.052 45.2629 147.052 43.8196C147.052 42.471 147.475 41.2643 148.321 40.2232C149.402 38.8745 150.836 38.212 152.622 38.212C154.479 38.212 155.959 38.8982 157.064 40.2705C157.84 41.2406 158.239 42.4473 158.263 43.8906H148.486C148.509 45.121 148.909 46.1384 149.684 46.9192C150.46 47.7 151.423 48.1022 152.575 48.1022C153.139 48.1022 153.656 48.0076 154.197 47.8183C154.714 47.629 155.16 47.3924 155.536 47.0611C155.912 46.7299 156.312 46.2803 156.735 45.5705ZM156.735 42.7076C156.547 41.9741 156.265 41.4062 155.912 40.9567C155.56 40.5308 155.09 40.1759 154.502 39.8919C153.915 39.6317 153.304 39.4897 152.646 39.4897C151.588 39.4897 150.671 39.821 149.896 40.5071C149.332 41.004 148.909 41.7375 148.627 42.7076H156.735Z" fill="#1D1D1B"/>
<path id="Vector_7" d="M166.324 39.6317L165.431 40.5308C164.679 39.821 163.95 39.4661 163.245 39.4661C162.798 39.4661 162.399 39.608 162.07 39.9156C161.741 40.1995 161.576 40.5545 161.576 40.933C161.576 41.2879 161.717 41.5955 161.976 41.9268C162.234 42.2344 162.798 42.6129 163.645 43.0388C164.679 43.5594 165.384 44.0799 165.76 44.5531C166.136 45.05 166.3 45.5942 166.3 46.233C166.3 47.1085 165.995 47.842 165.36 48.4571C164.726 49.0723 163.95 49.3562 163.01 49.3562C162.375 49.3562 161.788 49.2143 161.224 48.954C160.66 48.6937 160.19 48.3152 159.814 47.842L160.683 46.8719C161.388 47.6527 162.164 48.0549 162.963 48.0549C163.527 48.0549 163.997 47.8893 164.397 47.5344C164.796 47.1795 164.984 46.7772 164.984 46.304C164.984 45.9254 164.843 45.5705 164.585 45.2629C164.326 44.9554 163.739 44.5768 162.822 44.1272C161.835 43.6304 161.177 43.1335 160.824 42.6603C160.472 42.187 160.284 41.6192 160.284 41.004C160.284 40.1995 160.566 39.537 161.13 38.9929C161.694 38.4487 162.399 38.1884 163.269 38.1884C164.326 38.212 165.313 38.6853 166.324 39.6317Z" fill="#1D1D1B"/>
<path id="Vector_8" d="M174.268 39.6317L173.374 40.5308C172.622 39.821 171.894 39.4661 171.189 39.4661C170.742 39.4661 170.343 39.608 170.014 39.9156C169.685 40.1995 169.52 40.5545 169.52 40.933C169.52 41.2879 169.661 41.5955 169.92 41.9268C170.178 42.2344 170.742 42.6129 171.588 43.0388C172.622 43.5594 173.327 44.0799 173.703 44.5531C174.079 45.05 174.244 45.5942 174.244 46.233C174.244 47.1085 173.938 47.842 173.304 48.4571C172.669 49.0723 171.894 49.3562 170.954 49.3562C170.319 49.3562 169.732 49.2143 169.168 48.954C168.604 48.6937 168.133 48.3152 167.757 47.842L168.627 46.8719C169.332 47.6527 170.108 48.0549 170.907 48.0549C171.471 48.0549 171.941 47.8893 172.34 47.5344C172.74 47.1795 172.928 46.7772 172.928 46.304C172.928 45.9254 172.787 45.5705 172.528 45.2629C172.27 44.9554 171.682 44.5768 170.766 44.1272C169.779 43.6304 169.121 43.1335 168.768 42.6603C168.415 42.187 168.227 41.6192 168.227 41.004C168.227 40.1995 168.51 39.537 169.074 38.9929C169.638 38.4487 170.343 38.1884 171.212 38.1884C172.246 38.212 173.257 38.6853 174.268 39.6317Z" fill="#1D1D1B"/>
<path id="Vector_9" d="M177.229 34.1187C177.558 34.1187 177.816 34.237 178.051 34.45C178.286 34.6629 178.38 34.9469 178.38 35.2545C178.38 35.562 178.263 35.8223 178.051 36.0353C177.816 36.2482 177.558 36.3665 177.229 36.3665C176.923 36.3665 176.641 36.2482 176.43 36.0353C176.195 35.8223 176.101 35.5384 176.101 35.2545C176.101 34.9469 176.218 34.6629 176.43 34.45C176.641 34.2134 176.923 34.1187 177.229 34.1187ZM176.524 38.4723H177.91V49.096H176.524V38.4723Z" fill="#1D1D1B"/>
<path id="Vector_10" d="M185.971 38.212C187.64 38.212 189.027 38.8036 190.131 39.9866C191.142 41.075 191.635 42.3527 191.635 43.8196C191.635 45.3102 191.118 46.6116 190.061 47.7C189.003 48.812 187.64 49.3562 185.995 49.3562C184.326 49.3562 182.963 48.812 181.906 47.7C180.848 46.5879 180.331 45.2866 180.331 43.8196C180.331 42.3527 180.824 41.075 181.835 39.9866C182.893 38.8036 184.303 38.212 185.971 38.212ZM185.971 39.537C184.82 39.537 183.809 39.9629 182.987 40.7911C182.164 41.6192 181.741 42.6366 181.741 43.8433C181.741 44.6004 181.929 45.3339 182.305 45.9964C182.681 46.6589 183.198 47.1794 183.856 47.5344C184.514 47.8893 185.219 48.0786 185.995 48.0786C186.77 48.0786 187.476 47.8893 188.134 47.5344C188.792 47.1794 189.285 46.6589 189.685 45.9964C190.061 45.3339 190.249 44.6241 190.249 43.8433C190.249 42.6603 189.826 41.6428 189.003 40.7911C188.11 39.9629 187.123 39.537 185.971 39.537Z" fill="#1D1D1B"/>
<path id="Vector_11" d="M194.221 38.4723H195.607V40.3652C196.171 39.6317 196.782 39.0875 197.464 38.7326C198.146 38.3777 198.874 38.1884 199.673 38.1884C200.496 38.1884 201.201 38.4013 201.835 38.8036C202.47 39.2058 202.94 39.75 203.222 40.4362C203.527 41.1223 203.669 42.187 203.669 43.6303V49.096H202.282V44.0326C202.282 42.8022 202.235 41.9978 202.117 41.5719C201.953 40.862 201.647 40.3415 201.177 39.9866C200.707 39.6317 200.12 39.4661 199.391 39.4661C198.545 39.4661 197.793 39.75 197.111 40.2942C196.453 40.8384 196.007 41.5245 195.795 42.329C195.654 42.8495 195.607 43.8196 195.607 45.2156V49.1196H194.221V38.4723Z" fill="#1D1D1B"/>
<path id="Vector_12" d="M217.488 38.4723V49.096H216.101V47.2741C215.513 47.9603 214.855 48.5045 214.127 48.8357C213.398 49.1906 212.599 49.3562 211.73 49.3562C210.202 49.3562 208.886 48.812 207.781 47.7237C206.7 46.6353 206.16 45.3103 206.16 43.7487C206.16 42.2107 206.7 40.9094 207.805 39.821C208.909 38.7326 210.226 38.1884 211.777 38.1884C212.67 38.1884 213.469 38.3777 214.197 38.7562C214.926 39.1348 215.56 39.679 216.101 40.4362V38.4723H217.488ZM211.918 39.537C211.142 39.537 210.414 39.7263 209.755 40.1049C209.097 40.4835 208.58 41.004 208.181 41.6902C207.781 42.3763 207.593 43.0862 207.593 43.8433C207.593 44.6004 207.781 45.3103 208.181 45.9964C208.58 46.6826 209.097 47.2031 209.755 47.5817C210.414 47.9603 211.119 48.1495 211.894 48.1495C212.67 48.1495 213.375 47.9603 214.056 47.5817C214.738 47.2031 215.278 46.6826 215.631 46.0437C216.007 45.4049 216.195 44.6714 216.195 43.867C216.195 42.6366 215.772 41.6192 214.949 40.7911C214.127 39.9393 213.116 39.537 211.918 39.537Z" fill="#1D1D1B"/>
<path id="Vector_13" d="M220.425 34.379H221.812V49.096H220.425V34.379Z" fill="#1D1D1B"/>
</g>
<path id="Vector_14" d="M99.813 0H96.4522V28.1326C96.4522 30.1438 97.2043 31.5161 99.7425 31.5161H102.939V3.00491C102.915 1.39598 101.505 0 99.813 0ZM85.3593 7.00357V28.1799C85.3593 29.9781 86.2523 31.5161 88.5555 31.5161H91.8458V9.96116C91.8458 7.97366 90.8352 7.00357 88.7436 7.00357H85.3593ZM85.3593 0V4.82679H88.6731C89.7306 4.82679 91.1173 4.89777 91.8458 6.17545V3.00491C91.8928 1.01741 90.8587 0 88.7201 0H85.3593ZM70.271 26.4763C73.7728 26.4763 75.5824 24.1103 75.7235 19.3781C75.7235 14.4094 73.8668 11.9487 70.177 11.9487C66.4872 11.9487 64.7245 14.4094 64.7715 19.3781C64.983 24.1103 66.7692 26.4763 70.271 26.4763ZM64.7715 38.0701C64.7715 40.1049 63.6904 41.1223 61.5517 41.1223H58.285V17.6746C58.614 10.3397 62.6093 6.7433 70.3415 6.7433C78.3322 6.7433 82.304 10.8603 82.304 19.1179C82.304 27.4701 78.8962 31.8473 72.0336 32.0129C68.8139 32.0839 66.4872 31.3741 64.7245 29.2446V38.0701H64.7715ZM43.6667 11.6884C46.4399 11.6884 48.0381 13.3683 48.4376 16.6098H38.7548C39.2483 13.3446 40.8935 11.6884 43.6667 11.6884ZM54.9007 24.0156H50.1298C49.2602 24.0156 48.5316 24.2996 47.9441 24.8911C46.675 26.0504 45.2648 26.642 43.7607 26.642C40.5879 26.642 38.8958 24.7491 38.6608 20.9871H55.3002C55.7702 11.4045 51.9394 6.625 43.7607 6.625C35.9345 6.67232 31.9862 10.8366 31.9862 19.1888C31.9862 27.5411 35.8875 31.8473 43.6667 32.0839C49.9887 32.0839 53.4905 29.221 54.9007 24.0156Z" fill="#1D1D1B"/>
<path id="Vector_15" d="M21.1753 16.3495C21.1753 22.9982 18.8251 26.429 12.1035 26.429H6.69807V6.0808H12.9966C19.1306 6.0808 21.1753 10.0321 21.1753 16.3495ZM12.9731 0.544189H3.40779C1.1281 0.591511 0 1.75089 0 3.92767V32.1549H11.1635C14.1952 32.1549 16.5219 31.9183 18.1906 31.4924C24.5831 29.8598 28.0849 24.0866 28.0849 16.3259C28.1084 6.27008 23.5255 0.544189 12.9731 0.544189Z" fill="#1D1D1B"/>
</g>
</g>
</g>
<defs>
<clipPath id="clip0_48_14">
<rect width="222" height="53" fill="white"/>
</clipPath>
</defs>
</svg>
